<svg width="187" height="58" viewBox="0 0 187 58" fill="none" xmlns="http://www.w3.org/2000/svg">
<path d="M54.3628 33.8677C54.3882 33.8719 54.4135 33.874 54.4389 33.874C54.4686 33.874 54.4982 33.874 54.5278 33.874C54.896 33.874 55.243 33.7957 55.5688 33.6392C55.8989 33.4784 56.1867 33.2752 56.4321 33.0298C56.6775 32.7843 56.8701 32.5114 57.0097 32.2109C57.1536 31.9105 57.2256 31.6185 57.2256 31.335C57.2256 31.1318 57.1875 30.9393 57.1113 30.7573C57.0394 30.5754 56.923 30.4167 56.7622 30.2812C56.6056 30.1458 56.4025 30.0379 56.1528 29.9575C55.9074 29.8771 55.6133 29.8369 55.2705 29.8369C54.8854 29.8369 54.5532 29.8729 54.2739 29.9448C53.9988 30.0168 53.7597 30.1099 53.5566 30.2241C53.3577 30.3384 53.1884 30.4696 53.0488 30.6177C52.9134 30.7658 52.7949 30.9181 52.6933 31.0747C52.596 31.2313 52.5071 31.3836 52.4267 31.5317C52.3463 31.6799 52.2617 31.811 52.1728 31.9253C52.0882 32.0396 51.993 32.1326 51.8872 32.2046C51.7814 32.2765 51.6502 32.3125 51.4936 32.3125C51.282 32.3125 51.1233 32.2596 51.0176 32.1538C50.9118 32.0438 50.8589 31.8914 50.8589 31.6968C50.8589 31.5148 50.9075 31.318 51.0049 31.1064C51.1064 30.8949 51.2482 30.6833 51.4301 30.4717C51.6163 30.2601 51.8427 30.057 52.1093 29.8623C52.3759 29.6634 52.6743 29.4899 53.0044 29.3418C53.3387 29.1895 53.7026 29.0688 54.0962 28.98C54.4897 28.8869 54.9065 28.8403 55.3467 28.8403C55.7783 28.8403 56.1909 28.8953 56.5844 29.0054C56.9822 29.1154 57.3335 29.2804 57.6382 29.5005C57.9428 29.7163 58.1841 29.9893 58.3618 30.3193C58.5438 30.6494 58.6347 31.0345 58.6347 31.4746C58.6347 31.7708 58.5797 32.0544 58.4697 32.3252C58.3639 32.5918 58.22 32.8436 58.0381 33.0806C57.8561 33.3133 57.6424 33.5291 57.3969 33.728C57.1557 33.9227 56.8976 34.0962 56.6225 34.2485C56.3475 34.4009 56.0639 34.5299 55.7719 34.6357C55.4842 34.7415 55.2049 34.8177 54.9341 34.8643C54.9721 35.0632 55.0335 35.2874 55.1181 35.5371C55.207 35.7826 55.3128 36.0174 55.4355 36.2417C55.5625 36.4618 55.7021 36.6501 55.8545 36.8066C56.0068 36.9632 56.1676 37.0479 56.3369 37.0605C56.3707 37.0648 56.4025 37.0669 56.4321 37.0669C56.4617 37.0669 56.4913 37.0669 56.521 37.0669C56.8299 37.0669 57.105 37.0161 57.3462 36.9146C57.5874 36.813 57.7884 36.7008 57.9492 36.5781C58.1396 36.4385 58.3047 36.2756 58.4443 36.0894C58.5755 35.9412 58.7088 35.8672 58.8442 35.8672C58.9288 35.8672 59.0008 35.8968 59.06 35.9561C59.1193 36.0153 59.1489 36.0957 59.1489 36.1973C59.1489 36.2946 59.1172 36.4089 59.0537 36.54C58.9944 36.667 58.8908 36.8003 58.7426 36.9399C58.3068 37.3504 57.8794 37.6509 57.4604 37.8413C57.0457 38.0275 56.6522 38.1206 56.2798 38.1206C55.9751 38.1206 55.6937 38.0339 55.4355 37.8604C55.1774 37.6868 54.9425 37.452 54.7309 37.1558C54.5193 36.8595 54.3268 36.5146 54.1533 36.1211C53.9798 35.7233 53.8253 35.3044 53.6899 34.8643C53.6137 35.0378 53.5355 35.243 53.4551 35.48C53.3746 35.7127 53.2879 35.9539 53.1948 36.2036C53.1017 36.4533 53.0044 36.7008 52.9028 36.9463C52.8012 37.1875 52.6891 37.4054 52.5664 37.6001C52.4437 37.7905 52.3125 37.945 52.1728 38.0635C52.0332 38.182 51.8808 38.2412 51.7158 38.2412C51.5804 38.2412 51.4703 38.2201 51.3857 38.1777C51.3011 38.1354 51.2355 38.0825 51.1889 38.019C51.1424 37.9556 51.1085 37.8857 51.0874 37.8096C51.0704 37.7334 51.062 37.6615 51.062 37.5938C51.062 37.4964 51.0747 37.397 51.1001 37.2954C51.1255 37.1938 51.1614 37.0986 51.208 37.0098L53.0805 33.582C53.2413 33.2943 53.4022 33.0171 53.563 32.7505C53.728 32.4797 53.8867 32.2406 54.039 32.0332C54.1956 31.8258 54.3416 31.6608 54.477 31.5381C54.6167 31.4111 54.7415 31.3477 54.8515 31.3477C54.8812 31.3477 54.9171 31.354 54.9594 31.3667C55.0018 31.3752 55.0398 31.3942 55.0737 31.4238C55.1076 31.4492 55.1372 31.4894 55.1626 31.5444C55.188 31.5952 55.2007 31.6608 55.2007 31.7412C55.2007 31.8216 55.1774 31.9338 55.1308 32.0776C55.0843 32.2215 55.0229 32.3866 54.9467 32.5728C54.8706 32.759 54.7817 32.9642 54.6801 33.1885C54.5786 33.4085 54.4728 33.6349 54.3628 33.8677ZM63.0679 34.5342C62.869 34.5342 62.6765 34.585 62.4903 34.6865C62.3041 34.7881 62.1391 34.9214 61.9952 35.0864C61.8513 35.2515 61.737 35.4377 61.6524 35.645C61.5678 35.8481 61.5255 36.0534 61.5255 36.2607C61.5255 36.3454 61.5297 36.4342 61.5382 36.5273C61.5509 36.6162 61.5762 36.6987 61.6143 36.7749C61.6524 36.8511 61.7053 36.9146 61.773 36.9653C61.845 37.0161 61.9402 37.0415 62.0587 37.0415C62.1518 37.0415 62.2597 37.0013 62.3824 36.9209C62.5093 36.8363 62.6384 36.7305 62.7696 36.6035C62.905 36.4723 63.0362 36.3306 63.1632 36.1782C63.2901 36.0216 63.4044 35.8693 63.5059 35.7212C63.6075 35.5731 63.69 35.4398 63.7535 35.3213C63.817 35.2028 63.8487 35.116 63.8487 35.061C63.8487 34.9806 63.8212 34.9087 63.7662 34.8452C63.7112 34.7775 63.6435 34.7204 63.5631 34.6738C63.4827 34.6273 63.3959 34.5934 63.3028 34.5723C63.2139 34.5469 63.1356 34.5342 63.0679 34.5342ZM67.4669 36.1719C67.3907 36.2438 67.2891 36.3433 67.1622 36.4702C67.0352 36.5972 66.8892 36.7347 66.7242 36.8828C66.5634 37.0309 66.3899 37.1812 66.2037 37.3335C66.0217 37.4816 65.8334 37.617 65.6387 37.7397C65.4483 37.8625 65.26 37.9619 65.0738 38.0381C64.8876 38.1185 64.712 38.1587 64.5469 38.1587C64.3988 38.1587 64.2719 38.127 64.1661 38.0635C64.0603 38 63.9714 37.9175 63.8995 37.8159C63.8318 37.7144 63.781 37.6001 63.7471 37.4731C63.7133 37.342 63.6964 37.2087 63.6964 37.0732C63.6964 36.9844 63.7027 36.8976 63.7154 36.813C63.7281 36.7241 63.7493 36.6416 63.7789 36.5654C63.6477 36.7432 63.4975 36.9272 63.3282 37.1177C63.1632 37.3039 62.9833 37.4753 62.7886 37.6318C62.5982 37.7842 62.3972 37.909 62.1856 38.0063C61.9783 38.1079 61.7667 38.1587 61.5509 38.1587C61.4408 38.1587 61.3118 38.1354 61.1636 38.0889C61.0198 38.0465 60.8822 37.9746 60.751 37.873C60.6199 37.7715 60.5098 37.6403 60.421 37.4795C60.3321 37.3187 60.2877 37.1219 60.2877 36.8892C60.2877 36.7157 60.3131 36.5083 60.3638 36.2671C60.4189 36.0259 60.4993 35.7762 60.6051 35.5181C60.7151 35.2557 60.8526 34.9976 61.0176 34.7437C61.1869 34.4897 61.3858 34.2633 61.6143 34.0645C61.8428 33.8613 62.1031 33.6984 62.3951 33.5757C62.6871 33.4487 63.0129 33.3853 63.3726 33.3853C63.5588 33.3853 63.7217 33.4085 63.8614 33.4551C64.001 33.5016 64.1195 33.5524 64.2169 33.6074C64.3269 33.6751 64.4242 33.7492 64.5089 33.8296C64.5808 33.7915 64.6549 33.7555 64.731 33.7217C64.7945 33.6921 64.8601 33.6667 64.9278 33.6455C64.9997 33.6201 65.0611 33.6074 65.1119 33.6074C65.2727 33.6074 65.4039 33.6519 65.5054 33.7407C65.607 33.8296 65.6578 33.9269 65.6578 34.0327C65.6578 34.0623 65.6557 34.0856 65.6514 34.1025C65.6303 34.1829 65.5964 34.2845 65.5499 34.4072C65.5076 34.5299 65.4589 34.6675 65.4039 34.8198C65.3489 34.9679 65.2917 35.1245 65.2325 35.2896C65.1775 35.4504 65.1267 35.609 65.0801 35.7656C65.0336 35.9222 64.9955 36.0703 64.9659 36.21C64.9363 36.3454 64.9215 36.4618 64.9215 36.5591C64.9215 36.686 64.9426 36.7918 64.9849 36.8765C65.0273 36.9569 65.0992 36.9971 65.2008 36.9971C65.2642 36.9971 65.3383 36.978 65.4229 36.9399C65.5118 36.8976 65.607 36.8426 65.7086 36.7749C65.8101 36.7072 65.9138 36.631 66.0196 36.5464C66.1296 36.4575 66.2354 36.3687 66.337 36.2798C66.574 36.0682 66.8258 35.827 67.0924 35.5562C67.1601 35.5011 67.2257 35.4736 67.2891 35.4736C67.3738 35.4736 67.4436 35.516 67.4986 35.6006C67.5578 35.681 67.5875 35.772 67.5875 35.8735C67.5875 35.992 67.5473 36.0915 67.4669 36.1719ZM70.9733 34.4707C70.8167 34.7754 70.6686 35.0737 70.529 35.3657C70.3893 35.6535 70.2581 35.9201 70.1354 36.1655C70.0846 36.2671 70.0339 36.3856 69.9831 36.521C69.9365 36.6522 69.9133 36.7686 69.9133 36.8701C69.9133 36.9294 69.9259 36.9759 69.9513 37.0098C69.981 37.0436 70.0275 37.0605 70.091 37.0605C70.1799 37.0605 70.292 37.0352 70.4274 36.9844C70.5628 36.9294 70.7088 36.8595 70.8654 36.7749C71.022 36.686 71.187 36.5866 71.3605 36.4766C71.534 36.3623 71.7033 36.2459 71.8683 36.1274C72.0376 36.0047 72.1984 35.8841 72.3508 35.7656C72.5031 35.6429 72.6385 35.5308 72.757 35.4292C72.8247 35.3826 72.8882 35.3594 72.9474 35.3594C73.0194 35.3594 73.0786 35.3911 73.1252 35.4546C73.1717 35.5181 73.195 35.5985 73.195 35.6958C73.195 35.7931 73.1717 35.8926 73.1252 35.9941C73.0786 36.0957 72.994 36.1951 72.8713 36.2925C72.5962 36.5422 72.3169 36.7791 72.0334 37.0034C71.7541 37.2277 71.4748 37.4266 71.1955 37.6001C70.9204 37.7694 70.6475 37.9048 70.3766 38.0063C70.1058 38.1079 69.8434 38.1587 69.5895 38.1587C69.4203 38.1587 69.2785 38.1354 69.1642 38.0889C69.05 38.0465 68.9569 37.9873 68.8849 37.9111C68.8172 37.8307 68.7686 37.7397 68.7389 37.6382C68.7093 37.5324 68.6945 37.4202 68.6945 37.3018C68.6945 37.0902 68.7305 36.8701 68.8024 36.6416C68.8744 36.4131 68.9548 36.2078 69.0436 36.0259C69.1706 35.7635 69.2954 35.5033 69.4181 35.2451C69.5451 34.987 69.6678 34.7394 69.7863 34.5024H69.5134C69.2764 34.5024 69.1134 34.4644 69.0246 34.3882C68.9357 34.312 68.8913 34.2253 68.8913 34.1279C68.8913 34.0856 68.904 34.0348 68.9294 33.9756C68.959 33.9121 68.9992 33.855 69.05 33.8042C69.105 33.7492 69.1706 33.7026 69.2467 33.6646C69.3229 33.6265 69.4097 33.6074 69.507 33.6074H70.1926L71.5319 30.9478C71.6165 30.7869 71.7202 30.6727 71.8429 30.605C71.9699 30.533 72.1011 30.4971 72.2365 30.4971C72.3634 30.4971 72.4798 30.5309 72.5856 30.5986C72.6914 30.6663 72.7443 30.7785 72.7443 30.9351C72.7443 31.0155 72.7253 31.098 72.6872 31.1826C72.6533 31.263 72.6068 31.3582 72.5475 31.4683C72.5094 31.5402 72.4629 31.627 72.4079 31.7285C72.3529 31.8258 72.2936 31.9316 72.2301 32.0459C72.1709 32.1559 72.1074 32.2723 72.0397 32.395C71.9762 32.5177 71.9128 32.6362 71.8493 32.7505C71.7054 33.0213 71.5531 33.307 71.3923 33.6074H73.4616C73.5632 33.6074 73.6563 33.6138 73.7409 33.6265C73.8255 33.6349 73.8975 33.6561 73.9567 33.6899C74.0202 33.7196 74.0689 33.7619 74.1027 33.8169C74.1366 33.8719 74.1535 33.946 74.1535 34.0391C74.1535 34.0856 74.145 34.1322 74.1281 34.1787C74.1154 34.2253 74.0879 34.2676 74.0456 34.3057C74.0075 34.3438 73.9525 34.3755 73.8805 34.4009C73.8128 34.4263 73.724 34.4432 73.6139 34.4517L70.9733 34.4707ZM77.3299 34.2549C77.3087 34.2507 77.2897 34.2485 77.2727 34.2485C77.2558 34.2485 77.2368 34.2485 77.2156 34.2485C77.0548 34.2485 76.9046 34.2803 76.7649 34.3438C76.6253 34.4072 76.4962 34.4919 76.3777 34.5977C76.2635 34.6992 76.1598 34.8156 76.0667 34.9468C75.9778 35.078 75.8974 35.2091 75.8255 35.3403C75.7535 35.4673 75.6922 35.59 75.6414 35.7085C75.5948 35.827 75.5589 35.9264 75.5335 36.0068C75.6816 35.9307 75.8339 35.8439 75.9905 35.7466C76.1513 35.6493 76.3015 35.5562 76.4412 35.4673C76.5808 35.3784 76.7014 35.298 76.803 35.2261C76.9088 35.1541 76.9829 35.1055 77.0252 35.0801C77.2156 34.9616 77.3468 34.8516 77.4187 34.75C77.4907 34.6442 77.5266 34.5532 77.5266 34.4771C77.5266 34.4136 77.5055 34.3628 77.4632 34.3247C77.4251 34.2866 77.3806 34.2633 77.3299 34.2549ZM77.5584 33.3789C77.9096 33.3789 78.172 33.4635 78.3455 33.6328C78.519 33.8021 78.6057 34.0369 78.6057 34.3374C78.6057 34.5151 78.5592 34.7013 78.4661 34.896C78.373 35.0907 78.2122 35.2896 77.9837 35.4927C77.7551 35.6916 77.4483 35.8968 77.0633 36.1084C76.6824 36.3158 76.2042 36.5252 75.6287 36.7368C75.6498 36.8595 75.7154 36.9569 75.8255 37.0288C75.9355 37.0965 76.0815 37.1304 76.2635 37.1304C76.4581 37.1304 76.6655 37.1029 76.8855 37.0479C77.1098 36.9886 77.3299 36.9146 77.5457 36.8257C77.7657 36.7368 77.9794 36.6416 78.1868 36.54C78.3941 36.4342 78.5803 36.3348 78.7454 36.2417C78.9147 36.1486 79.0543 36.0682 79.1643 36.0005C79.2786 35.9328 79.3548 35.8905 79.3928 35.8735C79.4309 35.8481 79.4648 35.8333 79.4944 35.8291C79.5283 35.8249 79.5579 35.8228 79.5833 35.8228C79.6341 35.8228 79.6764 35.8354 79.7102 35.8608C79.7441 35.882 79.7716 35.9095 79.7927 35.9434C79.8181 35.973 79.8351 36.0068 79.8435 36.0449C79.852 36.0788 79.8562 36.1084 79.8562 36.1338C79.8562 36.1719 79.852 36.2184 79.8435 36.2734C79.8351 36.3242 79.8033 36.3835 79.7483 36.4512C79.7272 36.4723 79.6552 36.5295 79.5325 36.6226C79.414 36.7157 79.2595 36.8257 79.0691 36.9526C78.8787 37.0796 78.6565 37.215 78.4026 37.3589C78.1529 37.4985 77.8863 37.6276 77.6028 37.7461C77.3235 37.8646 77.0315 37.9619 76.7268 38.0381C76.4221 38.1185 76.1217 38.1587 75.8255 38.1587C75.5716 38.1587 75.3452 38.11 75.1463 38.0127C74.9516 37.9154 74.7844 37.7842 74.6448 37.6191C74.5094 37.4541 74.4057 37.2637 74.3338 37.0479C74.2618 36.832 74.2259 36.6056 74.2259 36.3687C74.2259 36.1867 74.2618 35.9878 74.3338 35.772C74.4057 35.5519 74.5094 35.3319 74.6448 35.1118C74.7802 34.8918 74.9453 34.6781 75.1399 34.4707C75.3388 34.2591 75.561 34.0729 75.8064 33.9121C76.0519 33.7513 76.3206 33.6222 76.6126 33.5249C76.9088 33.4276 77.2241 33.3789 77.5584 33.3789Z" fill="white"/>
<rect x="94.3257" y="7.75122" width="3.43242" height="47.576" fill="#C4C4C4"/>
<path d="M104.998 29.3283H107.014C107.67 29.3283 108.162 29.5043 108.49 29.8563C108.818 30.2083 108.982 30.7243 108.982 31.4043V35.6523C108.982 36.3323 108.818 36.8483 108.49 37.2003C108.162 37.5523 107.67 37.7283 107.014 37.7283H104.998V29.3283ZM106.99 36.5283C107.206 36.5283 107.37 36.4643 107.482 36.3363C107.602 36.2083 107.662 36.0003 107.662 35.7123V31.3443C107.662 31.0563 107.602 30.8483 107.482 30.7203C107.37 30.5923 107.206 30.5283 106.99 30.5283H106.318V36.5283H106.99ZM111.973 29.3283H115.573V30.5283H113.293V32.7483H115.105V33.9483H113.293V36.5283H115.573V37.7283H111.973V29.3283ZM118.084 29.3283H119.416L120.28 35.8443H120.304L121.168 29.3283H122.38L121.108 37.7283H119.356L118.084 29.3283ZM125.114 29.3283H128.714V30.5283H126.434V32.7483H128.246V33.9483H126.434V36.5283H128.714V37.7283H125.114V29.3283ZM131.574 29.3283H132.894V36.5283H135.066V37.7283H131.574V29.3283ZM139.66 37.8483C139.012 37.8483 138.516 37.6643 138.172 37.2963C137.828 36.9283 137.656 36.4083 137.656 35.7363V31.3203C137.656 30.6483 137.828 30.1283 138.172 29.7603C138.516 29.3923 139.012 29.2083 139.66 29.2083C140.308 29.2083 140.804 29.3923 141.148 29.7603C141.492 30.1283 141.664 30.6483 141.664 31.3203V35.7363C141.664 36.4083 141.492 36.9283 141.148 37.2963C140.804 37.6643 140.308 37.8483 139.66 37.8483ZM139.66 36.6483C140.116 36.6483 140.344 36.3723 140.344 35.8203V31.2363C140.344 30.6843 140.116 30.4083 139.66 30.4083C139.204 30.4083 138.976 30.6843 138.976 31.2363V35.8203C138.976 36.3723 139.204 36.6483 139.66 36.6483ZM144.657 29.3283H146.601C147.257 29.3283 147.749 29.5043 148.077 29.8563C148.405 30.2083 148.569 30.7243 148.569 31.4043V32.2323C148.569 32.9123 148.405 33.4283 148.077 33.7803C147.749 34.1323 147.257 34.3083 146.601 34.3083H145.977V37.7283H144.657V29.3283ZM146.601 33.1083C146.817 33.1083 146.977 33.0483 147.081 32.9283C147.193 32.8083 147.249 32.6043 147.249 32.3163V31.3203C147.249 31.0323 147.193 30.8283 147.081 30.7083C146.977 30.5883 146.817 30.5283 146.601 30.5283H145.977V33.1083H146.601ZM151.386 29.3283H154.986V30.5283H152.706V32.7483H154.518V33.9483H152.706V36.5283H154.986V37.7283H151.386V29.3283ZM157.845 29.3283H159.801C160.481 29.3283 160.977 29.4883 161.289 29.8083C161.601 30.1203 161.757 30.6043 161.757 31.2603V31.7763C161.757 32.6483 161.469 33.2003 160.893 33.4323V33.4563C161.213 33.5523 161.437 33.7483 161.565 34.0443C161.701 34.3403 161.769 34.7363 161.769 35.2323V36.7083C161.769 36.9483 161.777 37.1443 161.793 37.2963C161.809 37.4403 161.849 37.5843 161.913 37.7283H160.569C160.521 37.5923 160.489 37.4643 160.473 37.3443C160.457 37.2243 160.449 37.0083 160.449 36.6963V35.1603C160.449 34.7763 160.385 34.5083 160.257 34.3563C160.137 34.2043 159.925 34.1283 159.621 34.1283H159.165V37.7283H157.845V29.3283ZM159.645 32.9283C159.909 32.9283 160.105 32.8603 160.233 32.7243C160.369 32.5883 160.437 32.3603 160.437 32.0403V31.3923C160.437 31.0883 160.381 30.8683 160.269 30.7323C160.165 30.5963 159.997 30.5283 159.765 30.5283H159.165V32.9283H159.645ZM166.501 37.8483C165.861 37.8483 165.377 37.6683 165.049 37.3083C164.721 36.9403 164.557 36.4163 164.557 35.7363V35.2563H165.805V35.8323C165.805 36.3763 166.033 36.6483 166.489 36.6483C166.713 36.6483 166.881 36.5843 166.993 36.4563C167.113 36.3203 167.173 36.1043 167.173 35.8083C167.173 35.4563 167.093 35.1483 166.933 34.8843C166.773 34.6123 166.477 34.2883 166.045 33.9123C165.501 33.4323 165.121 33.0003 164.905 32.6163C164.689 32.2243 164.581 31.7843 164.581 31.2963C164.581 30.6323 164.749 30.1203 165.085 29.7603C165.421 29.3923 165.909 29.2083 166.549 29.2083C167.181 29.2083 167.657 29.3923 167.977 29.7603C168.305 30.1203 168.469 30.6403 168.469 31.3203V31.6683H167.221V31.2363C167.221 30.9483 167.165 30.7403 167.053 30.6123C166.941 30.4763 166.777 30.4083 166.561 30.4083C166.121 30.4083 165.901 30.6763 165.901 31.2123C165.901 31.5163 165.981 31.8003 166.141 32.0643C166.309 32.3283 166.609 32.6483 167.041 33.0243C167.593 33.5043 167.973 33.9403 168.181 34.3323C168.389 34.7243 168.493 35.1843 168.493 35.7123C168.493 36.4003 168.321 36.9283 167.977 37.2963C167.641 37.6643 167.149 37.8483 166.501 37.8483Z" fill="white"/>
</svg>
