<svg width="198" height="56" viewBox="0 0 198 56" fill="none" xmlns="http://www.w3.org/2000/svg">
<path d="M59.8097 32.8677C59.8351 32.8719 59.8605 32.874 59.8859 32.874C59.9155 32.874 59.9451 32.874 59.9747 32.874C60.3429 32.874 60.6899 32.7957 61.0157 32.6392C61.3458 32.4784 61.6336 32.2752 61.879 32.0298C62.1245 31.7843 62.317 31.5114 62.4567 31.2109C62.6005 30.9105 62.6725 30.6185 62.6725 30.335C62.6725 30.1318 62.6344 29.9393 62.5582 29.7573C62.4863 29.5754 62.3699 29.4167 62.2091 29.2812C62.0525 29.1458 61.8494 29.0379 61.5997 28.9575C61.3543 28.8771 61.0602 28.8369 60.7174 28.8369C60.3323 28.8369 60.0001 28.8729 59.7208 28.9448C59.4458 29.0168 59.2067 29.1099 59.0035 29.2241C58.8046 29.3384 58.6354 29.4696 58.4957 29.6177C58.3603 29.7658 58.2418 29.9181 58.1403 30.0747C58.0429 30.2313 57.9541 30.3836 57.8737 30.5317C57.7932 30.6799 57.7086 30.811 57.6197 30.9253C57.5351 31.0396 57.4399 31.1326 57.3341 31.2046C57.2283 31.2765 57.0971 31.3125 56.9405 31.3125C56.729 31.3125 56.5703 31.2596 56.4645 31.1538C56.3587 31.0438 56.3058 30.8914 56.3058 30.6968C56.3058 30.5148 56.3544 30.318 56.4518 30.1064C56.5533 29.8949 56.6951 29.6833 56.8771 29.4717C57.0633 29.2601 57.2897 29.057 57.5563 28.8623C57.8229 28.6634 58.1212 28.4899 58.4513 28.3418C58.7856 28.1895 59.1495 28.0688 59.5431 27.98C59.9366 27.8869 60.3535 27.8403 60.7936 27.8403C61.2252 27.8403 61.6378 27.8953 62.0314 28.0054C62.4292 28.1154 62.7804 28.2804 63.0851 28.5005C63.3898 28.7163 63.631 28.9893 63.8087 29.3193C63.9907 29.6494 64.0817 30.0345 64.0817 30.4746C64.0817 30.7708 64.0266 31.0544 63.9166 31.3252C63.8108 31.5918 63.6669 31.8436 63.485 32.0806C63.303 32.3133 63.0893 32.5291 62.8439 32.728C62.6027 32.9227 62.3445 33.0962 62.0695 33.2485C61.7944 33.4009 61.5109 33.5299 61.2189 33.6357C60.9311 33.7415 60.6518 33.8177 60.381 33.8643C60.4191 34.0632 60.4804 34.2874 60.5651 34.5371C60.6539 34.7826 60.7597 35.0174 60.8824 35.2417C61.0094 35.4618 61.149 35.6501 61.3014 35.8066C61.4537 35.9632 61.6145 36.0479 61.7838 36.0605C61.8177 36.0648 61.8494 36.0669 61.879 36.0669C61.9086 36.0669 61.9383 36.0669 61.9679 36.0669C62.2768 36.0669 62.5519 36.0161 62.7931 35.9146C63.0343 35.813 63.2353 35.7008 63.3961 35.5781C63.5865 35.4385 63.7516 35.2756 63.8912 35.0894C64.0224 34.9412 64.1557 34.8672 64.2911 34.8672C64.3758 34.8672 64.4477 34.8968 64.507 34.9561C64.5662 35.0153 64.5958 35.0957 64.5958 35.1973C64.5958 35.2946 64.5641 35.4089 64.5006 35.54C64.4414 35.667 64.3377 35.8003 64.1896 35.9399C63.7537 36.3504 63.3263 36.6509 62.9073 36.8413C62.4926 37.0275 62.0991 37.1206 61.7267 37.1206C61.422 37.1206 61.1406 37.0339 60.8824 36.8604C60.6243 36.6868 60.3894 36.452 60.1778 36.1558C59.9663 35.8595 59.7737 35.5146 59.6002 35.1211C59.4267 34.7233 59.2723 34.3044 59.1368 33.8643C59.0607 34.0378 58.9824 34.243 58.902 34.48C58.8216 34.7127 58.7348 34.9539 58.6417 35.2036C58.5486 35.4533 58.4513 35.7008 58.3497 35.9463C58.2482 36.1875 58.136 36.4054 58.0133 36.6001C57.8906 36.7905 57.7594 36.945 57.6197 37.0635C57.4801 37.182 57.3278 37.2412 57.1627 37.2412C57.0273 37.2412 56.9173 37.2201 56.8326 37.1777C56.748 37.1354 56.6824 37.0825 56.6359 37.019C56.5893 36.9556 56.5555 36.8857 56.5343 36.8096C56.5174 36.7334 56.5089 36.6615 56.5089 36.5938C56.5089 36.4964 56.5216 36.397 56.547 36.2954C56.5724 36.1938 56.6084 36.0986 56.6549 36.0098L58.5275 32.582C58.6883 32.2943 58.8491 32.0171 59.0099 31.7505C59.1749 31.4797 59.3336 31.2406 59.486 31.0332C59.6425 30.8258 59.7885 30.6608 59.9239 30.5381C60.0636 30.4111 60.1884 30.3477 60.2985 30.3477C60.3281 30.3477 60.364 30.354 60.4064 30.3667C60.4487 30.3752 60.4868 30.3942 60.5206 30.4238C60.5545 30.4492 60.5841 30.4894 60.6095 30.5444C60.6349 30.5952 60.6476 30.6608 60.6476 30.7412C60.6476 30.8216 60.6243 30.9338 60.5778 31.0776C60.5312 31.2215 60.4698 31.3866 60.3937 31.5728C60.3175 31.759 60.2286 31.9642 60.1271 32.1885C60.0255 32.4085 59.9197 32.6349 59.8097 32.8677ZM68.5149 33.5342C68.316 33.5342 68.1234 33.585 67.9372 33.6865C67.751 33.7881 67.586 33.9214 67.4421 34.0864C67.2982 34.2515 67.184 34.4377 67.0993 34.645C67.0147 34.8481 66.9724 35.0534 66.9724 35.2607C66.9724 35.3454 66.9766 35.4342 66.9851 35.5273C66.9978 35.6162 67.0232 35.6987 67.0612 35.7749C67.0993 35.8511 67.1522 35.9146 67.2199 35.9653C67.2919 36.0161 67.3871 36.0415 67.5056 36.0415C67.5987 36.0415 67.7066 36.0013 67.8293 35.9209C67.9563 35.8363 68.0853 35.7305 68.2165 35.6035C68.3519 35.4723 68.4831 35.3306 68.6101 35.1782C68.737 35.0216 68.8513 34.8693 68.9528 34.7212C69.0544 34.5731 69.1369 34.4398 69.2004 34.3213C69.2639 34.2028 69.2956 34.116 69.2956 34.061C69.2956 33.9806 69.2681 33.9087 69.2131 33.8452C69.1581 33.7775 69.0904 33.7204 69.01 33.6738C68.9296 33.6273 68.8428 33.5934 68.7497 33.5723C68.6609 33.5469 68.5826 33.5342 68.5149 33.5342ZM72.9138 35.1719C72.8376 35.2438 72.7361 35.3433 72.6091 35.4702C72.4821 35.5972 72.3362 35.7347 72.1711 35.8828C72.0103 36.0309 71.8368 36.1812 71.6506 36.3335C71.4686 36.4816 71.2803 36.617 71.0857 36.7397C70.8952 36.8625 70.7069 36.9619 70.5207 37.0381C70.3345 37.1185 70.1589 37.1587 69.9939 37.1587C69.8458 37.1587 69.7188 37.127 69.613 37.0635C69.5072 37 69.4183 36.9175 69.3464 36.8159C69.2787 36.7144 69.2279 36.6001 69.1941 36.4731C69.1602 36.342 69.1433 36.2087 69.1433 36.0732C69.1433 35.9844 69.1496 35.8976 69.1623 35.813C69.175 35.7241 69.1962 35.6416 69.2258 35.5654C69.0946 35.7432 68.9444 35.9272 68.7751 36.1177C68.6101 36.3039 68.4302 36.4753 68.2356 36.6318C68.0451 36.7842 67.8441 36.909 67.6325 37.0063C67.4252 37.1079 67.2136 37.1587 66.9978 37.1587C66.8877 37.1587 66.7587 37.1354 66.6106 37.0889C66.4667 37.0465 66.3292 36.9746 66.198 36.873C66.0668 36.7715 65.9568 36.6403 65.8679 36.4795C65.779 36.3187 65.7346 36.1219 65.7346 35.8892C65.7346 35.7157 65.76 35.5083 65.8108 35.2671C65.8658 35.0259 65.9462 34.7762 66.052 34.5181C66.162 34.2557 66.2995 33.9976 66.4646 33.7437C66.6338 33.4897 66.8327 33.2633 67.0612 33.0645C67.2898 32.8613 67.55 32.6984 67.842 32.5757C68.134 32.4487 68.4598 32.3853 68.8195 32.3853C69.0057 32.3853 69.1687 32.4085 69.3083 32.4551C69.448 32.5016 69.5665 32.5524 69.6638 32.6074C69.7738 32.6751 69.8711 32.7492 69.9558 32.8296C70.0277 32.7915 70.1018 32.7555 70.1779 32.7217C70.2414 32.6921 70.307 32.6667 70.3747 32.6455C70.4467 32.6201 70.508 32.6074 70.5588 32.6074C70.7196 32.6074 70.8508 32.6519 70.9524 32.7407C71.0539 32.8296 71.1047 32.9269 71.1047 33.0327C71.1047 33.0623 71.1026 33.0856 71.0984 33.1025C71.0772 33.1829 71.0433 33.2845 70.9968 33.4072C70.9545 33.5299 70.9058 33.6675 70.8508 33.8198C70.7958 33.9679 70.7387 34.1245 70.6794 34.2896C70.6244 34.4504 70.5736 34.609 70.5271 34.7656C70.4805 34.9222 70.4424 35.0703 70.4128 35.21C70.3832 35.3454 70.3684 35.4618 70.3684 35.5591C70.3684 35.686 70.3895 35.7918 70.4319 35.8765C70.4742 35.9569 70.5461 35.9971 70.6477 35.9971C70.7112 35.9971 70.7852 35.978 70.8698 35.9399C70.9587 35.8976 71.0539 35.8426 71.1555 35.7749C71.257 35.7072 71.3607 35.631 71.4665 35.5464C71.5765 35.4575 71.6823 35.3687 71.7839 35.2798C72.0209 35.0682 72.2727 34.827 72.5393 34.5562C72.607 34.5011 72.6726 34.4736 72.7361 34.4736C72.8207 34.4736 72.8905 34.516 72.9455 34.6006C73.0048 34.681 73.0344 34.772 73.0344 34.8735C73.0344 34.992 72.9942 35.0915 72.9138 35.1719ZM76.4202 33.4707C76.2637 33.7754 76.1155 34.0737 75.9759 34.3657C75.8362 34.6535 75.7051 34.9201 75.5823 35.1655C75.5316 35.2671 75.4808 35.3856 75.43 35.521C75.3834 35.6522 75.3602 35.7686 75.3602 35.8701C75.3602 35.9294 75.3729 35.9759 75.3983 36.0098C75.4279 36.0436 75.4744 36.0605 75.5379 36.0605C75.6268 36.0605 75.7389 36.0352 75.8743 35.9844C76.0098 35.9294 76.1557 35.8595 76.3123 35.7749C76.4689 35.686 76.6339 35.5866 76.8074 35.4766C76.9809 35.3623 77.1502 35.2459 77.3153 35.1274C77.4845 35.0047 77.6453 34.8841 77.7977 34.7656C77.95 34.6429 78.0854 34.5308 78.2039 34.4292C78.2716 34.3826 78.3351 34.3594 78.3944 34.3594C78.4663 34.3594 78.5255 34.3911 78.5721 34.4546C78.6186 34.5181 78.6419 34.5985 78.6419 34.6958C78.6419 34.7931 78.6186 34.8926 78.5721 34.9941C78.5255 35.0957 78.4409 35.1951 78.3182 35.2925C78.0431 35.5422 77.7638 35.7791 77.4803 36.0034C77.201 36.2277 76.9217 36.4266 76.6424 36.6001C76.3673 36.7694 76.0944 36.9048 75.8236 37.0063C75.5527 37.1079 75.2903 37.1587 75.0364 37.1587C74.8672 37.1587 74.7254 37.1354 74.6112 37.0889C74.4969 37.0465 74.4038 36.9873 74.3319 36.9111C74.2641 36.8307 74.2155 36.7397 74.1859 36.6382C74.1562 36.5324 74.1414 36.4202 74.1414 36.3018C74.1414 36.0902 74.1774 35.8701 74.2493 35.6416C74.3213 35.4131 74.4017 35.2078 74.4905 35.0259C74.6175 34.7635 74.7423 34.5033 74.8651 34.2451C74.992 33.987 75.1147 33.7394 75.2332 33.5024H74.9603C74.7233 33.5024 74.5604 33.4644 74.4715 33.3882C74.3826 33.312 74.3382 33.2253 74.3382 33.1279C74.3382 33.0856 74.3509 33.0348 74.3763 32.9756C74.4059 32.9121 74.4461 32.855 74.4969 32.8042C74.5519 32.7492 74.6175 32.7026 74.6937 32.6646C74.7698 32.6265 74.8566 32.6074 74.9539 32.6074H75.6395L76.9788 29.9478C77.0635 29.7869 77.1671 29.6727 77.2899 29.605C77.4168 29.533 77.548 29.4971 77.6834 29.4971C77.8104 29.4971 77.9267 29.5309 78.0325 29.5986C78.1383 29.6663 78.1912 29.7785 78.1912 29.9351C78.1912 30.0155 78.1722 30.098 78.1341 30.1826C78.1002 30.263 78.0537 30.3582 77.9945 30.4683C77.9564 30.5402 77.9098 30.627 77.8548 30.7285C77.7998 30.8258 77.7405 30.9316 77.6771 31.0459C77.6178 31.1559 77.5543 31.2723 77.4866 31.395C77.4232 31.5177 77.3597 31.6362 77.2962 31.7505C77.1523 32.0213 77 32.307 76.8392 32.6074H78.9085C79.0101 32.6074 79.1032 32.6138 79.1878 32.6265C79.2724 32.6349 79.3444 32.6561 79.4036 32.6899C79.4671 32.7196 79.5158 32.7619 79.5496 32.8169C79.5835 32.8719 79.6004 32.946 79.6004 33.0391C79.6004 33.0856 79.5919 33.1322 79.575 33.1787C79.5623 33.2253 79.5348 33.2676 79.4925 33.3057C79.4544 33.3438 79.3994 33.3755 79.3275 33.4009C79.2598 33.4263 79.1709 33.4432 79.0609 33.4517L76.4202 33.4707ZM82.7768 33.2549C82.7556 33.2507 82.7366 33.2485 82.7196 33.2485C82.7027 33.2485 82.6837 33.2485 82.6625 33.2485C82.5017 33.2485 82.3515 33.2803 82.2118 33.3438C82.0722 33.4072 81.9431 33.4919 81.8246 33.5977C81.7104 33.6992 81.6067 33.8156 81.5136 33.9468C81.4247 34.078 81.3443 34.2091 81.2724 34.3403C81.2004 34.4673 81.1391 34.59 81.0883 34.7085C81.0417 34.827 81.0058 34.9264 80.9804 35.0068C81.1285 34.9307 81.2808 34.8439 81.4374 34.7466C81.5982 34.6493 81.7485 34.5562 81.8881 34.4673C82.0278 34.3784 82.1484 34.298 82.2499 34.2261C82.3557 34.1541 82.4298 34.1055 82.4721 34.0801C82.6625 33.9616 82.7937 33.8516 82.8656 33.75C82.9376 33.6442 82.9736 33.5532 82.9736 33.4771C82.9736 33.4136 82.9524 33.3628 82.9101 33.3247C82.872 33.2866 82.8276 33.2633 82.7768 33.2549ZM83.0053 32.3789C83.3565 32.3789 83.6189 32.4635 83.7924 32.6328C83.9659 32.8021 84.0527 33.0369 84.0527 33.3374C84.0527 33.5151 84.0061 33.7013 83.913 33.896C83.8199 34.0907 83.6591 34.2896 83.4306 34.4927C83.2021 34.6916 82.8953 34.8968 82.5102 35.1084C82.1293 35.3158 81.6511 35.5252 81.0756 35.7368C81.0968 35.8595 81.1624 35.9569 81.2724 36.0288C81.3824 36.0965 81.5284 36.1304 81.7104 36.1304C81.905 36.1304 82.1124 36.1029 82.3324 36.0479C82.5567 35.9886 82.7768 35.9146 82.9926 35.8257C83.2126 35.7368 83.4264 35.6416 83.6337 35.54C83.8411 35.4342 84.0273 35.3348 84.1923 35.2417C84.3616 35.1486 84.5012 35.0682 84.6112 35.0005C84.7255 34.9328 84.8017 34.8905 84.8398 34.8735C84.8778 34.8481 84.9117 34.8333 84.9413 34.8291C84.9752 34.8249 85.0048 34.8228 85.0302 34.8228C85.081 34.8228 85.1233 34.8354 85.1571 34.8608C85.191 34.882 85.2185 34.9095 85.2397 34.9434C85.2651 34.973 85.282 35.0068 85.2904 35.0449C85.2989 35.0788 85.3031 35.1084 85.3031 35.1338C85.3031 35.1719 85.2989 35.2184 85.2904 35.2734C85.282 35.3242 85.2502 35.3835 85.1952 35.4512C85.1741 35.4723 85.1021 35.5295 84.9794 35.6226C84.8609 35.7157 84.7065 35.8257 84.516 35.9526C84.3256 36.0796 84.1034 36.215 83.8495 36.3589C83.5999 36.4985 83.3333 36.6276 83.0497 36.7461C82.7704 36.8646 82.4784 36.9619 82.1737 37.0381C81.8691 37.1185 81.5686 37.1587 81.2724 37.1587C81.0185 37.1587 80.7921 37.11 80.5932 37.0127C80.3985 36.9154 80.2314 36.7842 80.0917 36.6191C79.9563 36.4541 79.8526 36.2637 79.7807 36.0479C79.7087 35.832 79.6728 35.6056 79.6728 35.3687C79.6728 35.1867 79.7087 34.9878 79.7807 34.772C79.8526 34.5519 79.9563 34.3319 80.0917 34.1118C80.2271 33.8918 80.3922 33.6781 80.5868 33.4707C80.7857 33.2591 81.0079 33.0729 81.2533 32.9121C81.4988 32.7513 81.7675 32.6222 82.0595 32.5249C82.3557 32.4276 82.671 32.3789 83.0053 32.3789Z" fill="white"/>
<path d="M94.3657 7.48389H98V53.4194H94.3657V30.5V7.48389Z" fill="#C4C4C4"/>
<path d="M113.561 28.6H115.577C116.233 28.6 116.725 28.776 117.053 29.128C117.381 29.48 117.545 29.996 117.545 30.676V34.924C117.545 35.604 117.381 36.12 117.053 36.472C116.725 36.824 116.233 37 115.577 37H113.561V28.6ZM115.553 35.8C115.769 35.8 115.933 35.736 116.045 35.608C116.165 35.48 116.225 35.272 116.225 34.984V30.616C116.225 30.328 116.165 30.12 116.045 29.992C115.933 29.864 115.769 29.8 115.553 29.8H114.881V35.8H115.553ZM120.536 28.6H124.136V29.8H121.856V32.02H123.668V33.22H121.856V35.8H124.136V37H120.536V28.6ZM126.647 28.6H127.979L128.843 35.116H128.867L129.731 28.6H130.943L129.671 37H127.919L126.647 28.6ZM133.677 28.6H137.277V29.8H134.997V32.02H136.809V33.22H134.997V35.8H137.277V37H133.677V28.6ZM140.137 28.6H141.457V35.8H143.629V37H140.137V28.6ZM148.223 37.12C147.575 37.12 147.079 36.936 146.735 36.568C146.391 36.2 146.219 35.68 146.219 35.008V30.592C146.219 29.92 146.391 29.4 146.735 29.032C147.079 28.664 147.575 28.48 148.223 28.48C148.871 28.48 149.367 28.664 149.711 29.032C150.055 29.4 150.227 29.92 150.227 30.592V35.008C150.227 35.68 150.055 36.2 149.711 36.568C149.367 36.936 148.871 37.12 148.223 37.12ZM148.223 35.92C148.679 35.92 148.907 35.644 148.907 35.092V30.508C148.907 29.956 148.679 29.68 148.223 29.68C147.767 29.68 147.539 29.956 147.539 30.508V35.092C147.539 35.644 147.767 35.92 148.223 35.92ZM153.219 28.6H155.163C155.819 28.6 156.311 28.776 156.639 29.128C156.967 29.48 157.131 29.996 157.131 30.676V31.504C157.131 32.184 156.967 32.7 156.639 33.052C156.311 33.404 155.819 33.58 155.163 33.58H154.539V37H153.219V28.6ZM155.163 32.38C155.379 32.38 155.539 32.32 155.643 32.2C155.755 32.08 155.811 31.876 155.811 31.588V30.592C155.811 30.304 155.755 30.1 155.643 29.98C155.539 29.86 155.379 29.8 155.163 29.8H154.539V32.38H155.163ZM159.948 28.6H163.548V29.8H161.268V32.02H163.08V33.22H161.268V35.8H163.548V37H159.948V28.6ZM166.408 28.6H168.364C169.044 28.6 169.54 28.76 169.852 29.08C170.164 29.392 170.32 29.876 170.32 30.532V31.048C170.32 31.92 170.032 32.472 169.456 32.704V32.728C169.776 32.824 170 33.02 170.128 33.316C170.264 33.612 170.332 34.008 170.332 34.504V35.98C170.332 36.22 170.34 36.416 170.356 36.568C170.372 36.712 170.412 36.856 170.476 37H169.132C169.084 36.864 169.052 36.736 169.036 36.616C169.02 36.496 169.012 36.28 169.012 35.968V34.432C169.012 34.048 168.948 33.78 168.82 33.628C168.7 33.476 168.488 33.4 168.184 33.4H167.728V37H166.408V28.6ZM168.208 32.2C168.472 32.2 168.668 32.132 168.796 31.996C168.932 31.86 169 31.632 169 31.312V30.664C169 30.36 168.944 30.14 168.832 30.004C168.728 29.868 168.56 29.8 168.328 29.8H167.728V32.2H168.208ZM175.064 37.12C174.424 37.12 173.94 36.94 173.612 36.58C173.284 36.212 173.12 35.688 173.12 35.008V34.528H174.368V35.104C174.368 35.648 174.596 35.92 175.052 35.92C175.276 35.92 175.444 35.856 175.556 35.728C175.676 35.592 175.736 35.376 175.736 35.08C175.736 34.728 175.656 34.42 175.496 34.156C175.336 33.884 175.04 33.56 174.608 33.184C174.064 32.704 173.684 32.272 173.468 31.888C173.252 31.496 173.144 31.056 173.144 30.568C173.144 29.904 173.312 29.392 173.648 29.032C173.984 28.664 174.472 28.48 175.112 28.48C175.744 28.48 176.22 28.664 176.54 29.032C176.868 29.392 177.032 29.912 177.032 30.592V30.94H175.784V30.508C175.784 30.22 175.728 30.012 175.616 29.884C175.504 29.748 175.34 29.68 175.124 29.68C174.684 29.68 174.464 29.948 174.464 30.484C174.464 30.788 174.544 31.072 174.704 31.336C174.872 31.6 175.172 31.92 175.604 32.296C176.156 32.776 176.536 33.212 176.744 33.604C176.952 33.996 177.056 34.456 177.056 34.984C177.056 35.672 176.884 36.2 176.54 36.568C176.204 36.936 175.712 37.12 175.064 37.12Z" fill="white"/>
<path d="M19.1234 32.82C19.1234 32.7467 19.0934 32.6933 19.0334 32.66C18.98 32.62 18.8834 32.6 18.7434 32.6H15.5034V33.84H17.4634C17.5967 33.84 17.7 33.8267 17.7734 33.8C17.8467 33.7733 17.8834 33.7133 17.8834 33.62H18.0634V35.06H17.8834C17.8834 34.9067 17.8467 34.81 17.7734 34.77C17.7 34.7233 17.5967 34.7 17.4634 34.7H15.5034V36.64C15.5034 36.7 15.53 36.7467 15.5834 36.78C15.6434 36.8067 15.7167 36.82 15.8034 36.82V37H14.1034V36.82C14.2767 36.82 14.3634 36.76 14.3634 36.64V32.1C14.3634 31.98 14.2767 31.92 14.1034 31.92V31.74H18.7434C18.8834 31.74 18.98 31.72 19.0334 31.68C19.0934 31.6333 19.1234 31.5733 19.1234 31.5H19.3034V32.82H19.1234ZM22.2066 36.82C22.3133 36.82 22.3866 36.81 22.4266 36.79C22.4666 36.7633 22.4866 36.7233 22.4866 36.67V32.93C22.4866 32.8767 22.4666 32.84 22.4266 32.82C22.3866 32.7933 22.3133 32.78 22.2066 32.78V32.6H23.7266V32.78C23.54 32.78 23.4466 32.83 23.4466 32.93V36.67C23.4466 36.77 23.54 36.82 23.7266 36.82V37H22.2066V36.82ZM29.9067 34.5C30.5601 34.5 30.8867 34.2933 30.8867 33.88C30.8867 33.7133 30.8067 33.5833 30.6467 33.49C30.4934 33.39 30.2467 33.34 29.9067 33.34H28.3267V34.5H29.9067ZM29.9267 32.6C30.5201 32.6 30.9834 32.7 31.3167 32.9C31.6501 33.0933 31.8167 33.4267 31.8167 33.9C31.8167 34.08 31.7834 34.24 31.7167 34.38C31.6501 34.52 31.5601 34.6433 31.4467 34.75C31.3401 34.85 31.2201 34.9333 31.0867 35C30.9534 35.06 30.8167 35.1067 30.6767 35.14L31.6567 36.57C31.7101 36.6433 31.7667 36.7 31.8267 36.74C31.8934 36.7733 31.9634 36.8 32.0367 36.82V37H30.5067V36.82C30.5934 36.82 30.6367 36.79 30.6367 36.73C30.6367 36.6633 30.5867 36.56 30.4867 36.42L29.6967 35.24H28.3067V36.67C28.3067 36.7233 28.3267 36.7633 28.3667 36.79C28.4134 36.81 28.4567 36.82 28.4967 36.82V37H27.1667V36.82C27.2867 36.82 27.3467 36.77 27.3467 36.67V32.93C27.3467 32.83 27.2867 32.78 27.1667 32.78V32.6H29.9267ZM35.36 35.47C35.36 35.4967 35.3567 35.5267 35.35 35.56C35.35 35.5867 35.35 35.6167 35.35 35.65C35.35 35.75 35.4133 35.8433 35.54 35.93C35.6667 36.01 35.8167 36.08 35.99 36.14C36.17 36.1933 36.3467 36.2367 36.52 36.27C36.7 36.3033 36.84 36.32 36.94 36.32C37.0333 36.32 37.1467 36.3133 37.28 36.3C37.42 36.2867 37.5567 36.26 37.69 36.22C37.8233 36.1733 37.9367 36.1133 38.03 36.04C38.1233 35.96 38.17 35.8567 38.17 35.73C38.17 35.5833 38.0867 35.4767 37.92 35.41C37.76 35.3433 37.5567 35.2933 37.31 35.26C37.0633 35.22 36.7967 35.1833 36.51 35.15C36.2233 35.11 35.9567 35.05 35.71 34.97C35.4633 34.8833 35.2567 34.7633 35.09 34.61C34.93 34.45 34.85 34.2267 34.85 33.94C34.85 33.5133 35.0267 33.1733 35.38 32.92C35.7333 32.6667 36.23 32.54 36.87 32.54C37.1833 32.54 37.45 32.5667 37.67 32.62C37.8967 32.6667 38.0867 32.72 38.24 32.78C38.3933 32.84 38.5167 32.8967 38.61 32.95C38.71 32.9967 38.7833 33.02 38.83 33.02C38.8833 33.02 38.9233 33.0133 38.95 33C38.9767 32.98 39.01 32.96 39.05 32.94L39.16 33.05L38.66 33.99L38.48 33.93C38.4733 33.89 38.4667 33.85 38.46 33.81C38.4533 33.77 38.4233 33.73 38.37 33.69C38.2367 33.5767 38.03 33.48 37.75 33.4C37.47 33.32 37.1567 33.28 36.81 33.28C36.6767 33.28 36.55 33.29 36.43 33.31C36.31 33.3233 36.2033 33.35 36.11 33.39C36.0167 33.43 35.9433 33.4833 35.89 33.55C35.8367 33.61 35.81 33.6867 35.81 33.78C35.81 33.9267 35.89 34.0333 36.05 34.1C36.2167 34.16 36.4233 34.21 36.67 34.25C36.9167 34.2833 37.1833 34.32 37.47 34.36C37.7567 34.3933 38.0233 34.4533 38.27 34.54C38.5167 34.6267 38.72 34.7533 38.88 34.92C39.0467 35.0867 39.13 35.3167 39.13 35.61C39.13 35.9033 39.0567 36.1433 38.91 36.33C38.77 36.5167 38.5933 36.6633 38.38 36.77C38.1667 36.8767 37.93 36.9467 37.67 36.98C37.4167 37.0133 37.1767 37.03 36.95 37.03C36.7233 37.03 36.4967 37.01 36.27 36.97C36.05 36.9233 35.8467 36.8733 35.66 36.82C35.48 36.76 35.3267 36.7067 35.2 36.66C35.0733 36.6067 34.9967 36.58 34.97 36.58C34.9233 36.58 34.8833 36.6 34.85 36.64L34.71 36.54L35.17 35.42L35.36 35.47ZM43.4266 36.82C43.46 36.82 43.4933 36.81 43.5266 36.79C43.56 36.7633 43.5766 36.7233 43.5766 36.67V33.34H42.2766C42.2233 33.34 42.1733 33.3533 42.1266 33.38C42.08 33.4067 42.0566 33.45 42.0566 33.51H41.8766V32.36H42.0566C42.0566 32.4533 42.08 32.5167 42.1266 32.55C42.1733 32.5833 42.2233 32.6 42.2766 32.6H45.8366C45.89 32.6 45.94 32.5833 45.9866 32.55C46.0333 32.5167 46.0566 32.4533 46.0566 32.36H46.2366V33.51H46.0566C46.0566 33.45 46.0333 33.4067 45.9866 33.38C45.94 33.3533 45.89 33.34 45.8366 33.34H44.5366V36.67C44.5366 36.77 44.5966 36.82 44.7166 36.82V37H43.4266V36.82Z" fill="white"/>
</svg>
