<svg width="198" height="56" viewBox="0 0 198 56" fill="none" xmlns="http://www.w3.org/2000/svg">
<path d="M58.4797 32.5498C58.5071 32.5544 58.5344 32.5566 58.5617 32.5566C58.5936 32.5566 58.6256 32.5566 58.6575 32.5566C59.0539 32.5566 59.4276 32.4723 59.7785 32.3037C60.134 32.1305 60.4439 31.9118 60.7082 31.6475C60.9726 31.3831 61.1799 31.0892 61.3303 30.7656C61.4853 30.4421 61.5627 30.1276 61.5627 29.8223C61.5627 29.6035 61.5217 29.3962 61.4397 29.2002C61.3622 29.0042 61.2369 28.8333 61.0637 28.6875C60.8951 28.5417 60.6763 28.4255 60.4075 28.3389C60.1431 28.2523 59.8264 28.209 59.4573 28.209C59.0425 28.209 58.6848 28.2477 58.384 28.3252C58.0878 28.4027 57.8303 28.5029 57.6116 28.626C57.3974 28.749 57.2151 28.8903 57.0647 29.0498C56.9188 29.2093 56.7912 29.3734 56.6819 29.542C56.577 29.7106 56.4813 29.8747 56.3948 30.0342C56.3082 30.1937 56.217 30.335 56.1213 30.458C56.0302 30.5811 55.9276 30.6813 55.8137 30.7588C55.6998 30.8363 55.5585 30.875 55.3899 30.875C55.162 30.875 54.9911 30.818 54.8772 30.7041C54.7632 30.5856 54.7063 30.4215 54.7063 30.2119C54.7063 30.016 54.7587 29.804 54.8635 29.5762C54.9729 29.3483 55.1256 29.1204 55.3215 28.8926C55.522 28.6647 55.7659 28.446 56.053 28.2363C56.3401 28.0221 56.6614 27.8353 57.0168 27.6758C57.3769 27.5117 57.7688 27.3818 58.1926 27.2861C58.6164 27.1859 59.0653 27.1357 59.5393 27.1357C60.0041 27.1357 60.4485 27.195 60.8723 27.3135C61.3007 27.432 61.6789 27.6097 62.0071 27.8467C62.3352 28.0791 62.595 28.373 62.7864 28.7285C62.9823 29.084 63.0803 29.4987 63.0803 29.9727C63.0803 30.2917 63.0211 30.597 62.9026 30.8887C62.7886 31.1758 62.6337 31.4469 62.4377 31.7021C62.2418 31.9528 62.0116 32.1852 61.7473 32.3994C61.4875 32.609 61.2095 32.7959 60.9133 32.96C60.6171 33.124 60.3117 33.263 59.9973 33.377C59.6874 33.4909 59.3866 33.5729 59.095 33.623C59.136 33.8372 59.202 34.0788 59.2932 34.3477C59.3889 34.612 59.5028 34.8649 59.635 35.1064C59.7717 35.3434 59.9221 35.5462 60.0862 35.7148C60.2502 35.8835 60.4234 35.9746 60.6057 35.9883C60.6422 35.9928 60.6763 35.9951 60.7082 35.9951C60.7401 35.9951 60.772 35.9951 60.8039 35.9951C61.1366 35.9951 61.4328 35.9404 61.6926 35.8311C61.9524 35.7217 62.1688 35.6009 62.342 35.4688C62.5471 35.3184 62.7248 35.1429 62.8752 34.9424C63.0165 34.7829 63.1601 34.7031 63.3059 34.7031C63.397 34.7031 63.4745 34.735 63.5383 34.7988C63.6021 34.8626 63.634 34.9492 63.634 35.0586C63.634 35.1634 63.5998 35.2865 63.5315 35.4277C63.4677 35.5645 63.356 35.708 63.1965 35.8584C62.7271 36.3005 62.2668 36.624 61.8157 36.8291C61.369 37.0296 60.9452 37.1299 60.5442 37.1299C60.216 37.1299 59.913 37.0365 59.635 36.8496C59.357 36.6628 59.1041 36.4098 58.8762 36.0908C58.6483 35.7718 58.441 35.4004 58.2541 34.9766C58.0673 34.5482 57.9009 34.097 57.7551 33.623C57.6731 33.8099 57.5888 34.0309 57.5022 34.2861C57.4156 34.5368 57.3222 34.7965 57.2219 35.0654C57.1216 35.3343 57.0168 35.6009 56.9075 35.8652C56.7981 36.125 56.6773 36.3597 56.5451 36.5693C56.413 36.7744 56.2717 36.9408 56.1213 37.0684C55.9709 37.196 55.8069 37.2598 55.6291 37.2598C55.4833 37.2598 55.3648 37.237 55.2737 37.1914C55.1825 37.1458 55.1119 37.0889 55.0617 37.0205C55.0116 36.9521 54.9752 36.877 54.9524 36.7949C54.9341 36.7129 54.925 36.6354 54.925 36.5625C54.925 36.4577 54.9387 36.3506 54.966 36.2412C54.9934 36.1318 55.0321 36.0293 55.0823 35.9336L57.0989 32.2422C57.272 31.9323 57.4452 31.6338 57.6184 31.3467C57.7961 31.055 57.967 30.7975 58.1311 30.5742C58.2997 30.3509 58.4569 30.1732 58.6028 30.041C58.7532 29.9043 58.8876 29.8359 59.0061 29.8359C59.038 29.8359 59.0767 29.8428 59.1223 29.8564C59.1679 29.8656 59.2089 29.8861 59.2453 29.918C59.2818 29.9453 59.3137 29.9886 59.341 30.0479C59.3684 30.1025 59.3821 30.1732 59.3821 30.2598C59.3821 30.3464 59.357 30.4671 59.3069 30.6221C59.2567 30.777 59.1907 30.9548 59.1086 31.1553C59.0266 31.3558 58.9309 31.5768 58.8215 31.8184C58.7121 32.0553 58.5982 32.2992 58.4797 32.5498ZM67.8545 33.2676C67.6403 33.2676 67.433 33.3223 67.2325 33.4316C67.0319 33.541 66.8542 33.6846 66.6992 33.8623C66.5443 34.04 66.4213 34.2406 66.3301 34.4639C66.239 34.6826 66.1934 34.9036 66.1934 35.127C66.1934 35.2181 66.1979 35.3138 66.2071 35.4141C66.2207 35.5098 66.2481 35.5986 66.2891 35.6807C66.3301 35.7627 66.3871 35.8311 66.46 35.8857C66.5375 35.9404 66.64 35.9678 66.7676 35.9678C66.8679 35.9678 66.9841 35.9245 67.1162 35.8379C67.253 35.7467 67.392 35.6328 67.5332 35.4961C67.6791 35.3548 67.8203 35.2021 67.9571 35.0381C68.0938 34.8695 68.2168 34.7054 68.3262 34.5459C68.4356 34.3864 68.5244 34.2428 68.5928 34.1152C68.6612 33.9876 68.6953 33.8942 68.6953 33.835C68.6953 33.7484 68.6657 33.6709 68.6065 33.6025C68.5472 33.5296 68.4743 33.4681 68.3877 33.418C68.3011 33.3678 68.2077 33.3314 68.1075 33.3086C68.0117 33.2812 67.9274 33.2676 67.8545 33.2676ZM72.5918 35.0312C72.5098 35.1087 72.4004 35.2158 72.2637 35.3525C72.127 35.4893 71.9698 35.6374 71.792 35.7969C71.6188 35.9564 71.432 36.1182 71.2315 36.2822C71.0355 36.4417 70.8327 36.5876 70.6231 36.7197C70.418 36.8519 70.2152 36.959 70.0147 37.041C69.8142 37.1276 69.625 37.1709 69.4473 37.1709C69.2878 37.1709 69.1511 37.1367 69.0371 37.0684C68.9232 37 68.8275 36.9111 68.75 36.8018C68.6771 36.6924 68.6224 36.5693 68.586 36.4326C68.5495 36.2913 68.5313 36.1478 68.5313 36.002C68.5313 35.9062 68.5381 35.8128 68.5518 35.7217C68.5655 35.626 68.5882 35.5371 68.6201 35.4551C68.4789 35.6465 68.3171 35.8447 68.1348 36.0498C67.9571 36.2503 67.7634 36.4349 67.5537 36.6035C67.3487 36.7676 67.1322 36.902 66.9043 37.0068C66.681 37.1162 66.4532 37.1709 66.2207 37.1709C66.1022 37.1709 65.9632 37.1458 65.8037 37.0957C65.6488 37.0501 65.5007 36.9727 65.3594 36.8633C65.2181 36.7539 65.0996 36.6126 65.0039 36.4395C64.9082 36.2663 64.8604 36.0544 64.8604 35.8037C64.8604 35.6169 64.8877 35.3936 64.9424 35.1338C65.0017 34.874 65.0882 34.6051 65.2022 34.3271C65.3207 34.0446 65.4688 33.7666 65.6465 33.4932C65.8288 33.2197 66.043 32.9759 66.2891 32.7617C66.5352 32.543 66.8155 32.3675 67.1299 32.2354C67.4444 32.0986 67.7953 32.0303 68.1826 32.0303C68.3832 32.0303 68.5586 32.0553 68.709 32.1055C68.8594 32.1556 68.987 32.2103 69.0918 32.2695C69.2103 32.3424 69.3151 32.4222 69.4063 32.5088C69.4838 32.4678 69.5635 32.429 69.6455 32.3926C69.7139 32.3607 69.7845 32.3333 69.8575 32.3105C69.9349 32.2832 70.001 32.2695 70.0557 32.2695C70.2289 32.2695 70.3701 32.3174 70.4795 32.4131C70.5889 32.5088 70.6436 32.6136 70.6436 32.7275C70.6436 32.7594 70.6413 32.7845 70.6367 32.8027C70.614 32.8893 70.5775 32.9987 70.5274 33.1309C70.4818 33.263 70.4294 33.4111 70.3701 33.5752C70.3109 33.7347 70.2494 33.9033 70.1856 34.0811C70.1263 34.2542 70.0716 34.4251 70.0215 34.5938C69.9714 34.7624 69.9304 34.9219 69.8985 35.0723C69.8666 35.2181 69.8506 35.3434 69.8506 35.4482C69.8506 35.585 69.8734 35.6989 69.919 35.79C69.9645 35.8766 70.042 35.9199 70.1514 35.9199C70.2198 35.9199 70.2995 35.8994 70.3907 35.8584C70.4864 35.8128 70.5889 35.7536 70.6983 35.6807C70.8076 35.6077 70.9193 35.5257 71.0332 35.4346C71.1517 35.3389 71.2657 35.2432 71.375 35.1475C71.6302 34.9196 71.9014 34.6598 72.1885 34.3682C72.2614 34.3089 72.3321 34.2793 72.4004 34.2793C72.4916 34.2793 72.5668 34.3249 72.626 34.416C72.6898 34.5026 72.7217 34.6006 72.7217 34.71C72.7217 34.8376 72.6784 34.9447 72.5918 35.0312ZM76.368 33.1992C76.1994 33.5273 76.0399 33.8486 75.8895 34.1631C75.7391 34.473 75.5978 34.7601 75.4657 35.0244C75.411 35.1338 75.3563 35.2614 75.3016 35.4072C75.2515 35.5485 75.2264 35.6738 75.2264 35.7832C75.2264 35.847 75.2401 35.8971 75.2674 35.9336C75.2993 35.9701 75.3494 35.9883 75.4178 35.9883C75.5135 35.9883 75.6343 35.9609 75.7801 35.9062C75.9259 35.847 76.0832 35.7718 76.2518 35.6807C76.4204 35.585 76.5981 35.4779 76.785 35.3594C76.9718 35.2363 77.1541 35.111 77.3319 34.9834C77.5142 34.8512 77.6873 34.7214 77.8514 34.5938C78.0155 34.4616 78.1613 34.3408 78.2889 34.2314C78.3618 34.1813 78.4302 34.1562 78.494 34.1562C78.5714 34.1562 78.6353 34.1904 78.6854 34.2588C78.7355 34.3271 78.7606 34.4137 78.7606 34.5186C78.7606 34.6234 78.7355 34.7305 78.6854 34.8398C78.6353 34.9492 78.5441 35.0563 78.4119 35.1611C78.1157 35.43 77.8149 35.6852 77.5096 35.9268C77.2088 36.1683 76.908 36.3825 76.6073 36.5693C76.311 36.7516 76.0171 36.8975 75.7254 37.0068C75.4338 37.1162 75.1512 37.1709 74.8778 37.1709C74.6955 37.1709 74.5428 37.1458 74.4198 37.0957C74.2967 37.0501 74.1964 36.9863 74.119 36.9043C74.0461 36.8177 73.9936 36.7197 73.9617 36.6104C73.9298 36.4964 73.9139 36.3757 73.9139 36.248C73.9139 36.0202 73.9526 35.7832 74.0301 35.5371C74.1076 35.291 74.1942 35.07 74.2899 34.874C74.4266 34.5915 74.561 34.3112 74.6932 34.0332C74.8299 33.7552 74.9621 33.4886 75.0897 33.2334H74.7957C74.5405 33.2334 74.3651 33.1924 74.2694 33.1104C74.1737 33.0283 74.1258 32.9349 74.1258 32.8301C74.1258 32.7845 74.1395 32.7298 74.1668 32.666C74.1987 32.5977 74.242 32.5361 74.2967 32.4814C74.356 32.4222 74.4266 32.3721 74.5086 32.3311C74.5907 32.29 74.6841 32.2695 74.7889 32.2695H75.5272L76.9696 29.4053C77.0607 29.2321 77.1724 29.109 77.3045 29.0361C77.4412 28.9587 77.5825 28.9199 77.7283 28.9199C77.8651 28.9199 77.9904 28.9564 78.1043 29.0293C78.2183 29.1022 78.2752 29.223 78.2752 29.3916C78.2752 29.4782 78.2547 29.5671 78.2137 29.6582C78.1772 29.7448 78.1271 29.8473 78.0633 29.9658C78.0223 30.0433 77.9722 30.1367 77.9129 30.2461C77.8537 30.3509 77.7899 30.4648 77.7215 30.5879C77.6577 30.7064 77.5894 30.8317 77.5164 30.9639C77.4481 31.096 77.3797 31.2236 77.3114 31.3467C77.1564 31.6383 76.9923 31.946 76.8192 32.2695H79.0477C79.1571 32.2695 79.2573 32.2764 79.3485 32.29C79.4396 32.2992 79.5171 32.3219 79.5809 32.3584C79.6492 32.3903 79.7017 32.4359 79.7381 32.4951C79.7746 32.5544 79.7928 32.6341 79.7928 32.7344C79.7928 32.7845 79.7837 32.8346 79.7655 32.8848C79.7518 32.9349 79.7222 32.9805 79.6766 33.0215C79.6356 33.0625 79.5763 33.0967 79.4989 33.124C79.4259 33.1514 79.3302 33.1696 79.2117 33.1787L76.368 33.1992ZM83.2135 32.9668C83.1907 32.9622 83.1702 32.96 83.152 32.96C83.1338 32.96 83.1132 32.96 83.0905 32.96C82.9173 32.96 82.7555 32.9941 82.6051 33.0625C82.4547 33.1309 82.3157 33.222 82.1881 33.3359C82.0651 33.4453 81.9534 33.5706 81.8532 33.7119C81.7575 33.8532 81.6709 33.9945 81.5934 34.1357C81.5159 34.2725 81.4498 34.4046 81.3951 34.5322C81.345 34.6598 81.3063 34.7669 81.2789 34.8535C81.4384 34.7715 81.6025 34.6781 81.7711 34.5732C81.9443 34.4684 82.1061 34.3682 82.2565 34.2725C82.4069 34.1768 82.5367 34.0902 82.6461 34.0127C82.7601 33.9352 82.8398 33.8828 82.8854 33.8555C83.0905 33.7279 83.2317 33.6094 83.3092 33.5C83.3867 33.3861 83.4254 33.2881 83.4254 33.2061C83.4254 33.1377 83.4026 33.083 83.3571 33.042C83.316 33.001 83.2682 32.9759 83.2135 32.9668ZM83.4596 32.0234C83.8379 32.0234 84.1204 32.1146 84.3073 32.2969C84.4941 32.4792 84.5875 32.7321 84.5875 33.0557C84.5875 33.2471 84.5374 33.4476 84.4371 33.6572C84.3369 33.8669 84.1637 34.0811 83.9176 34.2998C83.6715 34.514 83.3411 34.735 82.9264 34.9629C82.5162 35.1862 82.0013 35.4118 81.3815 35.6396C81.4043 35.7718 81.4749 35.8766 81.5934 35.9541C81.7119 36.027 81.8691 36.0635 82.0651 36.0635C82.2747 36.0635 82.498 36.0339 82.735 35.9746C82.9765 35.9108 83.2135 35.8311 83.4459 35.7354C83.6829 35.6396 83.9131 35.5371 84.1364 35.4277C84.3597 35.3138 84.5602 35.2067 84.7379 35.1064C84.9202 35.0062 85.0706 34.9196 85.1891 34.8467C85.3121 34.7738 85.3942 34.7282 85.4352 34.71C85.4762 34.6826 85.5127 34.6667 85.5446 34.6621C85.581 34.6576 85.6129 34.6553 85.6403 34.6553C85.695 34.6553 85.7405 34.6689 85.777 34.6963C85.8134 34.7191 85.8431 34.7487 85.8659 34.7852C85.8932 34.8171 85.9114 34.8535 85.9205 34.8945C85.9297 34.931 85.9342 34.9629 85.9342 34.9902C85.9342 35.0312 85.9297 35.0814 85.9205 35.1406C85.9114 35.1953 85.8772 35.2591 85.818 35.332C85.7952 35.3548 85.7177 35.4163 85.5856 35.5166C85.458 35.6169 85.2916 35.7354 85.0866 35.8721C84.8815 36.0088 84.6422 36.1546 84.3688 36.3096C84.0999 36.46 83.8128 36.599 83.5075 36.7266C83.2067 36.8542 82.8922 36.959 82.5641 37.041C82.236 37.1276 81.9124 37.1709 81.5934 37.1709C81.32 37.1709 81.0761 37.1185 80.8619 37.0137C80.6523 36.9089 80.4723 36.7676 80.3219 36.5898C80.1761 36.4121 80.0644 36.207 79.9869 35.9746C79.9095 35.7422 79.8707 35.4984 79.8707 35.2432C79.8707 35.0472 79.9095 34.833 79.9869 34.6006C80.0644 34.3636 80.1761 34.1266 80.3219 33.8896C80.4677 33.6527 80.6455 33.4225 80.8551 33.1992C81.0693 32.9714 81.3086 32.7708 81.5729 32.5977C81.8372 32.4245 82.1266 32.2855 82.441 32.1807C82.7601 32.0758 83.0996 32.0234 83.4596 32.0234Z" fill="white"/>
<path d="M94.3657 7.48389H98V53.4194H94.3657V30.5V7.48389Z" fill="#C4C4C4"/>
<path d="M109.73 27.9H111.914C112.625 27.9 113.158 28.0907 113.513 28.472C113.868 28.8533 114.046 29.4123 114.046 30.149V34.751C114.046 35.4877 113.868 36.0467 113.513 36.428C113.158 36.8093 112.625 37 111.914 37H109.73V27.9ZM111.888 35.7C112.122 35.7 112.3 35.6307 112.421 35.492C112.551 35.3533 112.616 35.128 112.616 34.816V30.084C112.616 29.772 112.551 29.5467 112.421 29.408C112.3 29.2693 112.122 29.2 111.888 29.2H111.16V35.7H111.888ZM117.286 27.9H121.186V29.2H118.716V31.605H120.679V32.905H118.716V35.7H121.186V37H117.286V27.9ZM123.907 27.9H125.35L126.286 34.959H126.312L127.248 27.9H128.561L127.183 37H125.285L123.907 27.9ZM131.523 27.9H135.423V29.2H132.953V31.605H134.916V32.905H132.953V35.7H135.423V37H131.523V27.9ZM138.521 27.9H139.951V35.7H142.304V37H138.521V27.9ZM147.28 37.13C146.578 37.13 146.041 36.9307 145.668 36.532C145.296 36.1333 145.109 35.57 145.109 34.842V30.058C145.109 29.33 145.296 28.7667 145.668 28.368C146.041 27.9693 146.578 27.77 147.28 27.77C147.982 27.77 148.52 27.9693 148.892 28.368C149.265 28.7667 149.451 29.33 149.451 30.058V34.842C149.451 35.57 149.265 36.1333 148.892 36.532C148.52 36.9307 147.982 37.13 147.28 37.13ZM147.28 35.83C147.774 35.83 148.021 35.531 148.021 34.933V29.967C148.021 29.369 147.774 29.07 147.28 29.07C146.786 29.07 146.539 29.369 146.539 29.967V34.933C146.539 35.531 146.786 35.83 147.28 35.83ZM152.694 27.9H154.8C155.51 27.9 156.043 28.0907 156.399 28.472C156.754 28.8533 156.932 29.4123 156.932 30.149V31.046C156.932 31.7827 156.754 32.3417 156.399 32.723C156.043 33.1043 155.51 33.295 154.8 33.295H154.124V37H152.694V27.9ZM154.8 31.995C155.034 31.995 155.207 31.93 155.32 31.8C155.441 31.67 155.502 31.449 155.502 31.137V30.058C155.502 29.746 155.441 29.525 155.32 29.395C155.207 29.265 155.034 29.2 154.8 29.2H154.124V31.995H154.8ZM159.983 27.9H163.883V29.2H161.413V31.605H163.376V32.905H161.413V35.7H163.883V37H159.983V27.9ZM166.981 27.9H169.1C169.837 27.9 170.374 28.0733 170.712 28.42C171.05 28.758 171.219 29.2823 171.219 29.993V30.552C171.219 31.4967 170.907 32.0947 170.283 32.346V32.372C170.63 32.476 170.872 32.6883 171.011 33.009C171.158 33.3297 171.232 33.7587 171.232 34.296V35.895C171.232 36.155 171.241 36.3673 171.258 36.532C171.275 36.688 171.319 36.844 171.388 37H169.932C169.88 36.8527 169.845 36.714 169.828 36.584C169.811 36.454 169.802 36.22 169.802 35.882V34.218C169.802 33.802 169.733 33.5117 169.594 33.347C169.464 33.1823 169.234 33.1 168.905 33.1H168.411V37H166.981V27.9ZM168.931 31.8C169.217 31.8 169.429 31.7263 169.568 31.579C169.715 31.4317 169.789 31.1847 169.789 30.838V30.136C169.789 29.8067 169.728 29.5683 169.607 29.421C169.494 29.2737 169.312 29.2 169.061 29.2H168.411V31.8H168.931ZM176.358 37.13C175.665 37.13 175.14 36.935 174.785 36.545C174.43 36.1463 174.252 35.5787 174.252 34.842V34.322H175.604V34.946C175.604 35.5353 175.851 35.83 176.345 35.83C176.588 35.83 176.77 35.7607 176.891 35.622C177.021 35.4747 177.086 35.2407 177.086 34.92C177.086 34.5387 176.999 34.205 176.826 33.919C176.653 33.6243 176.332 33.2733 175.864 32.866C175.275 32.346 174.863 31.878 174.629 31.462C174.395 31.0373 174.278 30.5607 174.278 30.032C174.278 29.3127 174.46 28.758 174.824 28.368C175.188 27.9693 175.717 27.77 176.41 27.77C177.095 27.77 177.61 27.9693 177.957 28.368C178.312 28.758 178.49 29.3213 178.49 30.058V30.435H177.138V29.967C177.138 29.655 177.077 29.4297 176.956 29.291C176.835 29.1437 176.657 29.07 176.423 29.07C175.946 29.07 175.708 29.3603 175.708 29.941C175.708 30.2703 175.795 30.578 175.968 30.864C176.15 31.15 176.475 31.4967 176.943 31.904C177.541 32.424 177.953 32.8963 178.178 33.321C178.403 33.7457 178.516 34.244 178.516 34.816C178.516 35.5613 178.33 36.1333 177.957 36.532C177.593 36.9307 177.06 37.13 176.358 37.13Z" fill="white"/>
<path d="M11.3604 31.566C11.3604 31.4707 11.3214 31.4013 11.2434 31.358C11.174 31.306 11.0484 31.28 10.8664 31.28H6.65437V32.892H9.20237C9.3757 32.892 9.51003 32.8747 9.60537 32.84C9.7007 32.8053 9.74837 32.7273 9.74837 32.606H9.98237V34.478H9.74837C9.74837 34.2787 9.7007 34.153 9.60537 34.101C9.51003 34.0403 9.3757 34.01 9.20237 34.01H6.65437V36.532C6.65437 36.61 6.68903 36.6707 6.75837 36.714C6.83637 36.7487 6.9317 36.766 7.04437 36.766V37H4.83437V36.766C5.0597 36.766 5.17237 36.688 5.17237 36.532V30.63C5.17237 30.474 5.0597 30.396 4.83437 30.396V30.162H10.8664C11.0484 30.162 11.174 30.136 11.2434 30.084C11.3214 30.0233 11.3604 29.9453 11.3604 29.85H11.5944V31.566H11.3604ZM15.3686 36.766C15.5073 36.766 15.6026 36.753 15.6546 36.727C15.7066 36.6923 15.7326 36.6403 15.7326 36.571V31.709C15.7326 31.6397 15.7066 31.592 15.6546 31.566C15.6026 31.5313 15.5073 31.514 15.3686 31.514V31.28H17.3446V31.514C17.102 31.514 16.9806 31.579 16.9806 31.709V36.571C16.9806 36.701 17.102 36.766 17.3446 36.766V37H15.3686V36.766ZM25.3787 33.75C26.2281 33.75 26.6527 33.4813 26.6527 32.944C26.6527 32.7273 26.5487 32.5583 26.3407 32.437C26.1414 32.307 25.8207 32.242 25.3787 32.242H23.3247V33.75H25.3787ZM25.4047 31.28C26.1761 31.28 26.7784 31.41 27.2117 31.67C27.6451 31.9213 27.8617 32.3547 27.8617 32.97C27.8617 33.204 27.8184 33.412 27.7317 33.594C27.6451 33.776 27.5281 33.9363 27.3807 34.075C27.2421 34.205 27.0861 34.3133 26.9127 34.4C26.7394 34.478 26.5617 34.5387 26.3797 34.582L27.6537 36.441C27.7231 36.5363 27.7967 36.61 27.8747 36.662C27.9614 36.7053 28.0524 36.74 28.1477 36.766V37H26.1587V36.766C26.2714 36.766 26.3277 36.727 26.3277 36.649C26.3277 36.5623 26.2627 36.428 26.1327 36.246L25.1057 34.712H23.2987V36.571C23.2987 36.6403 23.3247 36.6923 23.3767 36.727C23.4374 36.753 23.4937 36.766 23.5457 36.766V37H21.8167V36.766C21.9727 36.766 22.0507 36.701 22.0507 36.571V31.709C22.0507 31.579 21.9727 31.514 21.8167 31.514V31.28H25.4047ZM32.468 35.011C32.468 35.0457 32.4637 35.0847 32.455 35.128C32.455 35.1627 32.455 35.2017 32.455 35.245C32.455 35.375 32.5373 35.4963 32.702 35.609C32.8667 35.713 33.0617 35.804 33.287 35.882C33.521 35.9513 33.7507 36.0077 33.976 36.051C34.21 36.0943 34.392 36.116 34.522 36.116C34.6433 36.116 34.7907 36.1073 34.964 36.09C35.146 36.0727 35.3237 36.038 35.497 35.986C35.6703 35.9253 35.8177 35.8473 35.939 35.752C36.0603 35.648 36.121 35.5137 36.121 35.349C36.121 35.1583 36.0127 35.0197 35.796 34.933C35.588 34.8463 35.3237 34.7813 35.003 34.738C34.6823 34.686 34.3357 34.6383 33.963 34.595C33.5903 34.543 33.2437 34.465 32.923 34.361C32.6023 34.2483 32.3337 34.0923 32.117 33.893C31.909 33.685 31.805 33.3947 31.805 33.022C31.805 32.4673 32.0347 32.0253 32.494 31.696C32.9533 31.3667 33.599 31.202 34.431 31.202C34.8383 31.202 35.185 31.2367 35.471 31.306C35.7657 31.3667 36.0127 31.436 36.212 31.514C36.4113 31.592 36.5717 31.6657 36.693 31.735C36.823 31.7957 36.9183 31.826 36.979 31.826C37.0483 31.826 37.1003 31.8173 37.135 31.8C37.1697 31.774 37.213 31.748 37.265 31.722L37.408 31.865L36.758 33.087L36.524 33.009C36.5153 32.957 36.5067 32.905 36.498 32.853C36.4893 32.801 36.4503 32.749 36.381 32.697C36.2077 32.5497 35.939 32.424 35.575 32.32C35.211 32.216 34.8037 32.164 34.353 32.164C34.1797 32.164 34.015 32.177 33.859 32.203C33.703 32.2203 33.5643 32.255 33.443 32.307C33.3217 32.359 33.2263 32.4283 33.157 32.515C33.0877 32.593 33.053 32.6927 33.053 32.814C33.053 33.0047 33.157 33.1433 33.365 33.23C33.5817 33.308 33.8503 33.373 34.171 33.425C34.4917 33.4683 34.8383 33.516 35.211 33.568C35.5837 33.6113 35.9303 33.6893 36.251 33.802C36.5717 33.9147 36.836 34.0793 37.044 34.296C37.2607 34.5127 37.369 34.8117 37.369 35.193C37.369 35.5743 37.2737 35.8863 37.083 36.129C36.901 36.3717 36.6713 36.5623 36.394 36.701C36.1167 36.8397 35.809 36.9307 35.471 36.974C35.1417 37.0173 34.8297 37.039 34.535 37.039C34.2403 37.039 33.9457 37.013 33.651 36.961C33.365 36.9003 33.1007 36.8353 32.858 36.766C32.624 36.688 32.4247 36.6187 32.26 36.558C32.0953 36.4887 31.9957 36.454 31.961 36.454C31.9003 36.454 31.8483 36.48 31.805 36.532L31.623 36.402L32.221 34.946L32.468 35.011ZM42.9546 36.766C42.998 36.766 43.0413 36.753 43.0846 36.727C43.128 36.6923 43.1496 36.6403 43.1496 36.571V32.242H41.4596C41.3903 32.242 41.3253 32.2593 41.2646 32.294C41.204 32.3287 41.1736 32.385 41.1736 32.463H40.9396V30.968H41.1736C41.1736 31.0893 41.204 31.1717 41.2646 31.215C41.3253 31.2583 41.3903 31.28 41.4596 31.28H46.0876C46.157 31.28 46.222 31.2583 46.2826 31.215C46.3433 31.1717 46.3736 31.0893 46.3736 30.968H46.6076V32.463H46.3736C46.3736 32.385 46.3433 32.3287 46.2826 32.294C46.222 32.2593 46.157 32.242 46.0876 32.242H44.3976V36.571C44.3976 36.701 44.4756 36.766 44.6316 36.766V37H42.9546V36.766Z" fill="white"/>
</svg>
