<svg width="198" height="66" viewBox="0 0 198 66" fill="none" xmlns="http://www.w3.org/2000/svg">
<path d="M59.4797 34.5498C59.5071 34.5544 59.5344 34.5566 59.5617 34.5566C59.5936 34.5566 59.6255 34.5566 59.6574 34.5566C60.0539 34.5566 60.4276 34.4723 60.7785 34.3037C61.134 34.1305 61.4439 33.9118 61.7082 33.6475C61.9726 33.3831 62.1799 33.0892 62.3303 32.7656C62.4852 32.4421 62.5627 32.1276 62.5627 31.8223C62.5627 31.6035 62.5217 31.3962 62.4397 31.2002C62.3622 31.0042 62.2369 30.8333 62.0637 30.6875C61.8951 30.5417 61.6763 30.4255 61.4074 30.3389C61.1431 30.2523 60.8264 30.209 60.4573 30.209C60.0425 30.209 59.6848 30.2477 59.384 30.3252C59.0878 30.4027 58.8303 30.5029 58.6116 30.626C58.3974 30.749 58.2151 30.8903 58.0647 31.0498C57.9188 31.2093 57.7912 31.3734 57.6819 31.542C57.577 31.7106 57.4813 31.8747 57.3948 32.0342C57.3082 32.1937 57.217 32.335 57.1213 32.458C57.0302 32.5811 56.9276 32.6813 56.8137 32.7588C56.6998 32.8363 56.5585 32.875 56.3899 32.875C56.162 32.875 55.9911 32.818 55.8772 32.7041C55.7632 32.5856 55.7063 32.4215 55.7063 32.2119C55.7063 32.016 55.7587 31.804 55.8635 31.5762C55.9729 31.3483 56.1255 31.1204 56.3215 30.8926C56.522 30.6647 56.7658 30.446 57.053 30.2363C57.3401 30.0221 57.6614 29.8353 58.0168 29.6758C58.3769 29.5117 58.7688 29.3818 59.1926 29.2861C59.6164 29.1859 60.0653 29.1357 60.5393 29.1357C61.0041 29.1357 61.4485 29.195 61.8723 29.3135C62.3007 29.432 62.6789 29.6097 63.0071 29.8467C63.3352 30.0791 63.5949 30.373 63.7864 30.7285C63.9823 31.084 64.0803 31.4987 64.0803 31.9727C64.0803 32.2917 64.0211 32.597 63.9026 32.8887C63.7886 33.1758 63.6337 33.4469 63.4377 33.7021C63.2418 33.9528 63.0116 34.1852 62.7473 34.3994C62.4875 34.609 62.2095 34.7959 61.9133 34.96C61.6171 35.124 61.3117 35.263 60.9973 35.377C60.6874 35.4909 60.3866 35.5729 60.0949 35.623C60.136 35.8372 60.202 36.0788 60.2932 36.3477C60.3889 36.612 60.5028 36.8649 60.635 37.1064C60.7717 37.3434 60.9221 37.5462 61.0862 37.7148C61.2502 37.8835 61.4234 37.9746 61.6057 37.9883C61.6422 37.9928 61.6763 37.9951 61.7082 37.9951C61.7401 37.9951 61.772 37.9951 61.8039 37.9951C62.1366 37.9951 62.4328 37.9404 62.6926 37.8311C62.9524 37.7217 63.1688 37.6009 63.342 37.4688C63.5471 37.3184 63.7248 37.1429 63.8752 36.9424C64.0165 36.7829 64.1601 36.7031 64.3059 36.7031C64.397 36.7031 64.4745 36.735 64.5383 36.7988C64.6021 36.8626 64.634 36.9492 64.634 37.0586C64.634 37.1634 64.5998 37.2865 64.5315 37.4277C64.4677 37.5645 64.356 37.708 64.1965 37.8584C63.7271 38.3005 63.2668 38.624 62.8157 38.8291C62.369 39.0296 61.9452 39.1299 61.5442 39.1299C61.216 39.1299 60.913 39.0365 60.635 38.8496C60.357 38.6628 60.1041 38.4098 59.8762 38.0908C59.6483 37.7718 59.441 37.4004 59.2541 36.9766C59.0673 36.5482 58.9009 36.097 58.7551 35.623C58.6731 35.8099 58.5888 36.0309 58.5022 36.2861C58.4156 36.5368 58.3222 36.7965 58.2219 37.0654C58.1216 37.3343 58.0168 37.6009 57.9074 37.8652C57.7981 38.125 57.6773 38.3597 57.5451 38.5693C57.413 38.7744 57.2717 38.9408 57.1213 39.0684C56.9709 39.196 56.8069 39.2598 56.6291 39.2598C56.4833 39.2598 56.3648 39.237 56.2737 39.1914C56.1825 39.1458 56.1119 39.0889 56.0617 39.0205C56.0116 38.9521 55.9752 38.877 55.9524 38.7949C55.9341 38.7129 55.925 38.6354 55.925 38.5625C55.925 38.4577 55.9387 38.3506 55.966 38.2412C55.9934 38.1318 56.0321 38.0293 56.0823 37.9336L58.0989 34.2422C58.272 33.9323 58.4452 33.6338 58.6184 33.3467C58.7961 33.055 58.967 32.7975 59.1311 32.5742C59.2997 32.3509 59.4569 32.1732 59.6028 32.041C59.7532 31.9043 59.8876 31.8359 60.0061 31.8359C60.038 31.8359 60.0767 31.8428 60.1223 31.8564C60.1679 31.8656 60.2089 31.8861 60.2453 31.918C60.2818 31.9453 60.3137 31.9886 60.341 32.0479C60.3684 32.1025 60.3821 32.1732 60.3821 32.2598C60.3821 32.3464 60.357 32.4671 60.3069 32.6221C60.2567 32.777 60.1907 32.9548 60.1086 33.1553C60.0266 33.3558 59.9309 33.5768 59.8215 33.8184C59.7121 34.0553 59.5982 34.2992 59.4797 34.5498ZM68.8545 35.2676C68.6403 35.2676 68.433 35.3223 68.2324 35.4316C68.0319 35.541 67.8542 35.6846 67.6992 35.8623C67.5443 36.04 67.4213 36.2406 67.3301 36.4639C67.239 36.6826 67.1934 36.9036 67.1934 37.127C67.1934 37.2181 67.1979 37.3138 67.2071 37.4141C67.2207 37.5098 67.2481 37.5986 67.2891 37.6807C67.3301 37.7627 67.3871 37.8311 67.46 37.8857C67.5375 37.9404 67.64 37.9678 67.7676 37.9678C67.8679 37.9678 67.9841 37.9245 68.1162 37.8379C68.253 37.7467 68.392 37.6328 68.5332 37.4961C68.6791 37.3548 68.8203 37.2021 68.9571 37.0381C69.0938 36.8695 69.2168 36.7054 69.3262 36.5459C69.4356 36.3864 69.5244 36.2428 69.5928 36.1152C69.6612 35.9876 69.6953 35.8942 69.6953 35.835C69.6953 35.7484 69.6657 35.6709 69.6065 35.6025C69.5472 35.5296 69.4743 35.4681 69.3877 35.418C69.3011 35.3678 69.2077 35.3314 69.1074 35.3086C69.0117 35.2812 68.9274 35.2676 68.8545 35.2676ZM73.5918 37.0312C73.5098 37.1087 73.4004 37.2158 73.2637 37.3525C73.127 37.4893 72.9698 37.6374 72.792 37.7969C72.6188 37.9564 72.432 38.1182 72.2315 38.2822C72.0355 38.4417 71.8327 38.5876 71.6231 38.7197C71.418 38.8519 71.2152 38.959 71.0147 39.041C70.8142 39.1276 70.625 39.1709 70.4473 39.1709C70.2878 39.1709 70.1511 39.1367 70.0371 39.0684C69.9232 39 69.8275 38.9111 69.75 38.8018C69.6771 38.6924 69.6224 38.5693 69.586 38.4326C69.5495 38.2913 69.5313 38.1478 69.5313 38.002C69.5313 37.9062 69.5381 37.8128 69.5518 37.7217C69.5655 37.626 69.5882 37.5371 69.6201 37.4551C69.4789 37.6465 69.3171 37.8447 69.1348 38.0498C68.9571 38.2503 68.7634 38.4349 68.5537 38.6035C68.3487 38.7676 68.1322 38.902 67.9043 39.0068C67.681 39.1162 67.4532 39.1709 67.2207 39.1709C67.1022 39.1709 66.9632 39.1458 66.8037 39.0957C66.6488 39.0501 66.5007 38.9727 66.3594 38.8633C66.2181 38.7539 66.0996 38.6126 66.0039 38.4395C65.9082 38.2663 65.8604 38.0544 65.8604 37.8037C65.8604 37.6169 65.8877 37.3936 65.9424 37.1338C66.0017 36.874 66.0882 36.6051 66.2022 36.3271C66.3207 36.0446 66.4688 35.7666 66.6465 35.4932C66.8288 35.2197 67.043 34.9759 67.2891 34.7617C67.5352 34.543 67.8155 34.3675 68.1299 34.2354C68.4444 34.0986 68.7953 34.0303 69.1826 34.0303C69.3832 34.0303 69.5586 34.0553 69.709 34.1055C69.8594 34.1556 69.987 34.2103 70.0918 34.2695C70.2103 34.3424 70.3151 34.4222 70.4063 34.5088C70.4838 34.4678 70.5635 34.429 70.6455 34.3926C70.7139 34.3607 70.7845 34.3333 70.8574 34.3105C70.9349 34.2832 71.001 34.2695 71.0557 34.2695C71.2289 34.2695 71.3701 34.3174 71.4795 34.4131C71.5889 34.5088 71.6436 34.6136 71.6436 34.7275C71.6436 34.7594 71.6413 34.7845 71.6367 34.8027C71.614 34.8893 71.5775 34.9987 71.5274 35.1309C71.4818 35.263 71.4294 35.4111 71.3701 35.5752C71.3109 35.7347 71.2494 35.9033 71.1856 36.0811C71.1263 36.2542 71.0716 36.4251 71.0215 36.5938C70.9714 36.7624 70.9304 36.9219 70.8985 37.0723C70.8666 37.2181 70.8506 37.3434 70.8506 37.4482C70.8506 37.585 70.8734 37.6989 70.919 37.79C70.9645 37.8766 71.042 37.9199 71.1514 37.9199C71.2198 37.9199 71.2995 37.8994 71.3907 37.8584C71.4864 37.8128 71.5889 37.7536 71.6983 37.6807C71.8076 37.6077 71.9193 37.5257 72.0332 37.4346C72.1517 37.3389 72.2657 37.2432 72.375 37.1475C72.6302 36.9196 72.9014 36.6598 73.1885 36.3682C73.2614 36.3089 73.3321 36.2793 73.4004 36.2793C73.4916 36.2793 73.5668 36.3249 73.626 36.416C73.6898 36.5026 73.7217 36.6006 73.7217 36.71C73.7217 36.8376 73.6784 36.9447 73.5918 37.0312ZM77.368 35.1992C77.1994 35.5273 77.0399 35.8486 76.8895 36.1631C76.7391 36.473 76.5978 36.7601 76.4657 37.0244C76.411 37.1338 76.3563 37.2614 76.3016 37.4072C76.2515 37.5485 76.2264 37.6738 76.2264 37.7832C76.2264 37.847 76.2401 37.8971 76.2674 37.9336C76.2993 37.9701 76.3494 37.9883 76.4178 37.9883C76.5135 37.9883 76.6343 37.9609 76.7801 37.9062C76.9259 37.847 77.0832 37.7718 77.2518 37.6807C77.4204 37.585 77.5981 37.4779 77.785 37.3594C77.9718 37.2363 78.1541 37.111 78.3319 36.9834C78.5142 36.8512 78.6873 36.7214 78.8514 36.5938C79.0155 36.4616 79.1613 36.3408 79.2889 36.2314C79.3618 36.1813 79.4302 36.1562 79.494 36.1562C79.5714 36.1562 79.6352 36.1904 79.6854 36.2588C79.7355 36.3271 79.7606 36.4137 79.7606 36.5186C79.7606 36.6234 79.7355 36.7305 79.6854 36.8398C79.6352 36.9492 79.5441 37.0563 79.4119 37.1611C79.1157 37.43 78.8149 37.6852 78.5096 37.9268C78.2088 38.1683 77.908 38.3825 77.6073 38.5693C77.311 38.7516 77.0171 38.8975 76.7254 39.0068C76.4338 39.1162 76.1512 39.1709 75.8778 39.1709C75.6955 39.1709 75.5428 39.1458 75.4198 39.0957C75.2967 39.0501 75.1964 38.9863 75.119 38.9043C75.0461 38.8177 74.9936 38.7197 74.9617 38.6104C74.9298 38.4964 74.9139 38.3757 74.9139 38.248C74.9139 38.0202 74.9526 37.7832 75.0301 37.5371C75.1076 37.291 75.1942 37.07 75.2899 36.874C75.4266 36.5915 75.561 36.3112 75.6932 36.0332C75.8299 35.7552 75.9621 35.4886 76.0897 35.2334H75.7957C75.5405 35.2334 75.3651 35.1924 75.2694 35.1104C75.1737 35.0283 75.1258 34.9349 75.1258 34.8301C75.1258 34.7845 75.1395 34.7298 75.1668 34.666C75.1987 34.5977 75.242 34.5361 75.2967 34.4814C75.356 34.4222 75.4266 34.3721 75.5086 34.3311C75.5907 34.29 75.6841 34.2695 75.7889 34.2695H76.5272L77.9696 31.4053C78.0607 31.2321 78.1724 31.109 78.3045 31.0361C78.4412 30.9587 78.5825 30.9199 78.7283 30.9199C78.8651 30.9199 78.9904 30.9564 79.1043 31.0293C79.2183 31.1022 79.2752 31.223 79.2752 31.3916C79.2752 31.4782 79.2547 31.5671 79.2137 31.6582C79.1772 31.7448 79.1271 31.8473 79.0633 31.9658C79.0223 32.0433 78.9722 32.1367 78.9129 32.2461C78.8537 32.3509 78.7899 32.4648 78.7215 32.5879C78.6577 32.7064 78.5894 32.8317 78.5164 32.9639C78.4481 33.096 78.3797 33.2236 78.3114 33.3467C78.1564 33.6383 77.9923 33.946 77.8192 34.2695H80.0477C80.1571 34.2695 80.2573 34.2764 80.3485 34.29C80.4396 34.2992 80.5171 34.3219 80.5809 34.3584C80.6492 34.3903 80.7017 34.4359 80.7381 34.4951C80.7746 34.5544 80.7928 34.6341 80.7928 34.7344C80.7928 34.7845 80.7837 34.8346 80.7655 34.8848C80.7518 34.9349 80.7222 34.9805 80.6766 35.0215C80.6356 35.0625 80.5763 35.0967 80.4989 35.124C80.4259 35.1514 80.3302 35.1696 80.2117 35.1787L77.368 35.1992ZM84.2135 34.9668C84.1907 34.9622 84.1702 34.96 84.152 34.96C84.1338 34.96 84.1132 34.96 84.0905 34.96C83.9173 34.96 83.7555 34.9941 83.6051 35.0625C83.4547 35.1309 83.3157 35.222 83.1881 35.3359C83.0651 35.4453 82.9534 35.5706 82.8532 35.7119C82.7575 35.8532 82.6709 35.9945 82.5934 36.1357C82.5159 36.2725 82.4498 36.4046 82.3951 36.5322C82.345 36.6598 82.3063 36.7669 82.2789 36.8535C82.4384 36.7715 82.6025 36.6781 82.7711 36.5732C82.9443 36.4684 83.1061 36.3682 83.2565 36.2725C83.4069 36.1768 83.5367 36.0902 83.6461 36.0127C83.7601 35.9352 83.8398 35.8828 83.8854 35.8555C84.0905 35.7279 84.2317 35.6094 84.3092 35.5C84.3867 35.3861 84.4254 35.2881 84.4254 35.2061C84.4254 35.1377 84.4026 35.083 84.3571 35.042C84.316 35.001 84.2682 34.9759 84.2135 34.9668ZM84.4596 34.0234C84.8379 34.0234 85.1204 34.1146 85.3073 34.2969C85.4941 34.4792 85.5875 34.7321 85.5875 35.0557C85.5875 35.2471 85.5374 35.4476 85.4371 35.6572C85.3369 35.8669 85.1637 36.0811 84.9176 36.2998C84.6715 36.514 84.3411 36.735 83.9264 36.9629C83.5162 37.1862 83.0013 37.4118 82.3815 37.6396C82.4043 37.7718 82.4749 37.8766 82.5934 37.9541C82.7119 38.027 82.8691 38.0635 83.0651 38.0635C83.2747 38.0635 83.498 38.0339 83.735 37.9746C83.9765 37.9108 84.2135 37.8311 84.4459 37.7354C84.6829 37.6396 84.913 37.5371 85.1364 37.4277C85.3597 37.3138 85.5602 37.2067 85.7379 37.1064C85.9202 37.0062 86.0706 36.9196 86.1891 36.8467C86.3121 36.7738 86.3942 36.7282 86.4352 36.71C86.4762 36.6826 86.5127 36.6667 86.5446 36.6621C86.581 36.6576 86.6129 36.6553 86.6403 36.6553C86.695 36.6553 86.7405 36.6689 86.777 36.6963C86.8134 36.7191 86.8431 36.7487 86.8658 36.7852C86.8932 36.8171 86.9114 36.8535 86.9205 36.8945C86.9297 36.931 86.9342 36.9629 86.9342 36.9902C86.9342 37.0312 86.9297 37.0814 86.9205 37.1406C86.9114 37.1953 86.8772 37.2591 86.818 37.332C86.7952 37.3548 86.7177 37.4163 86.5856 37.5166C86.458 37.6169 86.2916 37.7354 86.0866 37.8721C85.8815 38.0088 85.6422 38.1546 85.3688 38.3096C85.0999 38.46 84.8128 38.599 84.5075 38.7266C84.2067 38.8542 83.8922 38.959 83.5641 39.041C83.236 39.1276 82.9124 39.1709 82.5934 39.1709C82.32 39.1709 82.0761 39.1185 81.8619 39.0137C81.6523 38.9089 81.4723 38.7676 81.3219 38.5898C81.1761 38.4121 81.0644 38.207 80.9869 37.9746C80.9095 37.7422 80.8707 37.4984 80.8707 37.2432C80.8707 37.0472 80.9095 36.833 80.9869 36.6006C81.0644 36.3636 81.1761 36.1266 81.3219 35.8896C81.4677 35.6527 81.6455 35.4225 81.8551 35.1992C82.0693 34.9714 82.3086 34.7708 82.5729 34.5977C82.8372 34.4245 83.1266 34.2855 83.441 34.1807C83.7601 34.0758 84.0996 34.0234 84.4596 34.0234Z" fill="white"/>
<path d="M94.3658 8.82031H98.0001V62.9586H94.3658V35.9464V8.82031Z" fill="#C4C4C4"/>
<path d="M109.73 32.3644H111.914C112.625 32.3644 113.158 32.555 113.513 32.9364C113.868 33.3177 114.046 33.8767 114.046 34.6134V39.2154C114.046 39.952 113.868 40.511 113.513 40.8924C113.158 41.2737 112.625 41.4644 111.914 41.4644H109.73V32.3644ZM111.888 40.1644C112.122 40.1644 112.3 40.095 112.421 39.9564C112.551 39.8177 112.616 39.5924 112.616 39.2804V34.5484C112.616 34.2364 112.551 34.011 112.421 33.8724C112.3 33.7337 112.122 33.6644 111.888 33.6644H111.16V40.1644H111.888ZM117.286 32.3644H121.186V33.6644H118.716V36.0694H120.679V37.3694H118.716V40.1644H121.186V41.4644H117.286V32.3644ZM123.907 32.3644H125.35L126.286 39.4234H126.312L127.248 32.3644H128.561L127.183 41.4644H125.285L123.907 32.3644ZM131.523 32.3644H135.423V33.6644H132.953V36.0694H134.916V37.3694H132.953V40.1644H135.423V41.4644H131.523V32.3644ZM138.521 32.3644H139.951V40.1644H142.304V41.4644H138.521V32.3644ZM147.28 41.5944C146.578 41.5944 146.041 41.395 145.668 40.9964C145.296 40.5977 145.109 40.0344 145.109 39.3064V34.5224C145.109 33.7944 145.296 33.231 145.668 32.8324C146.041 32.4337 146.578 32.2344 147.28 32.2344C147.982 32.2344 148.52 32.4337 148.892 32.8324C149.265 33.231 149.451 33.7944 149.451 34.5224V39.3064C149.451 40.0344 149.265 40.5977 148.892 40.9964C148.52 41.395 147.982 41.5944 147.28 41.5944ZM147.28 40.2944C147.774 40.2944 148.021 39.9954 148.021 39.3974V34.4314C148.021 33.8334 147.774 33.5344 147.28 33.5344C146.786 33.5344 146.539 33.8334 146.539 34.4314V39.3974C146.539 39.9954 146.786 40.2944 147.28 40.2944ZM152.694 32.3644H154.8C155.51 32.3644 156.043 32.555 156.399 32.9364C156.754 33.3177 156.932 33.8767 156.932 34.6134V35.5104C156.932 36.247 156.754 36.806 156.399 37.1874C156.043 37.5687 155.51 37.7594 154.8 37.7594H154.124V41.4644H152.694V32.3644ZM154.8 36.4594C155.034 36.4594 155.207 36.3944 155.32 36.2644C155.441 36.1344 155.502 35.9134 155.502 35.6014V34.5224C155.502 34.2104 155.441 33.9894 155.32 33.8594C155.207 33.7294 155.034 33.6644 154.8 33.6644H154.124V36.4594H154.8ZM159.983 32.3644H163.883V33.6644H161.413V36.0694H163.376V37.3694H161.413V40.1644H163.883V41.4644H159.983V32.3644ZM166.981 32.3644H169.1C169.837 32.3644 170.374 32.5377 170.712 32.8844C171.05 33.2224 171.219 33.7467 171.219 34.4574V35.0164C171.219 35.961 170.907 36.559 170.283 36.8104V36.8364C170.63 36.9404 170.872 37.1527 171.011 37.4734C171.158 37.794 171.232 38.223 171.232 38.7604V40.3594C171.232 40.6194 171.241 40.8317 171.258 40.9964C171.275 41.1524 171.319 41.3084 171.388 41.4644H169.932C169.88 41.317 169.845 41.1784 169.828 41.0484C169.811 40.9184 169.802 40.6844 169.802 40.3464V38.6824C169.802 38.2664 169.733 37.976 169.594 37.8114C169.464 37.6467 169.234 37.5644 168.905 37.5644H168.411V41.4644H166.981V32.3644ZM168.931 36.2644C169.217 36.2644 169.429 36.1907 169.568 36.0434C169.715 35.896 169.789 35.649 169.789 35.3024V34.6004C169.789 34.271 169.728 34.0327 169.607 33.8854C169.494 33.738 169.312 33.6644 169.061 33.6644H168.411V36.2644H168.931ZM176.358 41.5944C175.665 41.5944 175.14 41.3994 174.785 41.0094C174.43 40.6107 174.252 40.043 174.252 39.3064V38.7864H175.604V39.4104C175.604 39.9997 175.851 40.2944 176.345 40.2944C176.588 40.2944 176.77 40.225 176.891 40.0864C177.021 39.939 177.086 39.705 177.086 39.3844C177.086 39.003 176.999 38.6694 176.826 38.3834C176.653 38.0887 176.332 37.7377 175.864 37.3304C175.275 36.8104 174.863 36.3424 174.629 35.9264C174.395 35.5017 174.278 35.025 174.278 34.4964C174.278 33.777 174.46 33.2224 174.824 32.8324C175.188 32.4337 175.717 32.2344 176.41 32.2344C177.095 32.2344 177.61 32.4337 177.957 32.8324C178.312 33.2224 178.49 33.7857 178.49 34.5224V34.8994H177.138V34.4314C177.138 34.1194 177.077 33.894 176.956 33.7554C176.835 33.608 176.657 33.5344 176.423 33.5344C175.946 33.5344 175.708 33.8247 175.708 34.4054C175.708 34.7347 175.795 35.0424 175.968 35.3284C176.15 35.6144 176.475 35.961 176.943 36.3684C177.541 36.8884 177.953 37.3607 178.178 37.7854C178.403 38.21 178.516 38.7084 178.516 39.2804C178.516 40.0257 178.33 40.5977 177.957 40.9964C177.593 41.395 177.06 41.5944 176.358 41.5944Z" fill="white"/>
<path d="M9.7727 33.148C9.7727 33.0453 9.7307 32.9707 9.6467 32.924C9.57204 32.868 9.4367 32.84 9.2407 32.84H4.7047V34.576H7.4487C7.63537 34.576 7.78004 34.5573 7.8827 34.52C7.98537 34.4827 8.0367 34.3987 8.0367 34.268H8.2887V36.284H8.0367C8.0367 36.0693 7.98537 35.934 7.8827 35.878C7.78004 35.8127 7.63537 35.78 7.4487 35.78H4.7047V38.496C4.7047 38.58 4.74204 38.6453 4.8167 38.692C4.9007 38.7293 5.00337 38.748 5.1247 38.748V39H2.7447V38.748C2.98737 38.748 3.1087 38.664 3.1087 38.496V32.14C3.1087 31.972 2.98737 31.888 2.7447 31.888V31.636H9.2407C9.4367 31.636 9.57204 31.608 9.6467 31.552C9.7307 31.4867 9.7727 31.4027 9.7727 31.3H10.0247V33.148H9.7727ZM14.0893 38.748C14.2386 38.748 14.3413 38.734 14.3973 38.706C14.4533 38.6687 14.4813 38.6127 14.4813 38.538V33.302C14.4813 33.2273 14.4533 33.176 14.3973 33.148C14.3413 33.1107 14.2386 33.092 14.0893 33.092V32.84H16.2173V33.092C15.956 33.092 15.8253 33.162 15.8253 33.302V38.538C15.8253 38.678 15.956 38.748 16.2173 38.748V39H14.0893V38.748ZM24.8694 35.5C25.7841 35.5 26.2414 35.2107 26.2414 34.632C26.2414 34.3987 26.1294 34.2167 25.9054 34.086C25.6907 33.946 25.3454 33.876 24.8694 33.876H22.6574V35.5H24.8694ZM24.8974 32.84C25.7281 32.84 26.3767 32.98 26.8434 33.26C27.3101 33.5307 27.5434 33.9973 27.5434 34.66C27.5434 34.912 27.4967 35.136 27.4034 35.332C27.3101 35.528 27.1841 35.7007 27.0254 35.85C26.8761 35.99 26.7081 36.1067 26.5214 36.2C26.3347 36.284 26.1434 36.3493 25.9474 36.396L27.3194 38.398C27.3941 38.5007 27.4734 38.58 27.5574 38.636C27.6507 38.6827 27.7487 38.72 27.8514 38.748V39H25.7094V38.748C25.8307 38.748 25.8914 38.706 25.8914 38.622C25.8914 38.5287 25.8214 38.384 25.6814 38.188L24.5754 36.536H22.6294V38.538C22.6294 38.6127 22.6574 38.6687 22.7134 38.706C22.7787 38.734 22.8394 38.748 22.8954 38.748V39H21.0334V38.748C21.2014 38.748 21.2854 38.678 21.2854 38.538V33.302C21.2854 33.162 21.2014 33.092 21.0334 33.092V32.84H24.8974ZM32.504 36.858C32.504 36.8953 32.4993 36.9373 32.49 36.984C32.49 37.0213 32.49 37.0633 32.49 37.11C32.49 37.25 32.5787 37.3807 32.756 37.502C32.9333 37.614 33.1433 37.712 33.386 37.796C33.638 37.8707 33.8853 37.9313 34.128 37.978C34.38 38.0247 34.576 38.048 34.716 38.048C34.8467 38.048 35.0053 38.0387 35.192 38.02C35.388 38.0013 35.5793 37.964 35.766 37.908C35.9527 37.8427 36.1113 37.7587 36.242 37.656C36.3727 37.544 36.438 37.3993 36.438 37.222C36.438 37.0167 36.3213 36.8673 36.088 36.774C35.864 36.6807 35.5793 36.6107 35.234 36.564C34.8887 36.508 34.5153 36.4567 34.114 36.41C33.7127 36.354 33.3393 36.27 32.994 36.158C32.6487 36.0367 32.3593 35.8687 32.126 35.654C31.902 35.43 31.79 35.1173 31.79 34.716C31.79 34.1187 32.0373 33.6427 32.532 33.288C33.0267 32.9333 33.722 32.756 34.618 32.756C35.0567 32.756 35.43 32.7933 35.738 32.868C36.0553 32.9333 36.3213 33.008 36.536 33.092C36.7507 33.176 36.9233 33.2553 37.054 33.33C37.194 33.3953 37.2967 33.428 37.362 33.428C37.4367 33.428 37.4927 33.4187 37.53 33.4C37.5673 33.372 37.614 33.344 37.67 33.316L37.824 33.47L37.124 34.786L36.872 34.702C36.8627 34.646 36.8533 34.59 36.844 34.534C36.8347 34.478 36.7927 34.422 36.718 34.366C36.5313 34.2073 36.242 34.072 35.85 33.96C35.458 33.848 35.0193 33.792 34.534 33.792C34.3473 33.792 34.17 33.806 34.002 33.834C33.834 33.8527 33.6847 33.89 33.554 33.946C33.4233 34.002 33.3207 34.0767 33.246 34.17C33.1713 34.254 33.134 34.3613 33.134 34.492C33.134 34.6973 33.246 34.8467 33.47 34.94C33.7033 35.024 33.9927 35.094 34.338 35.15C34.6833 35.1967 35.0567 35.248 35.458 35.304C35.8593 35.3507 36.2327 35.4347 36.578 35.556C36.9233 35.6773 37.208 35.8547 37.432 36.088C37.6653 36.3213 37.782 36.6433 37.782 37.054C37.782 37.4647 37.6793 37.8007 37.474 38.062C37.278 38.3233 37.0307 38.5287 36.732 38.678C36.4333 38.8273 36.102 38.9253 35.738 38.972C35.3833 39.0187 35.0473 39.042 34.73 39.042C34.4127 39.042 34.0953 39.014 33.778 38.958C33.47 38.8927 33.1853 38.8227 32.924 38.748C32.672 38.664 32.4573 38.5893 32.28 38.524C32.1027 38.4493 31.9953 38.412 31.958 38.412C31.8927 38.412 31.8367 38.44 31.79 38.496L31.594 38.356L32.238 36.788L32.504 36.858ZM43.7973 38.748C43.844 38.748 43.8906 38.734 43.9373 38.706C43.984 38.6687 44.0073 38.6127 44.0073 38.538V33.876H42.1873C42.1126 33.876 42.0426 33.8947 41.9773 33.932C41.912 33.9693 41.8793 34.03 41.8793 34.114H41.6273V32.504H41.8793C41.8793 32.6347 41.912 32.7233 41.9773 32.77C42.0426 32.8167 42.1126 32.84 42.1873 32.84H47.1713C47.246 32.84 47.316 32.8167 47.3813 32.77C47.4466 32.7233 47.4793 32.6347 47.4793 32.504H47.7313V34.114H47.4793C47.4793 34.03 47.4466 33.9693 47.3813 33.932C47.316 33.8947 47.246 33.876 47.1713 33.876H45.3513V38.538C45.3513 38.678 45.4353 38.748 45.6033 38.748V39H43.7973V38.748Z" fill="white"/>
</svg>
