<svg width="281" height="59" viewBox="0 0 281 59" fill="none" xmlns="http://www.w3.org/2000/svg">
<path d="M66.2325 32.8677C66.2579 32.8719 66.2833 32.874 66.3087 32.874C66.3383 32.874 66.3679 32.874 66.3975 32.874C66.7657 32.874 67.1127 32.7957 67.4385 32.6392C67.7686 32.4784 68.0564 32.2752 68.3018 32.0298C68.5473 31.7843 68.7398 31.5114 68.8795 31.2109C69.0233 30.9105 69.0953 30.6185 69.0953 30.335C69.0953 30.1318 69.0572 29.9393 68.981 29.7573C68.9091 29.5754 68.7927 29.4167 68.6319 29.2812C68.4753 29.1458 68.2722 29.0379 68.0225 28.9575C67.7771 28.8771 67.483 28.8369 67.1402 28.8369C66.7551 28.8369 66.4229 28.8729 66.1436 28.9448C65.8686 29.0168 65.6295 29.1099 65.4263 29.2241C65.2274 29.3384 65.0582 29.4696 64.9185 29.6177C64.7831 29.7658 64.6646 29.9181 64.5631 30.0747C64.4657 30.2313 64.3769 30.3836 64.2965 30.5317C64.2161 30.6799 64.1314 30.811 64.0426 30.9253C63.9579 31.0396 63.8627 31.1326 63.7569 31.2046C63.6511 31.2765 63.5199 31.3125 63.3634 31.3125C63.1518 31.3125 62.9931 31.2596 62.8873 31.1538C62.7815 31.0438 62.7286 30.8914 62.7286 30.6968C62.7286 30.5148 62.7773 30.318 62.8746 30.1064C62.9761 29.8949 63.1179 29.6833 63.2999 29.4717C63.4861 29.2601 63.7125 29.057 63.9791 28.8623C64.2457 28.6634 64.544 28.4899 64.8741 28.3418C65.2084 28.1895 65.5723 28.0688 65.9659 27.98C66.3594 27.8869 66.7763 27.8403 67.2164 27.8403C67.648 27.8403 68.0606 27.8953 68.4542 28.0054C68.852 28.1154 69.2032 28.2804 69.5079 28.5005C69.8126 28.7163 70.0538 28.9893 70.2315 29.3193C70.4135 29.6494 70.5045 30.0345 70.5045 30.4746C70.5045 30.7708 70.4495 31.0544 70.3394 31.3252C70.2336 31.5918 70.0898 31.8436 69.9078 32.0806C69.7258 32.3133 69.5121 32.5291 69.2667 32.728C69.0255 32.9227 68.7673 33.0962 68.4923 33.2485C68.2172 33.4009 67.9337 33.5299 67.6417 33.6357C67.3539 33.7415 67.0746 33.8177 66.8038 33.8643C66.8419 34.0632 66.9032 34.2874 66.9879 34.5371C67.0767 34.7826 67.1825 35.0174 67.3052 35.2417C67.4322 35.4618 67.5718 35.6501 67.7242 35.8066C67.8765 35.9632 68.0373 36.0479 68.2066 36.0605C68.2405 36.0648 68.2722 36.0669 68.3018 36.0669C68.3315 36.0669 68.3611 36.0669 68.3907 36.0669C68.6996 36.0669 68.9747 36.0161 69.2159 35.9146C69.4571 35.813 69.6581 35.7008 69.8189 35.5781C70.0093 35.4385 70.1744 35.2756 70.314 35.0894C70.4452 34.9412 70.5785 34.8672 70.7139 34.8672C70.7986 34.8672 70.8705 34.8968 70.9298 34.9561C70.989 35.0153 71.0186 35.0957 71.0186 35.1973C71.0186 35.2946 70.9869 35.4089 70.9234 35.54C70.8642 35.667 70.7605 35.8003 70.6124 35.9399C70.1765 36.3504 69.7491 36.6509 69.3301 36.8413C68.9154 37.0275 68.5219 37.1206 68.1495 37.1206C67.8448 37.1206 67.5634 37.0339 67.3052 36.8604C67.0471 36.6868 66.8122 36.452 66.6007 36.1558C66.3891 35.8595 66.1965 35.5146 66.023 35.1211C65.8495 34.7233 65.6951 34.3044 65.5596 33.8643C65.4835 34.0378 65.4052 34.243 65.3248 34.48C65.2444 34.7127 65.1576 34.9539 65.0645 35.2036C64.9714 35.4533 64.8741 35.7008 64.7725 35.9463C64.671 36.1875 64.5588 36.4054 64.4361 36.6001C64.3134 36.7905 64.1822 36.945 64.0426 37.0635C63.9029 37.182 63.7506 37.2412 63.5855 37.2412C63.4501 37.2412 63.3401 37.2201 63.2554 37.1777C63.1708 37.1354 63.1052 37.0825 63.0587 37.019C63.0121 36.9556 62.9783 36.8857 62.9571 36.8096C62.9402 36.7334 62.9317 36.6615 62.9317 36.5938C62.9317 36.4964 62.9444 36.397 62.9698 36.2954C62.9952 36.1938 63.0312 36.0986 63.0777 36.0098L64.9503 32.582C65.1111 32.2943 65.2719 32.0171 65.4327 31.7505C65.5977 31.4797 65.7564 31.2406 65.9088 31.0332C66.0653 30.8258 66.2113 30.6608 66.3468 30.5381C66.4864 30.4111 66.6112 30.3477 66.7213 30.3477C66.7509 30.3477 66.7869 30.354 66.8292 30.3667C66.8715 30.3752 66.9096 30.3942 66.9434 30.4238C66.9773 30.4492 67.0069 30.4894 67.0323 30.5444C67.0577 30.5952 67.0704 30.6608 67.0704 30.7412C67.0704 30.8216 67.0471 30.9338 67.0006 31.0776C66.954 31.2215 66.8926 31.3866 66.8165 31.5728C66.7403 31.759 66.6514 31.9642 66.5499 32.1885C66.4483 32.4085 66.3425 32.6349 66.2325 32.8677ZM74.9377 33.5342C74.7388 33.5342 74.5462 33.585 74.36 33.6865C74.1738 33.7881 74.0088 33.9214 73.8649 34.0864C73.721 34.2515 73.6068 34.4377 73.5221 34.645C73.4375 34.8481 73.3952 35.0534 73.3952 35.2607C73.3952 35.3454 73.3994 35.4342 73.4079 35.5273C73.4206 35.6162 73.446 35.6987 73.4841 35.7749C73.5221 35.8511 73.575 35.9146 73.6427 35.9653C73.7147 36.0161 73.8099 36.0415 73.9284 36.0415C74.0215 36.0415 74.1294 36.0013 74.2521 35.9209C74.3791 35.8363 74.5081 35.7305 74.6393 35.6035C74.7747 35.4723 74.9059 35.3306 75.0329 35.1782C75.1598 35.0216 75.2741 34.8693 75.3757 34.7212C75.4772 34.5731 75.5597 34.4398 75.6232 34.3213C75.6867 34.2028 75.7184 34.116 75.7184 34.061C75.7184 33.9806 75.6909 33.9087 75.6359 33.8452C75.5809 33.7775 75.5132 33.7204 75.4328 33.6738C75.3524 33.6273 75.2656 33.5934 75.1725 33.5723C75.0837 33.5469 75.0054 33.5342 74.9377 33.5342ZM79.3366 35.1719C79.2604 35.2438 79.1589 35.3433 79.0319 35.4702C78.905 35.5972 78.759 35.7347 78.5939 35.8828C78.4331 36.0309 78.2596 36.1812 78.0734 36.3335C77.8914 36.4816 77.7031 36.617 77.5085 36.7397C77.318 36.8625 77.1297 36.9619 76.9435 37.0381C76.7573 37.1185 76.5817 37.1587 76.4167 37.1587C76.2686 37.1587 76.1416 37.127 76.0358 37.0635C75.93 37 75.8412 36.9175 75.7692 36.8159C75.7015 36.7144 75.6507 36.6001 75.6169 36.4731C75.583 36.342 75.5661 36.2087 75.5661 36.0732C75.5661 35.9844 75.5724 35.8976 75.5851 35.813C75.5978 35.7241 75.619 35.6416 75.6486 35.5654C75.5174 35.7432 75.3672 35.9272 75.1979 36.1177C75.0329 36.3039 74.853 36.4753 74.6584 36.6318C74.4679 36.7842 74.2669 36.909 74.0553 37.0063C73.848 37.1079 73.6364 37.1587 73.4206 37.1587C73.3106 37.1587 73.1815 37.1354 73.0334 37.0889C72.8895 37.0465 72.752 36.9746 72.6208 36.873C72.4896 36.7715 72.3796 36.6403 72.2907 36.4795C72.2018 36.3187 72.1574 36.1219 72.1574 35.8892C72.1574 35.7157 72.1828 35.5083 72.2336 35.2671C72.2886 35.0259 72.369 34.7762 72.4748 34.5181C72.5848 34.2557 72.7223 33.9976 72.8874 33.7437C73.0566 33.4897 73.2555 33.2633 73.4841 33.0645C73.7126 32.8613 73.9728 32.6984 74.2648 32.5757C74.5568 32.4487 74.8827 32.3853 75.2424 32.3853C75.4286 32.3853 75.5915 32.4085 75.7311 32.4551C75.8708 32.5016 75.9893 32.5524 76.0866 32.6074C76.1966 32.6751 76.294 32.7492 76.3786 32.8296C76.4505 32.7915 76.5246 32.7555 76.6008 32.7217C76.6642 32.6921 76.7298 32.6667 76.7975 32.6455C76.8695 32.6201 76.9308 32.6074 76.9816 32.6074C77.1424 32.6074 77.2736 32.6519 77.3752 32.7407C77.4767 32.8296 77.5275 32.9269 77.5275 33.0327C77.5275 33.0623 77.5254 33.0856 77.5212 33.1025C77.5 33.1829 77.4662 33.2845 77.4196 33.4072C77.3773 33.5299 77.3286 33.6675 77.2736 33.8198C77.2186 33.9679 77.1615 34.1245 77.1022 34.2896C77.0472 34.4504 76.9964 34.609 76.9499 34.7656C76.9033 34.9222 76.8652 35.0703 76.8356 35.21C76.806 35.3454 76.7912 35.4618 76.7912 35.5591C76.7912 35.686 76.8123 35.7918 76.8547 35.8765C76.897 35.9569 76.9689 35.9971 77.0705 35.9971C77.134 35.9971 77.208 35.978 77.2926 35.9399C77.3815 35.8976 77.4767 35.8426 77.5783 35.7749C77.6799 35.7072 77.7835 35.631 77.8893 35.5464C77.9994 35.4575 78.1051 35.3687 78.2067 35.2798C78.4437 35.0682 78.6955 34.827 78.9621 34.5562C79.0298 34.5011 79.0954 34.4736 79.1589 34.4736C79.2435 34.4736 79.3133 34.516 79.3683 34.6006C79.4276 34.681 79.4572 34.772 79.4572 34.8735C79.4572 34.992 79.417 35.0915 79.3366 35.1719ZM82.843 33.4707C82.6865 33.7754 82.5384 34.0737 82.3987 34.3657C82.2591 34.6535 82.1279 34.9201 82.0051 35.1655C81.9544 35.2671 81.9036 35.3856 81.8528 35.521C81.8063 35.6522 81.783 35.7686 81.783 35.8701C81.783 35.9294 81.7957 35.9759 81.8211 36.0098C81.8507 36.0436 81.8972 36.0605 81.9607 36.0605C82.0496 36.0605 82.1617 36.0352 82.2971 35.9844C82.4326 35.9294 82.5786 35.8595 82.7351 35.7749C82.8917 35.686 83.0567 35.5866 83.2302 35.4766C83.4038 35.3623 83.573 35.2459 83.7381 35.1274C83.9073 35.0047 84.0681 34.8841 84.2205 34.7656C84.3728 34.6429 84.5082 34.5308 84.6267 34.4292C84.6944 34.3826 84.7579 34.3594 84.8172 34.3594C84.8891 34.3594 84.9483 34.3911 84.9949 34.4546C85.0414 34.5181 85.0647 34.5985 85.0647 34.6958C85.0647 34.7931 85.0414 34.8926 84.9949 34.9941C84.9483 35.0957 84.8637 35.1951 84.741 35.2925C84.4659 35.5422 84.1866 35.7791 83.9031 36.0034C83.6238 36.2277 83.3445 36.4266 83.0652 36.6001C82.7901 36.7694 82.5172 36.9048 82.2464 37.0063C81.9755 37.1079 81.7132 37.1587 81.4593 37.1587C81.29 37.1587 81.1482 37.1354 81.034 37.0889C80.9197 37.0465 80.8266 36.9873 80.7547 36.9111C80.687 36.8307 80.6383 36.7397 80.6087 36.6382C80.579 36.5324 80.5642 36.4202 80.5642 36.3018C80.5642 36.0902 80.6002 35.8701 80.6721 35.6416C80.7441 35.4131 80.8245 35.2078 80.9134 35.0259C81.0403 34.7635 81.1651 34.5033 81.2879 34.2451C81.4148 33.987 81.5375 33.7394 81.656 33.5024H81.3831C81.1461 33.5024 80.9832 33.4644 80.8943 33.3882C80.8054 33.312 80.761 33.2253 80.761 33.1279C80.761 33.0856 80.7737 33.0348 80.7991 32.9756C80.8287 32.9121 80.8689 32.855 80.9197 32.8042C80.9747 32.7492 81.0403 32.7026 81.1165 32.6646C81.1926 32.6265 81.2794 32.6074 81.3767 32.6074H82.0623L83.4016 29.9478C83.4863 29.7869 83.5899 29.6727 83.7127 29.605C83.8396 29.533 83.9708 29.4971 84.1062 29.4971C84.2332 29.4971 84.3496 29.5309 84.4553 29.5986C84.5611 29.6663 84.614 29.7785 84.614 29.9351C84.614 30.0155 84.595 30.098 84.5569 30.1826C84.5231 30.263 84.4765 30.3582 84.4173 30.4683C84.3792 30.5402 84.3326 30.627 84.2776 30.7285C84.2226 30.8258 84.1634 30.9316 84.0999 31.0459C84.0406 31.1559 83.9772 31.2723 83.9094 31.395C83.846 31.5177 83.7825 31.6362 83.719 31.7505C83.5751 32.0213 83.4228 32.307 83.262 32.6074H85.3313C85.4329 32.6074 85.526 32.6138 85.6106 32.6265C85.6953 32.6349 85.7672 32.6561 85.8264 32.6899C85.8899 32.7196 85.9386 32.7619 85.9724 32.8169C86.0063 32.8719 86.0232 32.946 86.0232 33.0391C86.0232 33.0856 86.0148 33.1322 85.9978 33.1787C85.9851 33.2253 85.9576 33.2676 85.9153 33.3057C85.8772 33.3438 85.8222 33.3755 85.7503 33.4009C85.6826 33.4263 85.5937 33.4432 85.4837 33.4517L82.843 33.4707ZM89.1996 33.2549C89.1784 33.2507 89.1594 33.2485 89.1425 33.2485C89.1255 33.2485 89.1065 33.2485 89.0853 33.2485C88.9245 33.2485 88.7743 33.2803 88.6346 33.3438C88.495 33.4072 88.3659 33.4919 88.2474 33.5977C88.1332 33.6992 88.0295 33.8156 87.9364 33.9468C87.8475 34.078 87.7671 34.2091 87.6952 34.3403C87.6233 34.4673 87.5619 34.59 87.5111 34.7085C87.4646 34.827 87.4286 34.9264 87.4032 35.0068C87.5513 34.9307 87.7037 34.8439 87.8602 34.7466C88.021 34.6493 88.1713 34.5562 88.3109 34.4673C88.4506 34.3784 88.5712 34.298 88.6727 34.2261C88.7785 34.1541 88.8526 34.1055 88.8949 34.0801C89.0853 33.9616 89.2165 33.8516 89.2885 33.75C89.3604 33.6442 89.3964 33.5532 89.3964 33.4771C89.3964 33.4136 89.3752 33.3628 89.3329 33.3247C89.2948 33.2866 89.2504 33.2633 89.1996 33.2549ZM89.4281 32.3789C89.7793 32.3789 90.0417 32.4635 90.2152 32.6328C90.3887 32.8021 90.4755 33.0369 90.4755 33.3374C90.4755 33.5151 90.4289 33.7013 90.3358 33.896C90.2427 34.0907 90.0819 34.2896 89.8534 34.4927C89.6249 34.6916 89.3181 34.8968 88.933 35.1084C88.5521 35.3158 88.0739 35.5252 87.4984 35.7368C87.5196 35.8595 87.5852 35.9569 87.6952 36.0288C87.8052 36.0965 87.9512 36.1304 88.1332 36.1304C88.3278 36.1304 88.5352 36.1029 88.7552 36.0479C88.9795 35.9886 89.1996 35.9146 89.4154 35.8257C89.6355 35.7368 89.8492 35.6416 90.0565 35.54C90.2639 35.4342 90.4501 35.3348 90.6151 35.2417C90.7844 35.1486 90.924 35.0682 91.0341 35.0005C91.1483 34.9328 91.2245 34.8905 91.2626 34.8735C91.3007 34.8481 91.3345 34.8333 91.3641 34.8291C91.398 34.8249 91.4276 34.8228 91.453 34.8228C91.5038 34.8228 91.5461 34.8354 91.58 34.8608C91.6138 34.882 91.6413 34.9095 91.6625 34.9434C91.6879 34.973 91.7048 35.0068 91.7133 35.0449C91.7217 35.0788 91.726 35.1084 91.726 35.1338C91.726 35.1719 91.7217 35.2184 91.7133 35.2734C91.7048 35.3242 91.6731 35.3835 91.618 35.4512C91.5969 35.4723 91.5249 35.5295 91.4022 35.6226C91.2837 35.7157 91.1293 35.8257 90.9388 35.9526C90.7484 36.0796 90.5262 36.215 90.2723 36.3589C90.0227 36.4985 89.7561 36.6276 89.4725 36.7461C89.1932 36.8646 88.9012 36.9619 88.5966 37.0381C88.2919 37.1185 87.9914 37.1587 87.6952 37.1587C87.4413 37.1587 87.2149 37.11 87.016 37.0127C86.8213 36.9154 86.6542 36.7842 86.5145 36.6191C86.3791 36.4541 86.2754 36.2637 86.2035 36.0479C86.1316 35.832 86.0956 35.6056 86.0956 35.3687C86.0956 35.1867 86.1316 34.9878 86.2035 34.772C86.2754 34.5519 86.3791 34.3319 86.5145 34.1118C86.6499 33.8918 86.815 33.6781 87.0096 33.4707C87.2085 33.2591 87.4307 33.0729 87.6761 32.9121C87.9216 32.7513 88.1903 32.6222 88.4823 32.5249C88.7785 32.4276 89.0938 32.3789 89.4281 32.3789Z" fill="white"/>
<path d="M109.842 7.88477H115V56.2811H109.842V7.88477Z" fill="#C4C4C4"/>
<path d="M138.895 28.6H140.911C141.567 28.6 142.059 28.776 142.387 29.128C142.715 29.48 142.879 29.996 142.879 30.676V34.924C142.879 35.604 142.715 36.12 142.387 36.472C142.059 36.824 141.567 37 140.911 37H138.895V28.6ZM140.887 35.8C141.103 35.8 141.267 35.736 141.379 35.608C141.499 35.48 141.559 35.272 141.559 34.984V30.616C141.559 30.328 141.499 30.12 141.379 29.992C141.267 29.864 141.103 29.8 140.887 29.8H140.215V35.8H140.887ZM145.87 28.6H149.47V29.8H147.19V32.02H149.002V33.22H147.19V35.8H149.47V37H145.87V28.6ZM151.981 28.6H153.313L154.177 35.116H154.201L155.065 28.6H156.277L155.005 37H153.253L151.981 28.6ZM159.011 28.6H162.611V29.8H160.331V32.02H162.143V33.22H160.331V35.8H162.611V37H159.011V28.6ZM165.471 28.6H166.791V35.8H168.963V37H165.471V28.6ZM173.557 37.12C172.909 37.12 172.413 36.936 172.069 36.568C171.725 36.2 171.553 35.68 171.553 35.008V30.592C171.553 29.92 171.725 29.4 172.069 29.032C172.413 28.664 172.909 28.48 173.557 28.48C174.205 28.48 174.701 28.664 175.045 29.032C175.389 29.4 175.561 29.92 175.561 30.592V35.008C175.561 35.68 175.389 36.2 175.045 36.568C174.701 36.936 174.205 37.12 173.557 37.12ZM173.557 35.92C174.013 35.92 174.241 35.644 174.241 35.092V30.508C174.241 29.956 174.013 29.68 173.557 29.68C173.101 29.68 172.873 29.956 172.873 30.508V35.092C172.873 35.644 173.101 35.92 173.557 35.92ZM178.553 28.6H180.497C181.153 28.6 181.645 28.776 181.973 29.128C182.301 29.48 182.465 29.996 182.465 30.676V31.504C182.465 32.184 182.301 32.7 181.973 33.052C181.645 33.404 181.153 33.58 180.497 33.58H179.873V37H178.553V28.6ZM180.497 32.38C180.713 32.38 180.873 32.32 180.977 32.2C181.089 32.08 181.145 31.876 181.145 31.588V30.592C181.145 30.304 181.089 30.1 180.977 29.98C180.873 29.86 180.713 29.8 180.497 29.8H179.873V32.38H180.497ZM185.282 28.6H188.882V29.8H186.602V32.02H188.414V33.22H186.602V35.8H188.882V37H185.282V28.6ZM191.742 28.6H193.698C194.378 28.6 194.874 28.76 195.186 29.08C195.498 29.392 195.654 29.876 195.654 30.532V31.048C195.654 31.92 195.366 32.472 194.79 32.704V32.728C195.11 32.824 195.334 33.02 195.462 33.316C195.598 33.612 195.666 34.008 195.666 34.504V35.98C195.666 36.22 195.674 36.416 195.69 36.568C195.706 36.712 195.746 36.856 195.81 37H194.466C194.418 36.864 194.386 36.736 194.37 36.616C194.354 36.496 194.346 36.28 194.346 35.968V34.432C194.346 34.048 194.282 33.78 194.154 33.628C194.034 33.476 193.822 33.4 193.518 33.4H193.062V37H191.742V28.6ZM193.542 32.2C193.806 32.2 194.002 32.132 194.13 31.996C194.266 31.86 194.334 31.632 194.334 31.312V30.664C194.334 30.36 194.278 30.14 194.166 30.004C194.062 29.868 193.894 29.8 193.662 29.8H193.062V32.2H193.542ZM200.398 37.12C199.758 37.12 199.274 36.94 198.946 36.58C198.618 36.212 198.454 35.688 198.454 35.008V34.528H199.702V35.104C199.702 35.648 199.93 35.92 200.386 35.92C200.61 35.92 200.778 35.856 200.89 35.728C201.01 35.592 201.07 35.376 201.07 35.08C201.07 34.728 200.99 34.42 200.83 34.156C200.67 33.884 200.374 33.56 199.942 33.184C199.398 32.704 199.018 32.272 198.802 31.888C198.586 31.496 198.478 31.056 198.478 30.568C198.478 29.904 198.646 29.392 198.982 29.032C199.318 28.664 199.806 28.48 200.446 28.48C201.078 28.48 201.554 28.664 201.874 29.032C202.202 29.392 202.366 29.912 202.366 30.592V30.94H201.118V30.508C201.118 30.22 201.062 30.012 200.95 29.884C200.838 29.748 200.674 29.68 200.458 29.68C200.018 29.68 199.798 29.948 199.798 30.484C199.798 30.788 199.878 31.072 200.038 31.336C200.206 31.6 200.506 31.92 200.938 32.296C201.49 32.776 201.87 33.212 202.078 33.604C202.286 33.996 202.39 34.456 202.39 34.984C202.39 35.672 202.218 36.2 201.874 36.568C201.538 36.936 201.046 37.12 200.398 37.12Z" fill="white"/>
<path d="M19.1234 32.82C19.1234 32.7467 19.0934 32.6933 19.0334 32.66C18.98 32.62 18.8834 32.6 18.7434 32.6H15.5034V33.84H17.4634C17.5967 33.84 17.7 33.8267 17.7734 33.8C17.8467 33.7733 17.8834 33.7133 17.8834 33.62H18.0634V35.06H17.8834C17.8834 34.9067 17.8467 34.81 17.7734 34.77C17.7 34.7233 17.5967 34.7 17.4634 34.7H15.5034V36.64C15.5034 36.7 15.53 36.7467 15.5834 36.78C15.6434 36.8067 15.7167 36.82 15.8034 36.82V37H14.1034V36.82C14.2767 36.82 14.3634 36.76 14.3634 36.64V32.1C14.3634 31.98 14.2767 31.92 14.1034 31.92V31.74H18.7434C18.8834 31.74 18.98 31.72 19.0334 31.68C19.0934 31.6333 19.1234 31.5733 19.1234 31.5H19.3034V32.82H19.1234ZM22.2066 36.82C22.3133 36.82 22.3866 36.81 22.4266 36.79C22.4666 36.7633 22.4866 36.7233 22.4866 36.67V32.93C22.4866 32.8767 22.4666 32.84 22.4266 32.82C22.3866 32.7933 22.3133 32.78 22.2066 32.78V32.6H23.7266V32.78C23.54 32.78 23.4466 32.83 23.4466 32.93V36.67C23.4466 36.77 23.54 36.82 23.7266 36.82V37H22.2066V36.82ZM29.9067 34.5C30.5601 34.5 30.8867 34.2933 30.8867 33.88C30.8867 33.7133 30.8067 33.5833 30.6467 33.49C30.4934 33.39 30.2467 33.34 29.9067 33.34H28.3267V34.5H29.9067ZM29.9267 32.6C30.5201 32.6 30.9834 32.7 31.3167 32.9C31.6501 33.0933 31.8167 33.4267 31.8167 33.9C31.8167 34.08 31.7834 34.24 31.7167 34.38C31.6501 34.52 31.5601 34.6433 31.4467 34.75C31.3401 34.85 31.2201 34.9333 31.0867 35C30.9534 35.06 30.8167 35.1067 30.6767 35.14L31.6567 36.57C31.7101 36.6433 31.7667 36.7 31.8267 36.74C31.8934 36.7733 31.9634 36.8 32.0367 36.82V37H30.5067V36.82C30.5934 36.82 30.6367 36.79 30.6367 36.73C30.6367 36.6633 30.5867 36.56 30.4867 36.42L29.6967 35.24H28.3067V36.67C28.3067 36.7233 28.3267 36.7633 28.3667 36.79C28.4134 36.81 28.4567 36.82 28.4967 36.82V37H27.1667V36.82C27.2867 36.82 27.3467 36.77 27.3467 36.67V32.93C27.3467 32.83 27.2867 32.78 27.1667 32.78V32.6H29.9267ZM35.36 35.47C35.36 35.4967 35.3567 35.5267 35.35 35.56C35.35 35.5867 35.35 35.6167 35.35 35.65C35.35 35.75 35.4133 35.8433 35.54 35.93C35.6667 36.01 35.8167 36.08 35.99 36.14C36.17 36.1933 36.3467 36.2367 36.52 36.27C36.7 36.3033 36.84 36.32 36.94 36.32C37.0333 36.32 37.1467 36.3133 37.28 36.3C37.42 36.2867 37.5567 36.26 37.69 36.22C37.8233 36.1733 37.9367 36.1133 38.03 36.04C38.1233 35.96 38.17 35.8567 38.17 35.73C38.17 35.5833 38.0867 35.4767 37.92 35.41C37.76 35.3433 37.5567 35.2933 37.31 35.26C37.0633 35.22 36.7967 35.1833 36.51 35.15C36.2233 35.11 35.9567 35.05 35.71 34.97C35.4633 34.8833 35.2567 34.7633 35.09 34.61C34.93 34.45 34.85 34.2267 34.85 33.94C34.85 33.5133 35.0267 33.1733 35.38 32.92C35.7333 32.6667 36.23 32.54 36.87 32.54C37.1833 32.54 37.45 32.5667 37.67 32.62C37.8967 32.6667 38.0867 32.72 38.24 32.78C38.3933 32.84 38.5167 32.8967 38.61 32.95C38.71 32.9967 38.7833 33.02 38.83 33.02C38.8833 33.02 38.9233 33.0133 38.95 33C38.9767 32.98 39.01 32.96 39.05 32.94L39.16 33.05L38.66 33.99L38.48 33.93C38.4733 33.89 38.4667 33.85 38.46 33.81C38.4533 33.77 38.4233 33.73 38.37 33.69C38.2367 33.5767 38.03 33.48 37.75 33.4C37.47 33.32 37.1567 33.28 36.81 33.28C36.6767 33.28 36.55 33.29 36.43 33.31C36.31 33.3233 36.2033 33.35 36.11 33.39C36.0167 33.43 35.9433 33.4833 35.89 33.55C35.8367 33.61 35.81 33.6867 35.81 33.78C35.81 33.9267 35.89 34.0333 36.05 34.1C36.2167 34.16 36.4233 34.21 36.67 34.25C36.9167 34.2833 37.1833 34.32 37.47 34.36C37.7567 34.3933 38.0233 34.4533 38.27 34.54C38.5167 34.6267 38.72 34.7533 38.88 34.92C39.0467 35.0867 39.13 35.3167 39.13 35.61C39.13 35.9033 39.0567 36.1433 38.91 36.33C38.77 36.5167 38.5933 36.6633 38.38 36.77C38.1667 36.8767 37.93 36.9467 37.67 36.98C37.4167 37.0133 37.1767 37.03 36.95 37.03C36.7233 37.03 36.4967 37.01 36.27 36.97C36.05 36.9233 35.8467 36.8733 35.66 36.82C35.48 36.76 35.3267 36.7067 35.2 36.66C35.0733 36.6067 34.9967 36.58 34.97 36.58C34.9233 36.58 34.8833 36.6 34.85 36.64L34.71 36.54L35.17 35.42L35.36 35.47ZM43.4266 36.82C43.46 36.82 43.4933 36.81 43.5266 36.79C43.56 36.7633 43.5766 36.7233 43.5766 36.67V33.34H42.2766C42.2233 33.34 42.1733 33.3533 42.1266 33.38C42.08 33.4067 42.0566 33.45 42.0566 33.51H41.8766V32.36H42.0566C42.0566 32.4533 42.08 32.5167 42.1266 32.55C42.1733 32.5833 42.2233 32.6 42.2766 32.6H45.8366C45.89 32.6 45.94 32.5833 45.9866 32.55C46.0333 32.5167 46.0566 32.4533 46.0566 32.36H46.2366V33.51H46.0566C46.0566 33.45 46.0333 33.4067 45.9866 33.38C45.94 33.3533 45.89 33.34 45.8366 33.34H44.5366V36.67C44.5366 36.77 44.5966 36.82 44.7166 36.82V37H43.4266V36.82Z" fill="white"/>
</svg>
