<svg width="198" height="66" viewBox="0 0 198 66" fill="none" xmlns="http://www.w3.org/2000/svg">
<path d="M59.4797 34.5498C59.5071 34.5544 59.5344 34.5566 59.5617 34.5566C59.5936 34.5566 59.6255 34.5566 59.6574 34.5566C60.0539 34.5566 60.4276 34.4723 60.7785 34.3037C61.134 34.1305 61.4439 33.9118 61.7082 33.6475C61.9726 33.3831 62.1799 33.0892 62.3303 32.7656C62.4852 32.4421 62.5627 32.1276 62.5627 31.8223C62.5627 31.6035 62.5217 31.3962 62.4397 31.2002C62.3622 31.0042 62.2369 30.8333 62.0637 30.6875C61.8951 30.5417 61.6763 30.4255 61.4074 30.3389C61.1431 30.2523 60.8264 30.209 60.4573 30.209C60.0425 30.209 59.6848 30.2477 59.384 30.3252C59.0878 30.4027 58.8303 30.5029 58.6116 30.626C58.3974 30.749 58.2151 30.8903 58.0647 31.0498C57.9188 31.2093 57.7912 31.3734 57.6819 31.542C57.577 31.7106 57.4813 31.8747 57.3948 32.0342C57.3082 32.1937 57.217 32.335 57.1213 32.458C57.0302 32.5811 56.9276 32.6813 56.8137 32.7588C56.6998 32.8363 56.5585 32.875 56.3899 32.875C56.162 32.875 55.9911 32.818 55.8772 32.7041C55.7632 32.5856 55.7063 32.4215 55.7063 32.2119C55.7063 32.016 55.7587 31.804 55.8635 31.5762C55.9729 31.3483 56.1255 31.1204 56.3215 30.8926C56.522 30.6647 56.7658 30.446 57.053 30.2363C57.3401 30.0221 57.6614 29.8353 58.0168 29.6758C58.3769 29.5117 58.7688 29.3818 59.1926 29.2861C59.6164 29.1859 60.0653 29.1357 60.5393 29.1357C61.0041 29.1357 61.4485 29.195 61.8723 29.3135C62.3007 29.432 62.6789 29.6097 63.0071 29.8467C63.3352 30.0791 63.5949 30.373 63.7864 30.7285C63.9823 31.084 64.0803 31.4987 64.0803 31.9727C64.0803 32.2917 64.0211 32.597 63.9026 32.8887C63.7886 33.1758 63.6337 33.4469 63.4377 33.7021C63.2418 33.9528 63.0116 34.1852 62.7473 34.3994C62.4875 34.609 62.2095 34.7959 61.9133 34.96C61.6171 35.124 61.3117 35.263 60.9973 35.377C60.6874 35.4909 60.3866 35.5729 60.0949 35.623C60.136 35.8372 60.202 36.0788 60.2932 36.3477C60.3889 36.612 60.5028 36.8649 60.635 37.1064C60.7717 37.3434 60.9221 37.5462 61.0862 37.7148C61.2502 37.8835 61.4234 37.9746 61.6057 37.9883C61.6422 37.9928 61.6763 37.9951 61.7082 37.9951C61.7401 37.9951 61.772 37.9951 61.8039 37.9951C62.1366 37.9951 62.4328 37.9404 62.6926 37.8311C62.9524 37.7217 63.1688 37.6009 63.342 37.4688C63.5471 37.3184 63.7248 37.1429 63.8752 36.9424C64.0165 36.7829 64.1601 36.7031 64.3059 36.7031C64.397 36.7031 64.4745 36.735 64.5383 36.7988C64.6021 36.8626 64.634 36.9492 64.634 37.0586C64.634 37.1634 64.5998 37.2865 64.5315 37.4277C64.4677 37.5645 64.356 37.708 64.1965 37.8584C63.7271 38.3005 63.2668 38.624 62.8157 38.8291C62.369 39.0296 61.9452 39.1299 61.5442 39.1299C61.216 39.1299 60.913 39.0365 60.635 38.8496C60.357 38.6628 60.1041 38.4098 59.8762 38.0908C59.6483 37.7718 59.441 37.4004 59.2541 36.9766C59.0673 36.5482 58.9009 36.097 58.7551 35.623C58.6731 35.8099 58.5888 36.0309 58.5022 36.2861C58.4156 36.5368 58.3222 36.7965 58.2219 37.0654C58.1216 37.3343 58.0168 37.6009 57.9074 37.8652C57.7981 38.125 57.6773 38.3597 57.5451 38.5693C57.413 38.7744 57.2717 38.9408 57.1213 39.0684C56.9709 39.196 56.8069 39.2598 56.6291 39.2598C56.4833 39.2598 56.3648 39.237 56.2737 39.1914C56.1825 39.1458 56.1119 39.0889 56.0617 39.0205C56.0116 38.9521 55.9752 38.877 55.9524 38.7949C55.9341 38.7129 55.925 38.6354 55.925 38.5625C55.925 38.4577 55.9387 38.3506 55.966 38.2412C55.9934 38.1318 56.0321 38.0293 56.0823 37.9336L58.0989 34.2422C58.272 33.9323 58.4452 33.6338 58.6184 33.3467C58.7961 33.055 58.967 32.7975 59.1311 32.5742C59.2997 32.3509 59.4569 32.1732 59.6028 32.041C59.7532 31.9043 59.8876 31.8359 60.0061 31.8359C60.038 31.8359 60.0767 31.8428 60.1223 31.8564C60.1679 31.8656 60.2089 31.8861 60.2453 31.918C60.2818 31.9453 60.3137 31.9886 60.341 32.0479C60.3684 32.1025 60.3821 32.1732 60.3821 32.2598C60.3821 32.3464 60.357 32.4671 60.3069 32.6221C60.2567 32.777 60.1907 32.9548 60.1086 33.1553C60.0266 33.3558 59.9309 33.5768 59.8215 33.8184C59.7121 34.0553 59.5982 34.2992 59.4797 34.5498ZM68.8545 35.2676C68.6403 35.2676 68.433 35.3223 68.2324 35.4316C68.0319 35.541 67.8542 35.6846 67.6992 35.8623C67.5443 36.04 67.4213 36.2406 67.3301 36.4639C67.239 36.6826 67.1934 36.9036 67.1934 37.127C67.1934 37.2181 67.1979 37.3138 67.2071 37.4141C67.2207 37.5098 67.2481 37.5986 67.2891 37.6807C67.3301 37.7627 67.3871 37.8311 67.46 37.8857C67.5375 37.9404 67.64 37.9678 67.7676 37.9678C67.8679 37.9678 67.9841 37.9245 68.1162 37.8379C68.253 37.7467 68.392 37.6328 68.5332 37.4961C68.6791 37.3548 68.8203 37.2021 68.9571 37.0381C69.0938 36.8695 69.2168 36.7054 69.3262 36.5459C69.4356 36.3864 69.5244 36.2428 69.5928 36.1152C69.6612 35.9876 69.6953 35.8942 69.6953 35.835C69.6953 35.7484 69.6657 35.6709 69.6065 35.6025C69.5472 35.5296 69.4743 35.4681 69.3877 35.418C69.3011 35.3678 69.2077 35.3314 69.1074 35.3086C69.0117 35.2812 68.9274 35.2676 68.8545 35.2676ZM73.5918 37.0312C73.5098 37.1087 73.4004 37.2158 73.2637 37.3525C73.127 37.4893 72.9698 37.6374 72.792 37.7969C72.6188 37.9564 72.432 38.1182 72.2315 38.2822C72.0355 38.4417 71.8327 38.5876 71.6231 38.7197C71.418 38.8519 71.2152 38.959 71.0147 39.041C70.8142 39.1276 70.625 39.1709 70.4473 39.1709C70.2878 39.1709 70.1511 39.1367 70.0371 39.0684C69.9232 39 69.8275 38.9111 69.75 38.8018C69.6771 38.6924 69.6224 38.5693 69.586 38.4326C69.5495 38.2913 69.5313 38.1478 69.5313 38.002C69.5313 37.9062 69.5381 37.8128 69.5518 37.7217C69.5655 37.626 69.5882 37.5371 69.6201 37.4551C69.4789 37.6465 69.3171 37.8447 69.1348 38.0498C68.9571 38.2503 68.7634 38.4349 68.5537 38.6035C68.3487 38.7676 68.1322 38.902 67.9043 39.0068C67.681 39.1162 67.4532 39.1709 67.2207 39.1709C67.1022 39.1709 66.9632 39.1458 66.8037 39.0957C66.6488 39.0501 66.5007 38.9727 66.3594 38.8633C66.2181 38.7539 66.0996 38.6126 66.0039 38.4395C65.9082 38.2663 65.8604 38.0544 65.8604 37.8037C65.8604 37.6169 65.8877 37.3936 65.9424 37.1338C66.0017 36.874 66.0882 36.6051 66.2022 36.3271C66.3207 36.0446 66.4688 35.7666 66.6465 35.4932C66.8288 35.2197 67.043 34.9759 67.2891 34.7617C67.5352 34.543 67.8155 34.3675 68.1299 34.2354C68.4444 34.0986 68.7953 34.0303 69.1826 34.0303C69.3832 34.0303 69.5586 34.0553 69.709 34.1055C69.8594 34.1556 69.987 34.2103 70.0918 34.2695C70.2103 34.3424 70.3151 34.4222 70.4063 34.5088C70.4838 34.4678 70.5635 34.429 70.6455 34.3926C70.7139 34.3607 70.7845 34.3333 70.8574 34.3105C70.9349 34.2832 71.001 34.2695 71.0557 34.2695C71.2289 34.2695 71.3701 34.3174 71.4795 34.4131C71.5889 34.5088 71.6436 34.6136 71.6436 34.7275C71.6436 34.7594 71.6413 34.7845 71.6367 34.8027C71.614 34.8893 71.5775 34.9987 71.5274 35.1309C71.4818 35.263 71.4294 35.4111 71.3701 35.5752C71.3109 35.7347 71.2494 35.9033 71.1856 36.0811C71.1263 36.2542 71.0716 36.4251 71.0215 36.5938C70.9714 36.7624 70.9304 36.9219 70.8985 37.0723C70.8666 37.2181 70.8506 37.3434 70.8506 37.4482C70.8506 37.585 70.8734 37.6989 70.919 37.79C70.9645 37.8766 71.042 37.9199 71.1514 37.9199C71.2198 37.9199 71.2995 37.8994 71.3907 37.8584C71.4864 37.8128 71.5889 37.7536 71.6983 37.6807C71.8076 37.6077 71.9193 37.5257 72.0332 37.4346C72.1517 37.3389 72.2657 37.2432 72.375 37.1475C72.6302 36.9196 72.9014 36.6598 73.1885 36.3682C73.2614 36.3089 73.3321 36.2793 73.4004 36.2793C73.4916 36.2793 73.5668 36.3249 73.626 36.416C73.6898 36.5026 73.7217 36.6006 73.7217 36.71C73.7217 36.8376 73.6784 36.9447 73.5918 37.0312ZM77.368 35.1992C77.1994 35.5273 77.0399 35.8486 76.8895 36.1631C76.7391 36.473 76.5978 36.7601 76.4657 37.0244C76.411 37.1338 76.3563 37.2614 76.3016 37.4072C76.2515 37.5485 76.2264 37.6738 76.2264 37.7832C76.2264 37.847 76.2401 37.8971 76.2674 37.9336C76.2993 37.9701 76.3494 37.9883 76.4178 37.9883C76.5135 37.9883 76.6343 37.9609 76.7801 37.9062C76.9259 37.847 77.0832 37.7718 77.2518 37.6807C77.4204 37.585 77.5981 37.4779 77.785 37.3594C77.9718 37.2363 78.1541 37.111 78.3319 36.9834C78.5142 36.8512 78.6873 36.7214 78.8514 36.5938C79.0155 36.4616 79.1613 36.3408 79.2889 36.2314C79.3618 36.1813 79.4302 36.1562 79.494 36.1562C79.5714 36.1562 79.6352 36.1904 79.6854 36.2588C79.7355 36.3271 79.7606 36.4137 79.7606 36.5186C79.7606 36.6234 79.7355 36.7305 79.6854 36.8398C79.6352 36.9492 79.5441 37.0563 79.4119 37.1611C79.1157 37.43 78.8149 37.6852 78.5096 37.9268C78.2088 38.1683 77.908 38.3825 77.6073 38.5693C77.311 38.7516 77.0171 38.8975 76.7254 39.0068C76.4338 39.1162 76.1512 39.1709 75.8778 39.1709C75.6955 39.1709 75.5428 39.1458 75.4198 39.0957C75.2967 39.0501 75.1964 38.9863 75.119 38.9043C75.0461 38.8177 74.9936 38.7197 74.9617 38.6104C74.9298 38.4964 74.9139 38.3757 74.9139 38.248C74.9139 38.0202 74.9526 37.7832 75.0301 37.5371C75.1076 37.291 75.1942 37.07 75.2899 36.874C75.4266 36.5915 75.561 36.3112 75.6932 36.0332C75.8299 35.7552 75.9621 35.4886 76.0897 35.2334H75.7957C75.5405 35.2334 75.3651 35.1924 75.2694 35.1104C75.1737 35.0283 75.1258 34.9349 75.1258 34.8301C75.1258 34.7845 75.1395 34.7298 75.1668 34.666C75.1987 34.5977 75.242 34.5361 75.2967 34.4814C75.356 34.4222 75.4266 34.3721 75.5086 34.3311C75.5907 34.29 75.6841 34.2695 75.7889 34.2695H76.5272L77.9696 31.4053C78.0607 31.2321 78.1724 31.109 78.3045 31.0361C78.4412 30.9587 78.5825 30.9199 78.7283 30.9199C78.8651 30.9199 78.9904 30.9564 79.1043 31.0293C79.2183 31.1022 79.2752 31.223 79.2752 31.3916C79.2752 31.4782 79.2547 31.5671 79.2137 31.6582C79.1772 31.7448 79.1271 31.8473 79.0633 31.9658C79.0223 32.0433 78.9722 32.1367 78.9129 32.2461C78.8537 32.3509 78.7899 32.4648 78.7215 32.5879C78.6577 32.7064 78.5894 32.8317 78.5164 32.9639C78.4481 33.096 78.3797 33.2236 78.3114 33.3467C78.1564 33.6383 77.9923 33.946 77.8192 34.2695H80.0477C80.1571 34.2695 80.2573 34.2764 80.3485 34.29C80.4396 34.2992 80.5171 34.3219 80.5809 34.3584C80.6492 34.3903 80.7017 34.4359 80.7381 34.4951C80.7746 34.5544 80.7928 34.6341 80.7928 34.7344C80.7928 34.7845 80.7837 34.8346 80.7655 34.8848C80.7518 34.9349 80.7222 34.9805 80.6766 35.0215C80.6356 35.0625 80.5763 35.0967 80.4989 35.124C80.4259 35.1514 80.3302 35.1696 80.2117 35.1787L77.368 35.1992ZM84.2135 34.9668C84.1907 34.9622 84.1702 34.96 84.152 34.96C84.1338 34.96 84.1132 34.96 84.0905 34.96C83.9173 34.96 83.7555 34.9941 83.6051 35.0625C83.4547 35.1309 83.3157 35.222 83.1881 35.3359C83.0651 35.4453 82.9534 35.5706 82.8532 35.7119C82.7575 35.8532 82.6709 35.9945 82.5934 36.1357C82.5159 36.2725 82.4498 36.4046 82.3951 36.5322C82.345 36.6598 82.3063 36.7669 82.2789 36.8535C82.4384 36.7715 82.6025 36.6781 82.7711 36.5732C82.9443 36.4684 83.1061 36.3682 83.2565 36.2725C83.4069 36.1768 83.5367 36.0902 83.6461 36.0127C83.7601 35.9352 83.8398 35.8828 83.8854 35.8555C84.0905 35.7279 84.2317 35.6094 84.3092 35.5C84.3867 35.3861 84.4254 35.2881 84.4254 35.2061C84.4254 35.1377 84.4026 35.083 84.3571 35.042C84.316 35.001 84.2682 34.9759 84.2135 34.9668ZM84.4596 34.0234C84.8379 34.0234 85.1204 34.1146 85.3073 34.2969C85.4941 34.4792 85.5875 34.7321 85.5875 35.0557C85.5875 35.2471 85.5374 35.4476 85.4371 35.6572C85.3369 35.8669 85.1637 36.0811 84.9176 36.2998C84.6715 36.514 84.3411 36.735 83.9264 36.9629C83.5162 37.1862 83.0013 37.4118 82.3815 37.6396C82.4043 37.7718 82.4749 37.8766 82.5934 37.9541C82.7119 38.027 82.8691 38.0635 83.0651 38.0635C83.2747 38.0635 83.498 38.0339 83.735 37.9746C83.9765 37.9108 84.2135 37.8311 84.4459 37.7354C84.6829 37.6396 84.913 37.5371 85.1364 37.4277C85.3597 37.3138 85.5602 37.2067 85.7379 37.1064C85.9202 37.0062 86.0706 36.9196 86.1891 36.8467C86.3121 36.7738 86.3942 36.7282 86.4352 36.71C86.4762 36.6826 86.5127 36.6667 86.5446 36.6621C86.581 36.6576 86.6129 36.6553 86.6403 36.6553C86.695 36.6553 86.7405 36.6689 86.777 36.6963C86.8134 36.7191 86.8431 36.7487 86.8658 36.7852C86.8932 36.8171 86.9114 36.8535 86.9205 36.8945C86.9297 36.931 86.9342 36.9629 86.9342 36.9902C86.9342 37.0312 86.9297 37.0814 86.9205 37.1406C86.9114 37.1953 86.8772 37.2591 86.818 37.332C86.7952 37.3548 86.7177 37.4163 86.5856 37.5166C86.458 37.6169 86.2916 37.7354 86.0866 37.8721C85.8815 38.0088 85.6422 38.1546 85.3688 38.3096C85.0999 38.46 84.8128 38.599 84.5075 38.7266C84.2067 38.8542 83.8922 38.959 83.5641 39.041C83.236 39.1276 82.9124 39.1709 82.5934 39.1709C82.32 39.1709 82.0761 39.1185 81.8619 39.0137C81.6523 38.9089 81.4723 38.7676 81.3219 38.5898C81.1761 38.4121 81.0644 38.207 80.9869 37.9746C80.9095 37.7422 80.8707 37.4984 80.8707 37.2432C80.8707 37.0472 80.9095 36.833 80.9869 36.6006C81.0644 36.3636 81.1761 36.1266 81.3219 35.8896C81.4677 35.6527 81.6455 35.4225 81.8551 35.1992C82.0693 34.9714 82.3086 34.7708 82.5729 34.5977C82.8372 34.4245 83.1266 34.2855 83.441 34.1807C83.7601 34.0758 84.0996 34.0234 84.4596 34.0234Z" fill="white"/>
<path d="M94.3658 8.82031H98.0001V62.9586H94.3658V35.9464V8.82031Z" fill="#C4C4C4"/>
<path d="M107.73 29.9H109.914C110.625 29.9 111.158 30.0907 111.513 30.472C111.868 30.8533 112.046 31.4123 112.046 32.149V36.751C112.046 37.4877 111.868 38.0467 111.513 38.428C111.158 38.8093 110.625 39 109.914 39H107.73V29.9ZM109.888 37.7C110.122 37.7 110.3 37.6307 110.421 37.492C110.551 37.3533 110.616 37.128 110.616 36.816V32.084C110.616 31.772 110.551 31.5467 110.421 31.408C110.3 31.2693 110.122 31.2 109.888 31.2H109.16V37.7H109.888ZM115.286 29.9H119.186V31.2H116.716V33.605H118.679V34.905H116.716V37.7H119.186V39H115.286V29.9ZM121.907 29.9H123.35L124.286 36.959H124.312L125.248 29.9H126.561L125.183 39H123.285L121.907 29.9ZM129.523 29.9H133.423V31.2H130.953V33.605H132.916V34.905H130.953V37.7H133.423V39H129.523V29.9ZM136.521 29.9H137.951V37.7H140.304V39H136.521V29.9ZM145.28 39.13C144.578 39.13 144.041 38.9307 143.668 38.532C143.296 38.1333 143.109 37.57 143.109 36.842V32.058C143.109 31.33 143.296 30.7667 143.668 30.368C144.041 29.9693 144.578 29.77 145.28 29.77C145.982 29.77 146.52 29.9693 146.892 30.368C147.265 30.7667 147.451 31.33 147.451 32.058V36.842C147.451 37.57 147.265 38.1333 146.892 38.532C146.52 38.9307 145.982 39.13 145.28 39.13ZM145.28 37.83C145.774 37.83 146.021 37.531 146.021 36.933V31.967C146.021 31.369 145.774 31.07 145.28 31.07C144.786 31.07 144.539 31.369 144.539 31.967V36.933C144.539 37.531 144.786 37.83 145.28 37.83ZM150.694 29.9H152.8C153.51 29.9 154.043 30.0907 154.399 30.472C154.754 30.8533 154.932 31.4123 154.932 32.149V33.046C154.932 33.7827 154.754 34.3417 154.399 34.723C154.043 35.1043 153.51 35.295 152.8 35.295H152.124V39H150.694V29.9ZM152.8 33.995C153.034 33.995 153.207 33.93 153.32 33.8C153.441 33.67 153.502 33.449 153.502 33.137V32.058C153.502 31.746 153.441 31.525 153.32 31.395C153.207 31.265 153.034 31.2 152.8 31.2H152.124V33.995H152.8ZM157.983 29.9H161.883V31.2H159.413V33.605H161.376V34.905H159.413V37.7H161.883V39H157.983V29.9ZM164.981 29.9H167.1C167.837 29.9 168.374 30.0733 168.712 30.42C169.05 30.758 169.219 31.2823 169.219 31.993V32.552C169.219 33.4967 168.907 34.0947 168.283 34.346V34.372C168.63 34.476 168.872 34.6883 169.011 35.009C169.158 35.3297 169.232 35.7587 169.232 36.296V37.895C169.232 38.155 169.241 38.3673 169.258 38.532C169.275 38.688 169.319 38.844 169.388 39H167.932C167.88 38.8527 167.845 38.714 167.828 38.584C167.811 38.454 167.802 38.22 167.802 37.882V36.218C167.802 35.802 167.733 35.5117 167.594 35.347C167.464 35.1823 167.234 35.1 166.905 35.1H166.411V39H164.981V29.9ZM166.931 33.8C167.217 33.8 167.429 33.7263 167.568 33.579C167.715 33.4317 167.789 33.1847 167.789 32.838V32.136C167.789 31.8067 167.728 31.5683 167.607 31.421C167.494 31.2737 167.312 31.2 167.061 31.2H166.411V33.8H166.931ZM174.358 39.13C173.665 39.13 173.14 38.935 172.785 38.545C172.43 38.1463 172.252 37.5787 172.252 36.842V36.322H173.604V36.946C173.604 37.5353 173.851 37.83 174.345 37.83C174.588 37.83 174.77 37.7607 174.891 37.622C175.021 37.4747 175.086 37.2407 175.086 36.92C175.086 36.5387 174.999 36.205 174.826 35.919C174.653 35.6243 174.332 35.2733 173.864 34.866C173.275 34.346 172.863 33.878 172.629 33.462C172.395 33.0373 172.278 32.5607 172.278 32.032C172.278 31.3127 172.46 30.758 172.824 30.368C173.188 29.9693 173.717 29.77 174.41 29.77C175.095 29.77 175.61 29.9693 175.957 30.368C176.312 30.758 176.49 31.3213 176.49 32.058V32.435H175.138V31.967C175.138 31.655 175.077 31.4297 174.956 31.291C174.835 31.1437 174.657 31.07 174.423 31.07C173.946 31.07 173.708 31.3603 173.708 31.941C173.708 32.2703 173.795 32.578 173.968 32.864C174.15 33.15 174.475 33.4967 174.943 33.904C175.541 34.424 175.953 34.8963 176.178 35.321C176.403 35.7457 176.516 36.244 176.516 36.816C176.516 37.5613 176.33 38.1333 175.957 38.532C175.593 38.9307 175.06 39.13 174.358 39.13Z" fill="white"/>
<path d="M20.8324 33.3535C20.7777 33.4857 20.7253 33.5905 20.6752 33.668C20.6251 33.7454 20.5704 33.807 20.5111 33.8525C20.4519 33.8936 20.3835 33.9209 20.3061 33.9346C20.2331 33.9482 20.1465 33.9551 20.0463 33.9551C19.6179 33.9186 19.2488 33.8913 18.9389 33.873C18.6335 33.8548 18.3624 33.8457 18.1254 33.8457C17.893 33.8457 17.6879 33.8548 17.5102 33.873C17.337 33.8913 17.1661 33.9232 16.9975 33.9688C16.9291 34.0781 16.8266 34.2513 16.6898 34.4883C16.5531 34.7253 16.4005 34.9964 16.2318 35.3018C16.0678 35.6025 15.8992 35.9238 15.726 36.2656C15.5528 36.6074 15.3933 36.9355 15.2475 37.25C14.933 37.9336 14.6505 38.444 14.3998 38.7812C14.1537 39.1185 13.9441 39.2871 13.7709 39.2871C13.5613 39.2871 13.4086 39.2484 13.3129 39.1709C13.2217 39.098 13.1762 38.9886 13.1762 38.8428C13.1762 38.6696 13.2377 38.4281 13.3607 38.1182C13.4883 37.8037 13.6638 37.4232 13.8871 36.9766C13.9691 36.8125 14.058 36.637 14.1537 36.4502C14.254 36.2633 14.3542 36.0765 14.4545 35.8896C14.5548 35.7028 14.6527 35.5205 14.7484 35.3428C14.8441 35.165 14.9307 35.0055 15.0082 34.8643C15.0857 34.7184 15.1495 34.5954 15.1996 34.4951C15.2543 34.3949 15.2885 34.3288 15.3021 34.2969C15.3158 34.2604 15.3249 34.2354 15.3295 34.2217C15.3386 34.208 15.3432 34.1989 15.3432 34.1943C15.3477 34.1852 15.35 34.1807 15.35 34.1807C15.35 34.1761 15.3523 34.1647 15.3568 34.1465H15.2338C15.0606 34.1465 14.9216 34.1328 14.8168 34.1055C14.712 34.0781 14.6596 34.0189 14.6596 33.9277C14.6596 33.8776 14.6801 33.8138 14.7211 33.7363C14.8168 33.5586 14.9239 33.4242 15.0424 33.333C15.1609 33.2373 15.2748 33.1689 15.3842 33.1279C15.4981 33.0869 15.6007 33.0664 15.6918 33.0664C15.7875 33.0618 15.8604 33.0596 15.9105 33.0596C16.0336 32.8089 16.1566 32.5583 16.2797 32.3076C16.4027 32.057 16.5258 31.8063 16.6488 31.5557C16.8813 31.0954 17.116 30.7103 17.3529 30.4004C17.5945 30.0905 17.8565 29.8421 18.1391 29.6553C18.4216 29.4684 18.7338 29.3363 19.0756 29.2588C19.4174 29.1768 19.807 29.1357 20.2445 29.1357C20.6456 29.1357 20.9646 29.1471 21.2016 29.1699C21.4431 29.1927 21.6117 29.2155 21.7074 29.2383C21.8897 29.2884 22.0173 29.375 22.0902 29.498C22.1677 29.6165 22.2064 29.7487 22.2064 29.8945C22.2064 30.0085 22.1859 30.1224 22.1449 30.2363C22.1085 30.3503 22.0561 30.4551 21.9877 30.5508C21.9239 30.6419 21.8487 30.7171 21.7621 30.7764C21.6801 30.8356 21.5958 30.8652 21.5092 30.8652C21.459 30.8652 21.4158 30.8561 21.3793 30.8379C21.279 30.7923 21.1879 30.7536 21.1059 30.7217C21.0284 30.6852 20.9486 30.6579 20.8666 30.6396C20.7846 30.6169 20.6911 30.6009 20.5863 30.5918C20.4861 30.5827 20.3607 30.5781 20.2104 30.5781C20.0554 30.5781 19.8708 30.5827 19.6566 30.5918C19.447 30.5964 19.1895 30.6055 18.8842 30.6191C18.7611 30.8333 18.6449 31.0339 18.5355 31.2207C18.4307 31.403 18.3259 31.5853 18.2211 31.7676C18.1208 31.9453 18.016 32.1276 17.9066 32.3145C17.8018 32.4967 17.6856 32.6973 17.558 32.916C17.7266 32.8568 17.9089 32.8044 18.1049 32.7588C18.3054 32.7087 18.5082 32.6676 18.7133 32.6357C18.9229 32.6038 19.1326 32.5788 19.3422 32.5605C19.5518 32.5423 19.7523 32.5332 19.9438 32.5332C20.2901 32.5332 20.5385 32.5605 20.6889 32.6152C20.8438 32.6699 20.9213 32.7816 20.9213 32.9502C20.9213 32.9867 20.919 33.0413 20.9145 33.1143C20.9099 33.1826 20.8826 33.2624 20.8324 33.3535ZM23.4191 33.0869C23.4191 32.9821 23.4374 32.875 23.4738 32.7656C23.5148 32.6517 23.5741 32.5492 23.6516 32.458C23.729 32.3669 23.8247 32.2917 23.9387 32.2324C24.0572 32.1732 24.1962 32.1436 24.3557 32.1436C24.62 32.1436 24.8046 32.196 24.9094 32.3008C25.0142 32.401 25.0666 32.5286 25.0666 32.6836C25.0666 32.7702 25.0484 32.8659 25.0119 32.9707C24.98 33.0755 24.9299 33.1735 24.8615 33.2646C24.7932 33.3512 24.7043 33.4242 24.5949 33.4834C24.4855 33.5426 24.3557 33.5723 24.2053 33.5723C23.9227 33.5723 23.7245 33.529 23.6105 33.4424C23.4966 33.3512 23.4328 33.2327 23.4191 33.0869ZM22.6672 34.625C22.7447 34.4974 22.8335 34.4062 22.9338 34.3516C23.034 34.2969 23.1366 34.2695 23.2414 34.2695C23.4146 34.2695 23.5627 34.3265 23.6857 34.4404C23.8133 34.5498 23.8771 34.6911 23.8771 34.8643C23.8726 34.9053 23.8658 34.9463 23.8566 34.9873C23.8521 35.0283 23.8384 35.0693 23.8156 35.1104C23.7518 35.2288 23.6994 35.3291 23.6584 35.4111C23.6174 35.4932 23.5786 35.5706 23.5422 35.6436C23.5103 35.7119 23.4784 35.7803 23.4465 35.8486C23.4146 35.917 23.3758 35.999 23.3303 36.0947C23.2756 36.2087 23.2141 36.334 23.1457 36.4707C23.0773 36.6029 23.0113 36.7396 22.9475 36.8809C22.8882 37.0221 22.8358 37.1611 22.7902 37.2979C22.7492 37.4346 22.7287 37.5599 22.7287 37.6738C22.7287 37.7969 22.7583 37.8789 22.8176 37.9199C22.8814 37.9564 22.9702 37.9746 23.0842 37.9746C23.2118 37.9746 23.3439 37.9473 23.4807 37.8926C23.6219 37.8379 23.7632 37.7673 23.9045 37.6807C24.0458 37.5941 24.1848 37.4961 24.3215 37.3867C24.4582 37.2728 24.5858 37.1589 24.7043 37.0449C24.8273 36.931 24.939 36.8216 25.0393 36.7168C25.1441 36.612 25.2307 36.5186 25.299 36.4365C25.3902 36.3499 25.4813 36.3066 25.5725 36.3066C25.6545 36.3066 25.7206 36.3431 25.7707 36.416C25.8254 36.4889 25.8527 36.5824 25.8527 36.6963C25.8527 36.8011 25.8254 36.9128 25.7707 37.0312C25.7206 37.1497 25.6363 37.2614 25.5178 37.3662C25.2854 37.6032 25.0484 37.8311 24.8068 38.0498C24.5653 38.264 24.3169 38.4554 24.0617 38.624C23.8111 38.7881 23.5581 38.9202 23.3029 39.0205C23.0477 39.1208 22.7902 39.1709 22.5305 39.1709C22.1613 39.1709 21.8697 39.0775 21.6555 38.8906C21.4458 38.6992 21.341 38.403 21.341 38.002C21.341 37.7923 21.3706 37.5872 21.4299 37.3867C21.4891 37.1862 21.5598 36.9925 21.6418 36.8057C21.7238 36.6143 21.8104 36.432 21.9016 36.2588C21.9927 36.0811 22.0702 35.9124 22.134 35.7529C22.1568 35.6937 22.1955 35.6025 22.2502 35.4795C22.3094 35.3564 22.371 35.2311 22.4348 35.1035C22.5077 34.9531 22.5852 34.7936 22.6672 34.625ZM29.8887 35.0146C30.0664 34.9053 30.2487 34.805 30.4355 34.7139C30.627 34.6227 30.8115 34.5452 30.9893 34.4814C31.167 34.4131 31.3356 34.3607 31.4951 34.3242C31.6592 34.2832 31.805 34.2627 31.9326 34.2627C32.1377 34.2627 32.2949 34.3128 32.4043 34.4131C32.5182 34.5088 32.5752 34.6729 32.5752 34.9053C32.5752 34.9554 32.5729 35.0101 32.5684 35.0693C32.5638 35.124 32.5547 35.1833 32.541 35.2471C32.5182 35.3656 32.4499 35.5046 32.3359 35.6641C32.222 35.8236 32.0876 35.9899 31.9326 36.1631C31.7822 36.3363 31.6182 36.5117 31.4404 36.6895C31.2673 36.8626 31.1055 37.0244 30.9551 37.1748C30.8092 37.3206 30.6862 37.4482 30.5859 37.5576C30.4902 37.667 30.4424 37.7422 30.4424 37.7832C30.4424 37.8197 30.4447 37.8447 30.4492 37.8584C30.4538 37.8721 30.4743 37.8789 30.5107 37.8789C30.7568 37.7741 31.0303 37.6488 31.3311 37.5029C31.6364 37.3525 31.9395 37.1999 32.2402 37.0449C32.541 36.89 32.8258 36.7396 33.0947 36.5938C33.3636 36.4434 33.5915 36.3135 33.7783 36.2041C33.8193 36.1813 33.8604 36.1631 33.9014 36.1494C33.9469 36.1312 33.988 36.1221 34.0244 36.1221C34.1064 36.1221 34.1748 36.1494 34.2295 36.2041C34.2842 36.2588 34.3115 36.3317 34.3115 36.4229C34.3115 36.5277 34.266 36.6484 34.1748 36.7852C34.0882 36.9173 33.9401 37.0563 33.7305 37.2021C33.571 37.3024 33.391 37.4163 33.1904 37.5439C32.9945 37.667 32.7871 37.7969 32.5684 37.9336C32.3542 38.0658 32.1354 38.1956 31.9121 38.3232C31.6934 38.4508 31.4814 38.5648 31.2764 38.665C31.0713 38.7653 30.8776 38.8473 30.6953 38.9111C30.5176 38.9704 30.3626 39 30.2305 39C29.916 39 29.679 38.9248 29.5195 38.7744C29.3646 38.624 29.2871 38.4303 29.2871 38.1934C29.2871 38.1569 29.2894 38.1296 29.2939 38.1113C29.3258 37.9108 29.3851 37.7171 29.4717 37.5303C29.5583 37.3434 29.6562 37.1657 29.7656 36.9971C29.875 36.8285 29.9889 36.6689 30.1074 36.5186C30.2259 36.3636 30.333 36.2201 30.4287 36.0879C30.529 35.9512 30.611 35.8258 30.6748 35.7119C30.7386 35.598 30.7705 35.4932 30.7705 35.3975C30.7705 35.3747 30.766 35.3519 30.7568 35.3291C30.7477 35.3063 30.7272 35.2949 30.6953 35.2949C30.6406 35.2949 30.5495 35.3154 30.4219 35.3564C30.2988 35.3975 30.1667 35.4521 30.0254 35.5205C29.8841 35.5889 29.7497 35.6686 29.6221 35.7598C29.4945 35.8464 29.4033 35.9398 29.3486 36.04C29.2757 36.1676 29.1914 36.3294 29.0957 36.5254C29 36.7214 28.8997 36.9264 28.7949 37.1406C28.6947 37.3548 28.5967 37.5667 28.501 37.7764C28.4053 37.986 28.3232 38.166 28.2549 38.3164C28.2002 38.4486 28.1273 38.5671 28.0361 38.6719C27.9495 38.7767 27.8538 38.8656 27.749 38.9385C27.6442 39.0114 27.5371 39.0684 27.4277 39.1094C27.3184 39.1504 27.2181 39.1709 27.127 39.1709C27.0221 39.1709 26.9378 39.1436 26.874 39.0889C26.8148 39.0342 26.7852 38.9453 26.7852 38.8223C26.7852 38.7721 26.792 38.7106 26.8057 38.6377C26.8239 38.5602 26.8581 38.4759 26.9082 38.3848C26.9902 38.2298 27.0723 38.0612 27.1543 37.8789C27.2409 37.6966 27.3389 37.4893 27.4482 37.2568C27.5576 37.0199 27.6829 36.751 27.8242 36.4502C27.9701 36.1449 28.141 35.7939 28.3369 35.3975C28.2731 35.3428 28.2184 35.2767 28.1729 35.1992C28.1318 35.1172 28.1113 35.0169 28.1113 34.8984C28.1113 34.7891 28.1341 34.6956 28.1797 34.6182C28.2253 34.5361 28.2868 34.4701 28.3643 34.4199C28.4417 34.3698 28.5306 34.3333 28.6309 34.3105C28.7357 34.2832 28.8451 34.2695 28.959 34.2695C29.0775 34.2695 29.196 34.2809 29.3145 34.3037C29.4329 34.3219 29.5378 34.3516 29.6289 34.3926C29.7246 34.4336 29.8021 34.4837 29.8613 34.543C29.9206 34.6022 29.9502 34.6706 29.9502 34.748C29.9502 34.7617 29.9456 34.7799 29.9365 34.8027C29.9274 34.8255 29.916 34.8506 29.9023 34.8779C29.8932 34.9053 29.8841 34.9303 29.875 34.9531C29.8659 34.9759 29.8613 34.9941 29.8613 35.0078C29.8613 35.0169 29.8636 35.0215 29.8682 35.0215H29.875L29.8887 35.0146ZM37.6844 35.1514C37.9624 35.2972 38.2107 35.4635 38.4295 35.6504C38.6482 35.8372 38.8328 36.0355 38.9832 36.2451C39.1382 36.4502 39.2544 36.6598 39.3318 36.874C39.4139 37.0882 39.4549 37.2979 39.4549 37.5029C39.4549 37.7627 39.3797 37.9974 39.2293 38.207C39.0835 38.4121 38.8898 38.5876 38.6482 38.7334C38.4113 38.8747 38.1378 38.9818 37.8279 39.0547C37.5226 39.1322 37.2127 39.1709 36.8982 39.1709C36.6613 39.1709 36.4311 39.1436 36.2078 39.0889C35.9845 39.0387 35.7794 38.959 35.5926 38.8496C35.4103 38.7402 35.2531 38.6012 35.1209 38.4326C34.9887 38.2594 34.8953 38.0544 34.8406 37.8174C34.8315 37.7809 34.827 37.7513 34.827 37.7285C34.827 37.6055 34.8702 37.5007 34.9568 37.4141C35.0434 37.3229 35.1391 37.2773 35.2439 37.2773C35.2941 37.2773 35.3488 37.2865 35.408 37.3047C35.4718 37.3229 35.5197 37.3639 35.5516 37.4277C35.6108 37.5371 35.6928 37.6351 35.7977 37.7217C35.907 37.8083 36.0278 37.8835 36.16 37.9473C36.2921 38.0065 36.4311 38.0544 36.577 38.0908C36.7273 38.1227 36.8732 38.1387 37.0145 38.1387C37.1603 38.1387 37.2993 38.125 37.4314 38.0977C37.5682 38.0703 37.6867 38.027 37.7869 37.9678C37.8917 37.9085 37.9738 37.8333 38.033 37.7422C38.0923 37.651 38.1219 37.5394 38.1219 37.4072C38.1219 37.1748 38.0695 36.9606 37.9646 36.7646C37.8598 36.5687 37.7231 36.3887 37.5545 36.2246C37.3904 36.056 37.2013 35.901 36.9871 35.7598C36.7775 35.6139 36.5678 35.4749 36.3582 35.3428C36.3354 35.3291 36.3012 35.2904 36.2557 35.2266C36.2101 35.1582 36.1873 35.0898 36.1873 35.0215C36.1873 34.9668 36.201 34.9235 36.2283 34.8916C36.3012 34.7959 36.3855 34.6979 36.4813 34.5977C36.577 34.4974 36.6795 34.4062 36.7889 34.3242C36.8982 34.2376 37.0167 34.1693 37.1443 34.1191C37.2719 34.0645 37.4041 34.0371 37.5408 34.0371C37.6411 34.0371 37.7345 34.0508 37.8211 34.0781C37.9077 34.1055 37.9806 34.1419 38.0398 34.1875C38.0991 34.2285 38.1447 34.2764 38.1766 34.3311C38.213 34.3812 38.2313 34.429 38.2313 34.4746C38.2313 34.5384 38.2153 34.5999 38.1834 34.6592C38.1515 34.7184 38.1082 34.7754 38.0535 34.8301C38.0034 34.8848 37.9441 34.9395 37.8758 34.9941C37.812 35.0488 37.7482 35.1012 37.6844 35.1514ZM44.3932 35.1992C44.2245 35.5273 44.065 35.8486 43.9146 36.1631C43.7643 36.473 43.623 36.7601 43.4908 37.0244C43.4361 37.1338 43.3814 37.2614 43.3268 37.4072C43.2766 37.5485 43.2516 37.6738 43.2516 37.7832C43.2516 37.847 43.2652 37.8971 43.2926 37.9336C43.3245 37.9701 43.3746 37.9883 43.443 37.9883C43.5387 37.9883 43.6594 37.9609 43.8053 37.9062C43.9511 37.847 44.1083 37.7718 44.277 37.6807C44.4456 37.585 44.6233 37.4779 44.8102 37.3594C44.997 37.2363 45.1793 37.111 45.357 36.9834C45.5393 36.8512 45.7125 36.7214 45.8766 36.5938C46.0406 36.4616 46.1865 36.3408 46.3141 36.2314C46.387 36.1813 46.4553 36.1562 46.5191 36.1562C46.5966 36.1562 46.6604 36.1904 46.7105 36.2588C46.7607 36.3271 46.7857 36.4137 46.7857 36.5186C46.7857 36.6234 46.7607 36.7305 46.7105 36.8398C46.6604 36.9492 46.5693 37.0563 46.4371 37.1611C46.1409 37.43 45.8401 37.6852 45.5348 37.9268C45.234 38.1683 44.9332 38.3825 44.6324 38.5693C44.3362 38.7516 44.0423 38.8975 43.7506 39.0068C43.4589 39.1162 43.1764 39.1709 42.9029 39.1709C42.7206 39.1709 42.568 39.1458 42.4449 39.0957C42.3219 39.0501 42.2216 38.9863 42.1441 38.9043C42.0712 38.8177 42.0188 38.7197 41.9869 38.6104C41.955 38.4964 41.9391 38.3757 41.9391 38.248C41.9391 38.0202 41.9778 37.7832 42.0553 37.5371C42.1327 37.291 42.2193 37.07 42.315 36.874C42.4518 36.5915 42.5862 36.3112 42.7184 36.0332C42.8551 35.7552 42.9872 35.4886 43.1148 35.2334H42.8209C42.5657 35.2334 42.3902 35.1924 42.2945 35.1104C42.1988 35.0283 42.151 34.9349 42.151 34.8301C42.151 34.7845 42.1646 34.7298 42.192 34.666C42.2239 34.5977 42.2672 34.5361 42.3219 34.4814C42.3811 34.4222 42.4518 34.3721 42.5338 34.3311C42.6158 34.29 42.7092 34.2695 42.8141 34.2695H43.5523L44.9947 31.4053C45.0859 31.2321 45.1975 31.109 45.3297 31.0361C45.4664 30.9587 45.6077 30.9199 45.7535 30.9199C45.8902 30.9199 46.0156 30.9564 46.1295 31.0293C46.2434 31.1022 46.3004 31.223 46.3004 31.3916C46.3004 31.4782 46.2799 31.5671 46.2389 31.6582C46.2024 31.7448 46.1523 31.8473 46.0885 31.9658C46.0475 32.0433 45.9973 32.1367 45.9381 32.2461C45.8788 32.3509 45.815 32.4648 45.7467 32.5879C45.6829 32.7064 45.6145 32.8317 45.5416 32.9639C45.4732 33.096 45.4049 33.2236 45.3365 33.3467C45.1816 33.6383 45.0175 33.946 44.8443 34.2695H47.0729C47.1822 34.2695 47.2825 34.2764 47.3736 34.29C47.4648 34.2992 47.5423 34.3219 47.6061 34.3584C47.6744 34.3903 47.7268 34.4359 47.7633 34.4951C47.7997 34.5544 47.818 34.6341 47.818 34.7344C47.818 34.7845 47.8089 34.8346 47.7906 34.8848C47.777 34.9349 47.7473 34.9805 47.7018 35.0215C47.6607 35.0625 47.6015 35.0967 47.524 35.124C47.4511 35.1514 47.3554 35.1696 47.2369 35.1787L44.3932 35.1992Z" fill="white"/>
</svg>
