
<svg width="232" height="66" viewBox="0 0 232 66" fill="none" xmlns="http://www.w3.org/2000/svg">
    <g>
        <path d="M54.698 33.2783C54.7332 33.2842 54.7683 33.2871 54.8035 33.2871C54.8445 33.2871 54.8855 33.2871 54.9265 33.2871C55.4363 33.2871 55.9168 33.1787 56.3679 32.9619C56.825 32.7393 57.2234 32.458 57.5632 32.1182C57.9031 31.7783 58.1697 31.4004 58.363 30.9844C58.5623 30.5684 58.6619 30.1641 58.6619 29.7715C58.6619 29.4902 58.6091 29.2236 58.5037 28.9717C58.4041 28.7197 58.2429 28.5 58.0203 28.3125C57.8035 28.125 57.5222 27.9756 57.1765 27.8643C56.8367 27.7529 56.4294 27.6973 55.9548 27.6973C55.4216 27.6973 54.9617 27.7471 54.575 27.8467C54.1941 27.9463 53.863 28.0752 53.5818 28.2334C53.3064 28.3916 53.072 28.5732 52.8787 28.7783C52.6912 28.9834 52.5271 29.1943 52.3865 29.4111C52.2517 29.6279 52.1287 29.8389 52.0173 30.0439C51.906 30.249 51.7888 30.4307 51.6658 30.5889C51.5486 30.7471 51.4168 30.876 51.2703 30.9756C51.1238 31.0752 50.9421 31.125 50.7253 31.125C50.4324 31.125 50.2127 31.0518 50.0662 30.9053C49.9197 30.7529 49.8464 30.542 49.8464 30.2725C49.8464 30.0205 49.9138 29.748 50.0486 29.4551C50.1892 29.1621 50.3855 28.8691 50.6375 28.5762C50.8953 28.2832 51.2087 28.002 51.5779 27.7324C51.947 27.457 52.3601 27.2168 52.8171 27.0117C53.28 26.8008 53.7839 26.6338 54.3289 26.5107C54.8738 26.3818 55.4509 26.3174 56.0603 26.3174C56.658 26.3174 57.2293 26.3936 57.7742 26.5459C58.325 26.6982 58.8113 26.9268 59.2332 27.2314C59.655 27.5303 59.989 27.9082 60.2351 28.3652C60.4871 28.8223 60.613 29.3555 60.613 29.9648C60.613 30.375 60.5369 30.7676 60.3845 31.1426C60.238 31.5117 60.0388 31.8604 59.7869 32.1885C59.5349 32.5107 59.239 32.8096 58.8992 33.085C58.5652 33.3545 58.2078 33.5947 57.8269 33.8057C57.446 34.0166 57.0535 34.1953 56.6492 34.3418C56.2507 34.4883 55.864 34.5938 55.489 34.6582C55.5418 34.9336 55.6267 35.2441 55.7439 35.5898C55.8669 35.9297 56.0134 36.2549 56.1834 36.5654C56.3591 36.8701 56.5525 37.1309 56.7634 37.3477C56.9744 37.5645 57.197 37.6816 57.4314 37.6992C57.4783 37.7051 57.5222 37.708 57.5632 37.708C57.6043 37.708 57.6453 37.708 57.6863 37.708C58.114 37.708 58.4949 37.6377 58.8289 37.4971C59.1628 37.3564 59.4412 37.2012 59.6638 37.0312C59.9275 36.8379 60.156 36.6123 60.3494 36.3545C60.531 36.1494 60.7156 36.0469 60.9031 36.0469C61.0203 36.0469 61.1199 36.0879 61.2019 36.1699C61.2839 36.252 61.325 36.3633 61.325 36.5039C61.325 36.6387 61.281 36.7969 61.1931 36.9785C61.1111 37.1543 60.9675 37.3389 60.7625 37.5322C60.1589 38.1006 59.5671 38.5166 58.9871 38.7803C58.4128 39.0381 57.8679 39.167 57.3523 39.167C56.9304 39.167 56.5408 39.0469 56.1834 38.8066C55.8259 38.5664 55.5007 38.2412 55.2078 37.8311C54.9148 37.4209 54.6482 36.9434 54.408 36.3984C54.1677 35.8477 53.9539 35.2676 53.7664 34.6582C53.6609 34.8984 53.5525 35.1826 53.4412 35.5107C53.3298 35.833 53.2097 36.167 53.0808 36.5127C52.9519 36.8584 52.8171 37.2012 52.6765 37.541C52.5359 37.875 52.3806 38.1768 52.2107 38.4463C52.0408 38.71 51.8591 38.9238 51.6658 39.0879C51.4724 39.252 51.2615 39.334 51.033 39.334C50.8455 39.334 50.6931 39.3047 50.5759 39.2461C50.4587 39.1875 50.3679 39.1143 50.3035 39.0264C50.239 38.9385 50.1921 38.8418 50.1628 38.7363C50.1394 38.6309 50.1277 38.5312 50.1277 38.4375C50.1277 38.3027 50.1453 38.165 50.1804 38.0244C50.2156 37.8838 50.2654 37.752 50.3298 37.6289L52.9226 32.8828C53.1453 32.4844 53.3679 32.1006 53.5906 31.7314C53.8191 31.3564 54.0388 31.0254 54.2498 30.7383C54.4666 30.4512 54.6687 30.2227 54.8562 30.0527C55.0496 29.877 55.2224 29.7891 55.3748 29.7891C55.4158 29.7891 55.4656 29.7979 55.5242 29.8154C55.5828 29.8271 55.6355 29.8535 55.6824 29.8945C55.7293 29.9297 55.7703 29.9854 55.8054 30.0615C55.8406 30.1318 55.8582 30.2227 55.8582 30.334C55.8582 30.4453 55.8259 30.6006 55.7615 30.7998C55.697 30.999 55.6121 31.2275 55.5066 31.4854C55.4011 31.7432 55.2781 32.0273 55.1375 32.3379C54.9968 32.6426 54.8503 32.9561 54.698 33.2783ZM66.7513 34.2012C66.4759 34.2012 66.2093 34.2715 65.9515 34.4121C65.6937 34.5527 65.4652 34.7373 65.266 34.9658C65.0668 35.1943 64.9085 35.4521 64.7914 35.7393C64.6742 36.0205 64.6156 36.3047 64.6156 36.5918C64.6156 36.709 64.6214 36.832 64.6332 36.9609C64.6507 37.084 64.6859 37.1982 64.7386 37.3037C64.7914 37.4092 64.8646 37.4971 64.9584 37.5674C65.058 37.6377 65.1898 37.6729 65.3539 37.6729C65.4828 37.6729 65.6322 37.6172 65.8021 37.5059C65.9779 37.3887 66.1566 37.2422 66.3382 37.0664C66.5257 36.8848 66.7074 36.6885 66.8832 36.4775C67.0589 36.2607 67.2171 36.0498 67.3578 35.8447C67.4984 35.6396 67.6126 35.4551 67.7005 35.291C67.7884 35.127 67.8324 35.0068 67.8324 34.9307C67.8324 34.8193 67.7943 34.7197 67.7181 34.6318C67.6419 34.5381 67.5482 34.459 67.4369 34.3945C67.3255 34.3301 67.2054 34.2832 67.0765 34.2539C66.9535 34.2188 66.8451 34.2012 66.7513 34.2012ZM72.8421 36.4688C72.7367 36.5684 72.596 36.7061 72.4203 36.8818C72.2445 37.0576 72.0423 37.248 71.8138 37.4531C71.5912 37.6582 71.3509 37.8662 71.0931 38.0771C70.8412 38.2822 70.5804 38.4697 70.3109 38.6396C70.0472 38.8096 69.7865 38.9473 69.5287 39.0527C69.2709 39.1641 69.0277 39.2197 68.7992 39.2197C68.5941 39.2197 68.4183 39.1758 68.2718 39.0879C68.1253 39 68.0023 38.8857 67.9027 38.7451C67.8089 38.6045 67.7386 38.4463 67.6918 38.2705C67.6449 38.0889 67.6214 37.9043 67.6214 37.7168C67.6214 37.5938 67.6302 37.4736 67.6478 37.3564C67.6654 37.2334 67.6947 37.1191 67.7357 37.0137C67.5541 37.2598 67.346 37.5146 67.1117 37.7783C66.8832 38.0361 66.6341 38.2734 66.3646 38.4902C66.1009 38.7012 65.8226 38.874 65.5296 39.0088C65.2425 39.1494 64.9496 39.2197 64.6507 39.2197C64.4984 39.2197 64.3197 39.1875 64.1146 39.123C63.9154 39.0645 63.725 38.9648 63.5433 38.8242C63.3617 38.6836 63.2093 38.502 63.0863 38.2793C62.9632 38.0566 62.9017 37.7842 62.9017 37.4619C62.9017 37.2217 62.9369 36.9346 63.0072 36.6006C63.0834 36.2666 63.1947 35.9209 63.3412 35.5635C63.4935 35.2002 63.6839 34.8428 63.9125 34.4912C64.1468 34.1396 64.4222 33.8262 64.7386 33.5508C65.055 33.2695 65.4154 33.0439 65.8197 32.874C66.224 32.6982 66.6751 32.6104 67.1732 32.6104C67.431 32.6104 67.6566 32.6426 67.85 32.707C68.0433 32.7715 68.2074 32.8418 68.3421 32.918C68.4945 33.0117 68.6293 33.1143 68.7464 33.2256C68.846 33.1729 68.9486 33.123 69.0541 33.0762C69.1419 33.0352 69.2328 33 69.3265 32.9707C69.4261 32.9355 69.5111 32.918 69.5814 32.918C69.8041 32.918 69.9857 32.9795 70.1263 33.1025C70.2669 33.2256 70.3373 33.3604 70.3373 33.5068C70.3373 33.5479 70.3343 33.5801 70.3285 33.6035C70.2992 33.7148 70.2523 33.8555 70.1878 34.0254C70.1293 34.1953 70.0619 34.3857 69.9857 34.5967C69.9095 34.8018 69.8304 35.0186 69.7484 35.2471C69.6722 35.4697 69.6019 35.6895 69.5375 35.9062C69.473 36.123 69.4203 36.3281 69.3793 36.5215C69.3382 36.709 69.3177 36.8701 69.3177 37.0049C69.3177 37.1807 69.347 37.3271 69.4056 37.4443C69.4642 37.5557 69.5638 37.6113 69.7044 37.6113C69.7923 37.6113 69.8949 37.585 70.0121 37.5322C70.1351 37.4736 70.2669 37.3975 70.4076 37.3037C70.5482 37.21 70.6918 37.1045 70.8382 36.9873C70.9906 36.8643 71.1371 36.7412 71.2777 36.6182C71.6058 36.3252 71.9544 35.9912 72.3236 35.6162C72.4173 35.54 72.5082 35.502 72.596 35.502C72.7132 35.502 72.8099 35.5605 72.8861 35.6777C72.9681 35.7891 73.0091 35.915 73.0091 36.0557C73.0091 36.2197 72.9535 36.3574 72.8421 36.4688ZM77.6972 34.1133C77.4804 34.5352 77.2753 34.9482 77.082 35.3525C76.8886 35.751 76.707 36.1201 76.5371 36.46C76.4668 36.6006 76.3964 36.7646 76.3261 36.9521C76.2617 37.1338 76.2294 37.2949 76.2294 37.4355C76.2294 37.5176 76.247 37.582 76.2822 37.6289C76.3232 37.6758 76.3876 37.6992 76.4755 37.6992C76.5986 37.6992 76.7539 37.6641 76.9414 37.5938C77.1289 37.5176 77.331 37.4209 77.5478 37.3037C77.7646 37.1807 77.9931 37.043 78.2334 36.8906C78.4736 36.7324 78.708 36.5713 78.9365 36.4072C79.1709 36.2373 79.3935 36.0703 79.6044 35.9062C79.8154 35.7363 80.0029 35.5811 80.1669 35.4404C80.2607 35.376 80.3486 35.3438 80.4306 35.3438C80.5302 35.3438 80.6123 35.3877 80.6767 35.4756C80.7412 35.5635 80.7734 35.6748 80.7734 35.8096C80.7734 35.9443 80.7412 36.082 80.6767 36.2227C80.6123 36.3633 80.4951 36.501 80.3251 36.6357C79.9443 36.9814 79.5576 37.3096 79.165 37.6201C78.7783 37.9307 78.3916 38.2061 78.0048 38.4463C77.624 38.6807 77.246 38.8682 76.871 39.0088C76.496 39.1494 76.1328 39.2197 75.7812 39.2197C75.5468 39.2197 75.3505 39.1875 75.1923 39.123C75.0341 39.0645 74.9052 38.9824 74.8056 38.877C74.7119 38.7656 74.6445 38.6396 74.6035 38.499C74.5625 38.3525 74.5419 38.1973 74.5419 38.0332C74.5419 37.7402 74.5918 37.4355 74.6914 37.1191C74.791 36.8027 74.9023 36.5186 75.0253 36.2666C75.2011 35.9033 75.374 35.543 75.5439 35.1855C75.7197 34.8281 75.8896 34.4854 76.0537 34.1572H75.6757C75.3476 34.1572 75.122 34.1045 74.999 33.999C74.8759 33.8936 74.8144 33.7734 74.8144 33.6387C74.8144 33.5801 74.832 33.5098 74.8671 33.4277C74.9082 33.3398 74.9638 33.2607 75.0341 33.1904C75.1103 33.1143 75.2011 33.0498 75.3066 32.9971C75.4121 32.9443 75.5322 32.918 75.6669 32.918H76.6162L78.4707 29.2354C78.5878 29.0127 78.7314 28.8545 78.9013 28.7607C79.0771 28.6611 79.2587 28.6113 79.4462 28.6113C79.622 28.6113 79.7832 28.6582 79.9296 28.752C80.0761 28.8457 80.1494 29.001 80.1494 29.2178C80.1494 29.3291 80.123 29.4434 80.0703 29.5605C80.0234 29.6719 79.9589 29.8037 79.8769 29.9561C79.8242 30.0557 79.7597 30.1758 79.6835 30.3164C79.6074 30.4512 79.5253 30.5977 79.4375 30.7559C79.3554 30.9082 79.2675 31.0693 79.1738 31.2393C79.0859 31.4092 78.998 31.5732 78.9101 31.7314C78.7109 32.1064 78.5 32.502 78.2773 32.918H81.1425C81.2832 32.918 81.4121 32.9268 81.5293 32.9443C81.6464 32.9561 81.746 32.9854 81.8281 33.0322C81.916 33.0732 81.9834 33.1318 82.0302 33.208C82.0771 33.2842 82.1005 33.3867 82.1005 33.5156C82.1005 33.5801 82.0888 33.6445 82.0654 33.709C82.0478 33.7734 82.0097 33.832 81.9511 33.8848C81.8984 33.9375 81.8222 33.9814 81.7226 34.0166C81.6289 34.0518 81.5058 34.0752 81.3535 34.0869L77.6972 34.1133ZM86.4986 33.8145C86.4693 33.8086 86.4429 33.8057 86.4195 33.8057C86.396 33.8057 86.3697 33.8057 86.3404 33.8057C86.1177 33.8057 85.9097 33.8496 85.7164 33.9375C85.523 34.0254 85.3443 34.1426 85.1802 34.2891C85.022 34.4297 84.8785 34.5908 84.7496 34.7725C84.6265 34.9541 84.5152 35.1357 84.4156 35.3174C84.316 35.4932 84.231 35.6631 84.1607 35.8271C84.0962 35.9912 84.0464 36.1289 84.0113 36.2402C84.2164 36.1348 84.4273 36.0146 84.6441 35.8799C84.8668 35.7451 85.0748 35.6162 85.2681 35.4932C85.4615 35.3701 85.6285 35.2588 85.7691 35.1592C85.9156 35.0596 86.0181 34.9922 86.0767 34.957C86.3404 34.793 86.522 34.6406 86.6216 34.5C86.7212 34.3535 86.771 34.2275 86.771 34.1221C86.771 34.0342 86.7418 33.9639 86.6832 33.9111C86.6304 33.8584 86.5689 33.8262 86.4986 33.8145ZM86.815 32.6016C87.3013 32.6016 87.6646 32.7188 87.9048 32.9531C88.1451 33.1875 88.2652 33.5127 88.2652 33.9287C88.2652 34.1748 88.2007 34.4326 88.0718 34.7021C87.9429 34.9717 87.7203 35.2471 87.4039 35.5283C87.0875 35.8037 86.6627 36.0879 86.1294 36.3809C85.6021 36.668 84.94 36.958 84.1431 37.251C84.1724 37.4209 84.2632 37.5557 84.4156 37.6553C84.5679 37.749 84.7701 37.7959 85.022 37.7959C85.2916 37.7959 85.5787 37.7578 85.8834 37.6816C86.1939 37.5996 86.4986 37.4971 86.7974 37.374C87.1021 37.251 87.398 37.1191 87.6851 36.9785C87.9722 36.832 88.23 36.6943 88.4585 36.5654C88.6929 36.4365 88.8863 36.3252 89.0386 36.2314C89.1968 36.1377 89.3023 36.0791 89.355 36.0557C89.4078 36.0205 89.4546 36 89.4957 35.9941C89.5425 35.9883 89.5835 35.9854 89.6187 35.9854C89.689 35.9854 89.7476 36.0029 89.7945 36.0381C89.8414 36.0674 89.8794 36.1055 89.9087 36.1523C89.9439 36.1934 89.9673 36.2402 89.9791 36.293C89.9908 36.3398 89.9966 36.3809 89.9966 36.416C89.9966 36.4688 89.9908 36.5332 89.9791 36.6094C89.9673 36.6797 89.9234 36.7617 89.8472 36.8555C89.8179 36.8848 89.7183 36.9639 89.5484 37.0928C89.3843 37.2217 89.1705 37.374 88.9068 37.5498C88.6431 37.7256 88.3355 37.9131 87.9839 38.1123C87.6382 38.3057 87.2691 38.4844 86.8765 38.6484C86.4898 38.8125 86.0855 38.9473 85.6636 39.0527C85.2418 39.1641 84.8257 39.2197 84.4156 39.2197C84.064 39.2197 83.7505 39.1523 83.4752 39.0176C83.2056 38.8828 82.9742 38.7012 82.7808 38.4727C82.5933 38.2441 82.4498 37.9805 82.3502 37.6816C82.2505 37.3828 82.2007 37.0693 82.2007 36.7412C82.2007 36.4893 82.2505 36.2139 82.3502 35.915C82.4498 35.6104 82.5933 35.3057 82.7808 35.001C82.9683 34.6963 83.1968 34.4004 83.4664 34.1133C83.7418 33.8203 84.0494 33.5625 84.3892 33.3398C84.7291 33.1172 85.1011 32.9385 85.5054 32.8037C85.9156 32.6689 86.3521 32.6016 86.815 32.6016Z" fill="white" />
        <path d="M96.272 8.82031H99.9797V62.9586H96.272V35.9464V8.82031Z" fill="#C4C4C4" />
        <text x="105" y="38" font-family="Arial Black" fill="white">Programmers</text>
        <path d="M10.4988 30.7402C10.4285 30.9102 10.3611 31.0449 10.2967 31.1445C10.2322 31.2441 10.1619 31.3232 10.0857 31.3818C10.0096 31.4346 9.92168 31.4697 9.82207 31.4873C9.72832 31.5049 9.61699 31.5137 9.48809 31.5137C8.93731 31.4668 8.4627 31.4316 8.06426 31.4082C7.67168 31.3848 7.32305 31.373 7.01836 31.373C6.71953 31.373 6.45586 31.3848 6.22734 31.4082C6.00469 31.4316 5.78496 31.4727 5.56816 31.5312C5.48027 31.6719 5.34844 31.8945 5.17266 32.1992C4.99688 32.5039 4.80059 32.8525 4.58379 33.2451C4.37285 33.6318 4.15606 34.0449 3.9334 34.4844C3.71074 34.9238 3.50566 35.3457 3.31816 35.75C2.91387 36.6289 2.55059 37.2852 2.22832 37.7188C1.91191 38.1523 1.64238 38.3691 1.41973 38.3691C1.1502 38.3691 0.953907 38.3193 0.83086 38.2197C0.713673 38.126 0.655079 37.9854 0.655079 37.7979C0.655079 37.5752 0.73418 37.2646 0.892384 36.8662C1.05645 36.4619 1.28203 35.9727 1.56914 35.3984C1.67461 35.1875 1.78887 34.9619 1.91191 34.7217C2.04082 34.4814 2.16973 34.2412 2.29863 34.001C2.42754 33.7607 2.55352 33.5264 2.67656 33.2979C2.79961 33.0693 2.91094 32.8643 3.01055 32.6826C3.11016 32.4951 3.19219 32.3369 3.25664 32.208C3.32695 32.0791 3.3709 31.9941 3.38848 31.9531C3.40606 31.9062 3.41777 31.874 3.42363 31.8564C3.43535 31.8389 3.44121 31.8271 3.44121 31.8213C3.44707 31.8096 3.45 31.8037 3.45 31.8037C3.45 31.7979 3.45293 31.7832 3.45879 31.7598H3.30059C3.07793 31.7598 2.89922 31.7422 2.76445 31.707C2.62969 31.6719 2.56231 31.5957 2.56231 31.4785C2.56231 31.4141 2.58867 31.332 2.64141 31.2324C2.76445 31.0039 2.90215 30.8311 3.05449 30.7139C3.20684 30.5908 3.35332 30.5029 3.49395 30.4502C3.64043 30.3975 3.77227 30.3711 3.88945 30.3711C4.0125 30.3652 4.10625 30.3623 4.1707 30.3623C4.32891 30.04 4.48711 29.7178 4.64531 29.3955C4.80352 29.0732 4.96172 28.751 5.11992 28.4287C5.41875 27.8369 5.72051 27.3418 6.0252 26.9434C6.33574 26.5449 6.67266 26.2256 7.03594 25.9854C7.39922 25.7451 7.80059 25.5752 8.24004 25.4756C8.67949 25.3701 9.18047 25.3174 9.74297 25.3174C10.2586 25.3174 10.6688 25.332 10.9734 25.3613C11.284 25.3906 11.5008 25.4199 11.6238 25.4492C11.8582 25.5137 12.0223 25.625 12.116 25.7832C12.2156 25.9355 12.2654 26.1055 12.2654 26.293C12.2654 26.4395 12.2391 26.5859 12.1863 26.7324C12.1395 26.8789 12.0721 27.0137 11.9842 27.1367C11.9021 27.2539 11.8055 27.3506 11.6941 27.4268C11.5887 27.5029 11.4803 27.541 11.3689 27.541C11.3045 27.541 11.2488 27.5293 11.202 27.5059C11.073 27.4473 10.9559 27.3975 10.8504 27.3564C10.7508 27.3096 10.6482 27.2744 10.5428 27.251C10.4373 27.2217 10.3172 27.2012 10.1824 27.1895C10.0535 27.1777 9.89238 27.1719 9.69902 27.1719C9.49981 27.1719 9.2625 27.1777 8.98711 27.1895C8.71758 27.1953 8.38652 27.207 7.99395 27.2246C7.83574 27.5 7.68633 27.7578 7.5457 27.998C7.41094 28.2324 7.27617 28.4668 7.14141 28.7012C7.0125 28.9297 6.87774 29.1641 6.73711 29.4043C6.60234 29.6387 6.45293 29.8965 6.28887 30.1777C6.50566 30.1016 6.74004 30.0342 6.99199 29.9756C7.24981 29.9111 7.51055 29.8584 7.77422 29.8174C8.04375 29.7764 8.31328 29.7441 8.58281 29.7207C8.85234 29.6973 9.11016 29.6855 9.35625 29.6855C9.80156 29.6855 10.1209 29.7207 10.3143 29.791C10.5135 29.8613 10.6131 30.0049 10.6131 30.2217C10.6131 30.2686 10.6102 30.3389 10.6043 30.4326C10.5984 30.5205 10.5633 30.623 10.4988 30.7402ZM13.8246 30.3975C13.8246 30.2627 13.848 30.125 13.8949 29.9844C13.9477 29.8379 14.0238 29.7061 14.1234 29.5889C14.223 29.4717 14.3461 29.375 14.4926 29.2988C14.6449 29.2227 14.8236 29.1846 15.0287 29.1846C15.3686 29.1846 15.6059 29.252 15.7406 29.3867C15.8754 29.5156 15.9428 29.6797 15.9428 29.8789C15.9428 29.9902 15.9193 30.1133 15.8725 30.248C15.8314 30.3828 15.767 30.5088 15.6791 30.626C15.5912 30.7373 15.477 30.8311 15.3363 30.9072C15.1957 30.9834 15.0287 31.0215 14.8354 31.0215C14.4721 31.0215 14.2172 30.9658 14.0707 30.8545C13.9242 30.7373 13.8422 30.585 13.8246 30.3975ZM12.8578 32.375C12.9574 32.2109 13.0717 32.0938 13.2006 32.0234C13.3295 31.9531 13.4613 31.918 13.5961 31.918C13.8188 31.918 14.0092 31.9912 14.1674 32.1377C14.3314 32.2783 14.4135 32.46 14.4135 32.6826C14.4076 32.7354 14.3988 32.7881 14.3871 32.8408C14.3813 32.8936 14.3637 32.9463 14.3344 32.999C14.2523 33.1514 14.185 33.2803 14.1322 33.3857C14.0795 33.4912 14.0297 33.5908 13.9828 33.6846C13.9418 33.7725 13.9008 33.8604 13.8598 33.9482C13.8188 34.0361 13.7689 34.1416 13.7104 34.2646C13.64 34.4111 13.5609 34.5723 13.473 34.748C13.3852 34.918 13.3002 35.0938 13.2182 35.2754C13.142 35.457 13.0746 35.6357 13.016 35.8115C12.9633 35.9873 12.9369 36.1484 12.9369 36.2949C12.9369 36.4531 12.975 36.5586 13.0512 36.6113C13.1332 36.6582 13.2475 36.6816 13.3939 36.6816C13.558 36.6816 13.7279 36.6465 13.9037 36.5762C14.0854 36.5059 14.267 36.415 14.4486 36.3037C14.6303 36.1924 14.809 36.0664 14.9848 35.9258C15.1605 35.7793 15.3246 35.6328 15.477 35.4863C15.6352 35.3398 15.7787 35.1992 15.9076 35.0645C16.0424 34.9297 16.1537 34.8096 16.2416 34.7041C16.3588 34.5928 16.476 34.5371 16.5932 34.5371C16.6986 34.5371 16.7836 34.584 16.848 34.6777C16.9184 34.7715 16.9535 34.8916 16.9535 35.0381C16.9535 35.1729 16.9184 35.3164 16.848 35.4688C16.7836 35.6211 16.6752 35.7646 16.5229 35.8994C16.224 36.2041 15.9193 36.4971 15.6088 36.7783C15.2982 37.0537 14.9789 37.2998 14.6508 37.5166C14.3285 37.7275 14.0033 37.8975 13.6752 38.0264C13.3471 38.1553 13.016 38.2197 12.682 38.2197C12.2074 38.2197 11.8324 38.0996 11.557 37.8594C11.2875 37.6133 11.1527 37.2324 11.1527 36.7168C11.1527 36.4473 11.1908 36.1836 11.267 35.9258C11.3432 35.668 11.434 35.4189 11.5395 35.1787C11.6449 34.9326 11.7563 34.6982 11.8734 34.4756C11.9906 34.2471 12.0902 34.0303 12.1723 33.8252C12.2016 33.749 12.2514 33.6318 12.3217 33.4736C12.3979 33.3154 12.477 33.1543 12.559 32.9902C12.6527 32.7969 12.7523 32.5918 12.8578 32.375ZM22.1426 32.876C22.3711 32.7354 22.6055 32.6064 22.8457 32.4893C23.0918 32.3721 23.3291 32.2725 23.5576 32.1904C23.7861 32.1025 24.0029 32.0352 24.208 31.9883C24.4189 31.9355 24.6064 31.9092 24.7705 31.9092C25.0342 31.9092 25.2363 31.9736 25.377 32.1025C25.5234 32.2256 25.5967 32.4365 25.5967 32.7354C25.5967 32.7998 25.5938 32.8701 25.5879 32.9463C25.582 33.0166 25.5703 33.0928 25.5527 33.1748C25.5234 33.3271 25.4355 33.5059 25.2891 33.7109C25.1426 33.916 24.9697 34.1299 24.7705 34.3525C24.5771 34.5752 24.3662 34.8008 24.1377 35.0293C23.915 35.252 23.707 35.46 23.5137 35.6533C23.3262 35.8408 23.168 36.0049 23.0391 36.1455C22.916 36.2861 22.8545 36.3828 22.8545 36.4355C22.8545 36.4824 22.8574 36.5146 22.8633 36.5322C22.8691 36.5498 22.8955 36.5586 22.9424 36.5586C23.2588 36.4238 23.6104 36.2627 23.9971 36.0752C24.3896 35.8818 24.7793 35.6855 25.166 35.4863C25.5527 35.2871 25.9189 35.0938 26.2646 34.9062C26.6104 34.7129 26.9033 34.5459 27.1436 34.4053C27.1963 34.376 27.249 34.3525 27.3018 34.335C27.3604 34.3115 27.4131 34.2998 27.46 34.2998C27.5654 34.2998 27.6533 34.335 27.7236 34.4053C27.7939 34.4756 27.8291 34.5693 27.8291 34.6865C27.8291 34.8213 27.7705 34.9766 27.6533 35.1523C27.542 35.3223 27.3516 35.501 27.082 35.6885C26.877 35.8174 26.6455 35.9639 26.3877 36.1279C26.1357 36.2861 25.8691 36.4531 25.5879 36.6289C25.3125 36.7988 25.0312 36.9658 24.7441 37.1299C24.4629 37.2939 24.1904 37.4404 23.9268 37.5693C23.6631 37.6982 23.4141 37.8037 23.1797 37.8857C22.9512 37.9619 22.752 38 22.582 38C22.1777 38 21.873 37.9033 21.668 37.71C21.4688 37.5166 21.3691 37.2676 21.3691 36.9629C21.3691 36.916 21.3721 36.8809 21.3779 36.8574C21.4189 36.5996 21.4951 36.3506 21.6064 36.1104C21.7178 35.8701 21.8438 35.6416 21.9844 35.4248C22.125 35.208 22.2715 35.0029 22.4238 34.8096C22.5762 34.6104 22.7139 34.4258 22.8369 34.2559C22.9658 34.0801 23.0713 33.9189 23.1533 33.7725C23.2354 33.626 23.2764 33.4912 23.2764 33.3682C23.2764 33.3389 23.2705 33.3096 23.2588 33.2803C23.2471 33.251 23.2207 33.2363 23.1797 33.2363C23.1094 33.2363 22.9922 33.2627 22.8281 33.3154C22.6699 33.3682 22.5 33.4385 22.3184 33.5264C22.1367 33.6143 21.9639 33.7168 21.7998 33.834C21.6357 33.9453 21.5186 34.0654 21.4482 34.1943C21.3545 34.3584 21.2461 34.5664 21.123 34.8184C21 35.0703 20.8711 35.334 20.7363 35.6094C20.6074 35.8848 20.4814 36.1572 20.3584 36.4268C20.2354 36.6963 20.1299 36.9277 20.042 37.1211C19.9717 37.291 19.8779 37.4434 19.7607 37.5781C19.6494 37.7129 19.5264 37.8271 19.3916 37.9209C19.2568 38.0146 19.1191 38.0879 18.9785 38.1406C18.8379 38.1934 18.709 38.2197 18.5918 38.2197C18.457 38.2197 18.3486 38.1846 18.2666 38.1143C18.1904 38.0439 18.1523 37.9297 18.1523 37.7715C18.1523 37.707 18.1611 37.6279 18.1787 37.5342C18.2021 37.4346 18.2461 37.3262 18.3105 37.209C18.416 37.0098 18.5215 36.793 18.627 36.5586C18.7383 36.3242 18.8643 36.0576 19.0049 35.7588C19.1455 35.4541 19.3066 35.1084 19.4883 34.7217C19.6758 34.3291 19.8955 33.8779 20.1475 33.3682C20.0654 33.2979 19.9951 33.2129 19.9365 33.1133C19.8838 33.0078 19.8574 32.8789 19.8574 32.7266C19.8574 32.5859 19.8867 32.4658 19.9453 32.3662C20.0039 32.2607 20.083 32.1758 20.1826 32.1113C20.2822 32.0469 20.3965 32 20.5254 31.9707C20.6602 31.9355 20.8008 31.918 20.9473 31.918C21.0996 31.918 21.252 31.9326 21.4043 31.9619C21.5566 31.9854 21.6914 32.0234 21.8086 32.0762C21.9316 32.1289 22.0312 32.1934 22.1074 32.2695C22.1836 32.3457 22.2217 32.4336 22.2217 32.5332C22.2217 32.5508 22.2158 32.5742 22.2041 32.6035C22.1924 32.6328 22.1777 32.665 22.1602 32.7002C22.1484 32.7354 22.1367 32.7676 22.125 32.7969C22.1133 32.8262 22.1074 32.8496 22.1074 32.8672C22.1074 32.8789 22.1104 32.8848 22.1162 32.8848H22.125L22.1426 32.876ZM32.1656 33.0518C32.523 33.2393 32.8424 33.4531 33.1236 33.6934C33.4049 33.9336 33.6422 34.1885 33.8355 34.458C34.0348 34.7217 34.1842 34.9912 34.2838 35.2666C34.3893 35.542 34.442 35.8115 34.442 36.0752C34.442 36.4092 34.3453 36.7109 34.152 36.9805C33.9645 37.2441 33.7154 37.4697 33.4049 37.6572C33.1002 37.8389 32.7486 37.9766 32.3502 38.0703C31.9576 38.1699 31.5592 38.2197 31.1549 38.2197C30.8502 38.2197 30.5543 38.1846 30.2672 38.1143C29.9801 38.0498 29.7164 37.9473 29.4762 37.8066C29.2418 37.666 29.0396 37.4873 28.8697 37.2705C28.6998 37.0479 28.5797 36.7842 28.5094 36.4795C28.4977 36.4326 28.4918 36.3945 28.4918 36.3652C28.4918 36.207 28.5475 36.0723 28.6588 35.9609C28.7701 35.8438 28.8932 35.7852 29.0279 35.7852C29.0924 35.7852 29.1627 35.7969 29.2389 35.8203C29.3209 35.8438 29.3824 35.8965 29.4234 35.9785C29.4996 36.1191 29.6051 36.2451 29.7398 36.3564C29.8805 36.4678 30.0357 36.5645 30.2057 36.6465C30.3756 36.7227 30.5543 36.7842 30.7418 36.8311C30.9352 36.8721 31.1227 36.8926 31.3043 36.8926C31.4918 36.8926 31.6705 36.875 31.8404 36.8398C32.0162 36.8047 32.1686 36.749 32.2975 36.6729C32.4322 36.5967 32.5377 36.5 32.6139 36.3828C32.69 36.2656 32.7281 36.1221 32.7281 35.9521C32.7281 35.6533 32.6607 35.3779 32.526 35.126C32.3912 34.874 32.2154 34.6426 31.9986 34.4316C31.7877 34.2148 31.5445 34.0156 31.2691 33.834C30.9996 33.6465 30.7301 33.4678 30.4605 33.2979C30.4313 33.2803 30.3873 33.2305 30.3287 33.1484C30.2701 33.0605 30.2408 32.9727 30.2408 32.8848C30.2408 32.8145 30.2584 32.7588 30.2936 32.7178C30.3873 32.5947 30.4957 32.4688 30.6188 32.3398C30.7418 32.2109 30.8736 32.0938 31.0143 31.9883C31.1549 31.877 31.3072 31.7891 31.4713 31.7246C31.6354 31.6543 31.8053 31.6191 31.9811 31.6191C32.11 31.6191 32.2301 31.6367 32.3414 31.6719C32.4527 31.707 32.5465 31.7539 32.6227 31.8125C32.6988 31.8652 32.7574 31.9268 32.7984 31.9971C32.8453 32.0615 32.8688 32.123 32.8688 32.1816C32.8688 32.2637 32.8482 32.3428 32.8072 32.4189C32.7662 32.4951 32.7105 32.5684 32.6402 32.6387C32.5758 32.709 32.4996 32.7793 32.4117 32.8496C32.3297 32.9199 32.2477 32.9873 32.1656 33.0518ZM40.7912 33.1133C40.5744 33.5352 40.3693 33.9482 40.176 34.3525C39.9826 34.751 39.801 35.1201 39.6311 35.46C39.5607 35.6006 39.4904 35.7646 39.4201 35.9521C39.3557 36.1338 39.3234 36.2949 39.3234 36.4355C39.3234 36.5176 39.341 36.582 39.3762 36.6289C39.4172 36.6758 39.4816 36.6992 39.5695 36.6992C39.6926 36.6992 39.8479 36.6641 40.0354 36.5938C40.2229 36.5176 40.425 36.4209 40.6418 36.3037C40.8586 36.1807 41.0871 36.043 41.3273 35.8906C41.5676 35.7324 41.802 35.5713 42.0305 35.4072C42.2648 35.2373 42.4875 35.0703 42.6984 34.9062C42.9094 34.7363 43.0969 34.5811 43.2609 34.4404C43.3547 34.376 43.4426 34.3438 43.5246 34.3438C43.6242 34.3438 43.7062 34.3877 43.7707 34.4756C43.8352 34.5635 43.8674 34.6748 43.8674 34.8096C43.8674 34.9443 43.8352 35.082 43.7707 35.2227C43.7062 35.3633 43.5891 35.501 43.4191 35.6357C43.0383 35.9814 42.6516 36.3096 42.259 36.6201C41.8723 36.9307 41.4855 37.2061 41.0988 37.4463C40.718 37.6807 40.34 37.8682 39.965 38.0088C39.59 38.1494 39.2268 38.2197 38.8752 38.2197C38.6408 38.2197 38.4445 38.1875 38.2863 38.123C38.1281 38.0645 37.9992 37.9824 37.8996 37.877C37.8059 37.7656 37.7385 37.6396 37.6975 37.499C37.6564 37.3525 37.6359 37.1973 37.6359 37.0332C37.6359 36.7402 37.6857 36.4355 37.7854 36.1191C37.885 35.8027 37.9963 35.5186 38.1193 35.2666C38.2951 34.9033 38.468 34.543 38.6379 34.1855C38.8137 33.8281 38.9836 33.4854 39.1477 33.1572H38.7697C38.4416 33.1572 38.216 33.1045 38.093 32.999C37.9699 32.8936 37.9084 32.7734 37.9084 32.6387C37.9084 32.5801 37.926 32.5098 37.9611 32.4277C38.0021 32.3398 38.0578 32.2607 38.1281 32.1904C38.2043 32.1143 38.2951 32.0498 38.4006 31.9971C38.5061 31.9443 38.6262 31.918 38.7609 31.918H39.7102L41.5646 28.2354C41.6818 28.0127 41.8254 27.8545 41.9953 27.7607C42.1711 27.6611 42.3527 27.6113 42.5402 27.6113C42.716 27.6113 42.8771 27.6582 43.0236 27.752C43.1701 27.8457 43.2434 28.001 43.2434 28.2178C43.2434 28.3291 43.217 28.4434 43.1643 28.5605C43.1174 28.6719 43.0529 28.8037 42.9709 28.9561C42.9182 29.0557 42.8537 29.1758 42.7775 29.3164C42.7014 29.4512 42.6193 29.5977 42.5314 29.7559C42.4494 29.9082 42.3615 30.0693 42.2678 30.2393C42.1799 30.4092 42.092 30.5732 42.0041 30.7314C41.8049 31.1064 41.5939 31.502 41.3713 31.918H44.2365C44.3771 31.918 44.5061 31.9268 44.6232 31.9443C44.7404 31.9561 44.84 31.9854 44.9221 32.0322C45.01 32.0732 45.0773 32.1318 45.1242 32.208C45.1711 32.2842 45.1945 32.3867 45.1945 32.5156C45.1945 32.5801 45.1828 32.6445 45.1594 32.709C45.1418 32.7734 45.1037 32.832 45.0451 32.8848C44.9924 32.9375 44.9162 32.9814 44.8166 33.0166C44.7229 33.0518 44.5998 33.0752 44.4475 33.0869L40.7912 33.1133Z" fill="white" />
    </g>

</svg>
